<svg width="284" height="144" viewBox="0 0 284 144" fill="none" xmlns="http://www.w3.org/2000/svg">
<g clip-path="url(#clip0_468_359)">
<path d="M103.343 143.494C111.263 138.787 118.629 133.525 124.832 126.824C130.979 120.234 136.13 112.812 139.84 104.228C140.893 104.173 141.945 104.062 142.942 104.007C149.975 103.896 157.064 104.339 164.042 103.563C182.042 101.625 194.447 83.349 190.404 65.2943C187.303 51.5596 174.897 41.0369 161.162 40.7046C154.406 40.5385 147.705 40.6493 140.726 40.6493C133.527 23.9238 122.173 11.0198 106.279 1.71555C107.22 1.49402 107.608 1.32788 107.995 1.32788C126.77 1.32788 145.489 0.829436 164.208 1.49402C183.094 2.15861 198.933 10.4659 211.726 24.8099C213.942 27.3021 215.88 30.0713 217.985 32.6742C211.173 45.1906 207.517 58.15 207.517 72.2725C207.517 86.395 211.062 99.3544 218.04 112.092C215.437 115.305 212.834 118.683 210.01 121.784C201.315 131.31 190.57 137.679 178.386 141.002C172.294 142.663 165.815 143.328 159.501 143.439C141.502 143.771 123.503 143.549 105.503 143.549C104.783 143.66 104.063 143.549 103.343 143.494Z" fill="#DD2428"/>
<path d="M284 1.16113V40.6487C274.53 41.1471 266.61 44.9131 260.574 52.2235C256.088 57.651 253.928 64.0199 253.485 71.2196C252.598 85.2867 263.453 103.286 283.945 104.283V143.272C267.109 144.324 242.408 135.297 227.51 113.476C210.508 88.665 211.449 56.6541 225.572 34.4458C239.196 12.9575 258.801 2.15801 284 1.16113Z" fill="#444750"/>
<path d="M137.957 63.9097H99.245C96.642 54.1625 90.8269 47.1289 82.0211 42.8091C75.6521 39.7077 68.8955 39.32 62.0281 40.8154C49.0133 43.6398 38.6568 57.0977 38.4353 71.3863C38.2138 85.1765 47.9056 98.3575 61.3081 102.013C69.3386 104.173 77.2582 103.342 84.5133 98.9667C91.6022 94.7023 96.4758 88.4994 98.968 80.4136H137.736C136.573 104.671 115.14 137.568 77.6459 142.165C37.6046 147.094 1.99379 116.301 0.110798 75.0416C-1.88296 33.2834 30.4049 -0.499785 71.3877 0.497095C110.432 1.49398 136.296 34.5572 137.957 63.9097Z" fill="#444750"/>
</g>
<defs>
<clipPath id="clip0_468_359">
<rect width="284" height="143.218" fill="white" transform="translate(0 0.496094)"/>
</clipPath>
</defs>
</svg>
