<svg width="634" height="406" viewBox="0 0 634 406" fill="none" xmlns="http://www.w3.org/2000/svg">
<path d="M447 315.5H512V327H517L523 347V352.5H435V347L441 327H447V315.5Z" fill="#F1F3F9"/>
<path d="M512 327V315.5H447V327M512 327H517L523 347M512 327H447M447 327H441L435 347M435 347H523M435 347V352.5H523V347" stroke="#D6DCE8" stroke-width="3"/>
<path d="M321.5 44L297.5 68.5H321.5M321.5 44V68.5M321.5 44L349 43.8203M551 42.5V68.5H519M551 42.5L519 68.5M551 42.5L543 42.5523M321.5 68.5L349 43.8203M321.5 68.5H349M349 43.8203V68.5M349 43.8203L378.5 43.6275M349 43.8203L479.5 2M349 68.5L378.5 43.6275M349 68.5H378.5M378.5 43.6275V68.5M378.5 43.6275L406.5 43.4444M378.5 68.5L406.5 43.4444M378.5 68.5H406.5M406.5 43.4444V68.5M406.5 43.4444L434.5 43.2614M406.5 68.5L434.5 43.2614M406.5 68.5H434.5M434.5 43.2614V68.5M434.5 43.2614L464 43.0686M434.5 68.5L464 43.0686M434.5 68.5H464M464 43.0686V68.5M464 43.0686L494 42.8726M464 43.0686V17M464 43.0686L494 17M464 68.5L494 42.8726M464 68.5H494M464 68.5V119M494 42.8726V68.5M494 42.8726L519 42.7092M494 42.8726V17M494 68.5L519 42.7092M494 68.5H519M494 68.5V119M519 42.7092V68.5M519 42.7092L543 42.5523M479.5 2L543 42.5523M479.5 2L464 17M479.5 2L494 17M464 17H494M464 315V290.5M464 315H494V290.5M464 315L494 290.5M464 290.5V266M464 290.5L494 266M464 290.5H494M464 266V241M464 266L494 241M464 266H494M464 241V217.5M464 241L494 217.5M464 241H494M464 217.5V192.5M464 217.5L494 192.5M464 217.5H494M464 192.5V168M464 192.5L494 168M464 192.5H494M464 168V143.5M464 168L494 143.5M464 168H494M464 143.5V119M464 143.5L494 119M464 143.5H494M464 119H494M464 119L472.5 110.5M494 119V143.5M494 143.5V168M494 168V192.5M494 192.5V217.5M494 217.5V241M494 241V266M494 266V290.5" stroke="#D6DCE8" stroke-width="3"/>
<path d="M428.5 88.5V68.5H495.5V110.5H450.5L428.5 88.5Z" fill="#F1F3F9" stroke="#D6DCE8" stroke-width="3"/>
<rect x="469.5" y="77.5" width="19" height="10" fill="white" stroke="#D6DCE8" stroke-width="3"/>
<rect x="442.5" y="77.5" width="19" height="10" fill="white" stroke="#D6DCE8" stroke-width="3"/>
<path d="M163.422 324.439H111.29V333.663H107.28L102.467 349.704V354.115H173.047V349.704L168.235 333.663H163.422V324.439Z" fill="#F1F3F9"/>
<path d="M111.29 333.663V324.439H163.422V333.663M111.29 333.663H107.28L102.467 349.704M111.29 333.663H163.422M163.422 333.663H168.235L173.047 349.704M173.047 349.704H102.467M173.047 349.704V354.115H102.467V349.704" stroke="#D6DCE8" stroke-opacity="0.72" stroke-width="2"/>
<path d="M264.071 106.686L283.32 126.336H264.071M264.071 106.686V126.336M264.071 106.686L242.015 106.542M80.0031 105.483V126.336H105.668M80.0031 105.483L105.668 126.336M80.0031 105.483L86.4194 105.525M264.071 126.336L242.015 106.542M264.071 126.336H242.015M242.015 106.542V126.336M242.015 106.542L218.355 106.387M242.015 106.542L137.349 73M242.015 126.336L218.355 106.387M242.015 126.336H218.355M218.355 106.387V126.336M218.355 106.387L195.898 106.24M218.355 126.336L195.898 106.24M218.355 126.336H195.898M195.898 106.24V126.336M195.898 106.24L173.441 106.093M195.898 126.336L173.441 106.093M195.898 126.336H173.441M173.441 106.093V126.336M173.441 106.093L149.781 105.939M173.441 126.336L149.781 105.939M173.441 126.336H149.781M149.781 105.939V126.336M149.781 105.939L125.719 105.781M149.781 105.939V85.0306M149.781 105.939L125.719 85.0306M149.781 126.336L125.719 105.781M149.781 126.336H125.719M149.781 126.336V166.839M125.719 105.781V126.336M125.719 105.781L105.668 105.65M125.719 105.781V85.0306M125.719 126.336L105.668 105.65M125.719 126.336H105.668M125.719 126.336V166.839M105.668 105.65V126.336M105.668 105.65L86.4194 105.525M137.349 73L86.4194 105.525M137.349 73L149.781 85.0306M137.349 73L125.719 85.0306M149.781 85.0306H125.719M149.781 324.039V304.389M149.781 324.039H125.719V304.389M149.781 324.039L125.719 304.389M149.781 304.389V284.739M149.781 304.389L125.719 284.739M149.781 304.389H125.719M149.781 284.739V264.688M149.781 284.739L125.719 264.688M149.781 284.739H125.719M149.781 264.688V245.84M149.781 264.688L125.719 245.84M149.781 264.688H125.719M149.781 245.84V225.789M149.781 245.84L125.719 225.789M149.781 245.84H125.719M149.781 225.789V206.139M149.781 225.789L125.719 206.139M149.781 225.789H125.719M149.781 206.139V186.489M149.781 206.139L125.719 186.489M149.781 206.139H125.719M149.781 186.489V166.839M149.781 186.489L125.719 166.839M149.781 186.489H125.719M149.781 166.839H125.719M149.781 166.839L142.963 160.021M125.719 166.839V186.489M125.719 186.489V206.139M125.719 206.139V225.789M125.719 225.789V245.84M125.719 245.84V264.688M125.719 264.688V284.739M125.719 284.739V304.389" stroke="#D6DCE8" stroke-opacity="0.72" stroke-width="2"/>
<path d="M178.25 142.377V126.336H124.513V160.022H160.605L178.25 142.377Z" fill="#F1F3F9" stroke="#D6DCE8" stroke-opacity="0.72" stroke-width="2"/>
<rect width="17.6449" height="10.4265" transform="matrix(-1 0 0 1 146.57 132.351)" fill="white"/>
<rect x="-1" y="1" width="15.6449" height="8.42652" transform="matrix(-1 0 0 1 144.57 132.351)" stroke="#D6DCE8" stroke-opacity="0.72" stroke-width="2"/>
<rect width="17.6449" height="10.4265" transform="matrix(-1 0 0 1 168.234 132.351)" fill="white"/>
<rect x="-1" y="1" width="15.6449" height="8.42652" transform="matrix(-1 0 0 1 166.234 132.351)" stroke="#D6DCE8" stroke-opacity="0.72" stroke-width="2"/>
<path d="M77.5556 325.089H69V298.852H75.8444L76.4148 296H85.5407L86.6815 298.852H127.178L127.748 296H136.874L137.444 298.852H146V325.089H135.163H128.319H84.4H77.5556Z" fill="white"/>
<path d="M127.178 298.852L127.748 296H136.874L137.444 298.852M127.178 298.852H137.444M127.178 298.852H86.6815M137.444 298.852H146V325.089H135.163H128.319H84.4H77.5556H69V298.852H75.8444M75.8444 298.852L76.4148 296H85.5407L86.6815 298.852M75.8444 298.852H86.6815" stroke="#D6DCE8" stroke-width="1.14074"/>
<path d="M127.747 296L127.177 298.852H137.444L136.873 296H127.747Z" fill="#D6DCE8"/>
<path d="M76.4141 296L75.8438 298.852H86.6808L85.54 296H76.4141Z" fill="#D6DCE8"/>
<path d="M127.747 296L127.177 298.852H137.444L136.873 296H127.747Z" stroke="#D6DCE8" stroke-width="1.14074"/>
<path d="M76.4141 296L75.8438 298.852H86.6808L85.54 296H76.4141Z" stroke="#D6DCE8" stroke-width="1.14074"/>
<path d="M77.5547 354.5V325.089H84.3991H128.318H135.162V354.5H128.318V325.089H84.3991V354.5H77.5547Z" fill="#F1F3F9"/>
<path d="M128.318 325.089V354.5H135.162V325.089H128.318ZM128.318 325.089H84.3991M84.3991 325.089V354.5H77.5547V325.089H84.3991Z" stroke="#D6DCE8" stroke-width="1.14074"/>
<path d="M78.6961 298.852L71.2812 325.089H78.6961L86.6813 298.852H78.6961Z" fill="#D6DCE8"/>
<path d="M97.5164 298.852L90.1016 325.089H97.5164L105.502 298.852H97.5164Z" fill="#D6DCE8"/>
<path d="M115.774 298.852L108.359 325.089H115.774L123.759 298.852H115.774Z" fill="#D6DCE8"/>
<path d="M134.024 298.852L126.609 325.089H134.024L142.009 298.852H134.024Z" fill="#D6DCE8"/>
<circle cx="323" cy="100" r="8" fill="#D6DCE8"/>
<path d="M323 68.5V111.343C323 111.742 323.236 112.1 323.596 112.271C328.614 114.653 335.92 120.695 329 128C326.167 130 319.4 131.6 315 122" stroke="#D6DCE8" stroke-width="3" stroke-linecap="round"/>
<path d="M180 133.5H406C410.142 133.5 413.5 136.858 413.5 141V281.5H172.5V141C172.5 136.858 175.858 133.5 180 133.5Z" stroke="#D6DCE8" stroke-width="3"/>
<mask id="path-27-inside-1_1425_4336" fill="white">
<path d="M174 141C174 137.686 176.686 135 180 135H406C409.314 135 412 137.686 412 141V280H174V141Z"/>
</mask>
<path d="M174 141C174 137.686 176.686 135 180 135H406C409.314 135 412 137.686 412 141V280H174V141Z" stroke="#F1F3F9" stroke-width="14" stroke-linejoin="round" mask="url(#path-27-inside-1_1425_4336)"/>
<path d="M172.5 281.5H413.5V305C413.5 309.142 410.142 312.5 406 312.5H180C175.858 312.5 172.5 309.142 172.5 305V281.5Z" stroke="#D6DCE8" stroke-width="3"/>
<rect x="254.148" y="146.917" width="139.835" height="104.649" rx="6" transform="rotate(8.87253 254.148 146.917)" fill="#EBEEF5"/>
<rect x="246" y="260" width="34" height="3" fill="#D6DCE8"/>
<rect x="321" y="259" width="34" height="3" fill="#D6DCE8"/>
<rect x="247" y="250" width="62" height="3" fill="#D6DCE8"/>
<rect x="320" y="250" width="62" height="3" fill="#D6DCE8"/>
<rect x="249.782" y="131.377" width="138.472" height="103.817" rx="4.5" transform="rotate(8.87253 249.782 131.377)" fill="white" stroke="#D6DCE8" stroke-width="3"/>
<path d="M281 135C293 132 318.2 126.2 323 127C327.8 127.8 347.333 140.333 356.5 146.5" stroke="#AAB2C5" stroke-width="3" stroke-linecap="round"/>
<rect x="257.047" y="141" width="122.755" height="85.3341" rx="5.11572" transform="rotate(8.87253 257.047 141)" fill="#F1F3F9"/>
<rect x="276" y="174.972" width="16" height="4" transform="rotate(-18.1026 276 174.972)" fill="#AAB2C5"/>
<rect width="16" height="4" transform="matrix(-0.779129 -0.626864 -0.626864 0.779129 348.977 186.03)" fill="#AAB2C5"/>
<circle cx="287.5" cy="190.5" r="5.5" fill="#AAB2C5"/>
<circle cx="334.5" cy="197.5" r="5.5" fill="#AAB2C5"/>
<ellipse cx="309.002" cy="208" rx="6" ry="5" transform="rotate(15.9702 309.002 208)" fill="#AAB2C5"/>
<circle cx="293.5" cy="298.5" r="5.5" fill="#D6DCE8"/>
<rect x="190" y="147" width="36" height="119" rx="5" fill="#F1F3F9"/>
<circle cx="208" cy="163" r="6" fill="#D6DCE8"/>
<rect x="195" y="176" width="25" height="3" fill="#D6DCE8"/>
<rect x="195" y="186" width="25" height="3" fill="#D6DCE8"/>
<rect x="195" y="196" width="25" height="3" fill="#D6DCE8"/>
<rect x="195" y="206" width="25" height="3" fill="#D6DCE8"/>
<rect x="195" y="216" width="25" height="3" fill="#D6DCE8"/>
<rect x="195" y="226" width="25" height="3" fill="#D6DCE8"/>
<rect x="198" y="236" width="18" height="3" fill="#D6DCE8"/>
<path d="M397.59 316.228L384 349.5H413.5L399.437 316.217C399.09 315.397 397.926 315.404 397.59 316.228Z" stroke="#D6DCE8" stroke-width="2"/>
<path d="M402.5 324.5H394.5L391.5 332.5H406L402.5 324.5Z" fill="#D6DCE8"/>
<path d="M384.5 349L388 341H409.5L413 349H384.5Z" fill="#D6DCE8"/>
<path d="M402.5 324.5H394.5L391.5 332.5H406L402.5 324.5Z" stroke="#D6DCE8"/>
<path d="M384.5 349L388 341H409.5L413 349H384.5Z" stroke="#D6DCE8"/>
<rect x="381" y="350" width="35" height="3" rx="1.5" stroke="#D6DCE8" stroke-width="2"/>
<path d="M350 353C333.6 341.8 327.5 322 326.5 313.5H260.5C259.833 322.667 253.8 343.4 235 353H350Z" fill="#F1F3F9" stroke="#D6DCE8" stroke-width="3"/>
<path d="M225.59 317.228L212 350.5H241.5L227.437 317.217C227.09 316.397 225.926 316.404 225.59 317.228Z" stroke="#D6DCE8" stroke-width="2"/>
<path d="M230.5 325.5H222.5L219.5 333.5H234L230.5 325.5Z" fill="#D6DCE8"/>
<path d="M212.5 350L216 342H237.5L241 350H212.5Z" fill="#D6DCE8"/>
<path d="M230.5 325.5H222.5L219.5 333.5H234L230.5 325.5Z" stroke="#D6DCE8"/>
<path d="M212.5 350L216 342H237.5L241 350H212.5Z" stroke="#D6DCE8"/>
<rect x="209" y="351" width="35" height="3" rx="1.5" fill="white" stroke="#D6DCE8" stroke-width="2"/>
<path d="M540.556 328.689H533V305.519H539.044L539.548 303H547.607L548.615 305.519H584.378L584.881 303H592.941L593.444 305.519H601V328.689H591.43H585.385H546.6H540.556Z" fill="white"/>
<path d="M584.378 305.519L584.881 303H592.941L593.444 305.519M584.378 305.519H593.444M584.378 305.519H548.615M593.444 305.519H601V328.689H591.43H585.385H546.6H540.556H533V305.519H539.044M539.044 305.519L539.548 303H547.607L548.615 305.519M539.044 305.519H548.615" stroke="#D6DCE8" stroke-width="1.00741"/>
<path d="M584.876 303L584.372 305.519H593.439L592.935 303H584.876Z" fill="#D6DCE8"/>
<path d="M539.543 303L539.039 305.519H548.609L547.602 303H539.543Z" fill="#D6DCE8"/>
<path d="M584.876 303L584.372 305.519H593.439L592.935 303H584.876Z" stroke="#D6DCE8" stroke-width="1.00741"/>
<path d="M539.543 303L539.039 305.519H548.609L547.602 303H539.543Z" stroke="#D6DCE8" stroke-width="1.00741"/>
<path d="M540.555 354.5V328.689H546.599H585.384H591.429V354.5H585.384V328.689H546.599V354.5H540.555Z" fill="#F1F3F9"/>
<path d="M585.384 328.689V354.5H591.429V328.689H585.384ZM585.384 328.689H546.599M546.599 328.689V354.5H540.555V328.689H546.599Z" stroke="#D6DCE8" stroke-width="1.00741"/>
<path d="M541.564 305.518L535.016 328.688H541.564L548.616 305.518H541.564Z" fill="#D6DCE8"/>
<path d="M558.189 305.518L551.641 328.688H558.189L565.241 305.518H558.189Z" fill="#D6DCE8"/>
<path d="M574.306 305.518L567.758 328.688H574.306L581.358 305.518H574.306Z" fill="#D6DCE8"/>
<path d="M590.423 305.518L583.875 328.688H590.423L597.475 305.518H590.423Z" fill="#D6DCE8"/>
<path d="M2 354.5H632.001" stroke="#D6DCE8" stroke-width="3" stroke-linecap="round"/>
<path d="M154.708 400.242C153.358 400.242 152.156 399.963 151.1 399.406C150.044 398.849 149.222 398.042 148.636 396.986C148.049 395.915 147.756 394.661 147.756 393.224V384.16C147.756 384.087 147.69 384.028 147.558 383.984C147.44 383.94 147.323 383.918 147.206 383.918V383.5H151.452V383.918C151.334 383.918 151.21 383.94 151.078 383.984C150.96 384.028 150.902 384.087 150.902 384.16V392.564C150.902 394.148 151.217 395.365 151.848 396.216C152.493 397.067 153.446 397.492 154.708 397.492C156.086 397.492 157.003 397.052 157.458 396.172C157.927 395.292 158.162 394.148 158.162 392.74V384.16C158.162 384.087 158.096 384.028 157.964 383.984C157.846 383.94 157.729 383.918 157.612 383.918V383.5H161.88V383.918C161.762 383.918 161.638 383.94 161.506 383.984C161.388 384.028 161.33 384.087 161.33 384.16V392.828C161.33 395.16 160.794 396.979 159.724 398.284C158.668 399.589 156.996 400.242 154.708 400.242ZM175.335 399.34C175.335 399.413 175.386 399.472 175.489 399.516C175.606 399.56 175.724 399.582 175.841 399.582V400H171.969V399.582C172.086 399.582 172.196 399.56 172.299 399.516C172.416 399.472 172.475 399.413 172.475 399.34V394.764C172.475 394.016 172.292 393.378 171.925 392.85C171.558 392.307 171.008 392.036 170.275 392.036C169.527 392.036 168.918 392.285 168.449 392.784C167.994 393.283 167.767 394.001 167.767 394.94V399.34C167.767 399.413 167.818 399.472 167.921 399.516C168.038 399.56 168.156 399.582 168.273 399.582V400H164.423V399.582C164.54 399.582 164.65 399.56 164.753 399.516C164.87 399.472 164.929 399.413 164.929 399.34V390.54C164.929 390.467 164.87 390.408 164.753 390.364C164.65 390.32 164.548 390.298 164.445 390.298V389.88H167.767V390.782C168.148 390.43 168.596 390.159 169.109 389.968C169.637 389.763 170.172 389.66 170.715 389.66C171.654 389.66 172.468 389.858 173.157 390.254C173.861 390.65 174.396 391.185 174.763 391.86C175.144 392.52 175.335 393.261 175.335 394.082V399.34ZM189.51 399.34C189.51 399.413 189.562 399.472 189.664 399.516C189.782 399.56 189.892 399.582 189.994 399.582V400H186.848V399.23C185.968 399.949 184.92 400.308 183.702 400.308C182.617 400.308 181.649 400.088 180.798 399.648C179.948 399.208 179.28 398.585 178.796 397.778C178.312 396.971 178.07 396.04 178.07 394.984C178.07 393.913 178.312 392.967 178.796 392.146C179.295 391.31 179.97 390.665 180.82 390.21C181.686 389.741 182.646 389.506 183.702 389.506C184.92 389.506 185.968 389.851 186.848 390.54V384.16C186.848 384.087 186.797 384.028 186.694 383.984C186.592 383.94 186.489 383.918 186.386 383.918V383.5H189.972V383.918C189.87 383.918 189.767 383.94 189.664 383.984C189.562 384.028 189.51 384.087 189.51 384.16V399.34ZM183.834 397.954C184.406 397.954 184.927 397.822 185.396 397.558C185.88 397.294 186.254 396.942 186.518 396.502C186.797 396.047 186.936 395.571 186.936 395.072C186.936 394.177 186.643 393.444 186.056 392.872C185.484 392.285 184.744 391.992 183.834 391.992C182.925 391.992 182.177 392.278 181.59 392.85C181.018 393.407 180.732 394.133 180.732 395.028C180.732 395.923 181.026 396.634 181.612 397.162C182.214 397.69 182.954 397.954 183.834 397.954ZM197.671 389.418C198.801 389.418 199.776 389.667 200.597 390.166C201.419 390.65 202.042 391.31 202.467 392.146C202.893 392.982 203.105 393.906 203.105 394.918C203.105 395.226 203.083 395.534 203.039 395.842H194.987C195.046 396.546 195.354 397.096 195.911 397.492C196.469 397.888 197.136 398.086 197.913 398.086C198.441 398.086 198.881 398.013 199.233 397.866C199.6 397.719 199.923 397.499 200.201 397.206C200.231 397.147 200.245 397.111 200.245 397.096C200.245 397.037 200.223 396.979 200.179 396.92C200.135 396.847 200.091 396.795 200.047 396.766L200.311 396.436L202.753 398.35L202.511 398.68C202.291 398.548 202.137 398.533 202.049 398.636C201.023 399.868 199.644 400.484 197.913 400.484C196.799 400.484 195.816 400.242 194.965 399.758C194.115 399.259 193.455 398.599 192.985 397.778C192.531 396.942 192.303 396.018 192.303 395.006C192.303 393.935 192.531 392.975 192.985 392.124C193.44 391.273 194.071 390.613 194.877 390.144C195.699 389.66 196.63 389.418 197.671 389.418ZM200.465 393.796C200.407 393.195 200.099 392.689 199.541 392.278C198.999 391.853 198.383 391.64 197.693 391.64C197.004 391.64 196.41 391.853 195.911 392.278C195.413 392.689 195.112 393.195 195.009 393.796H200.465ZM211.986 389.22V392.762H211.568C211.568 392.659 211.546 392.542 211.502 392.41C211.458 392.278 211.399 392.205 211.326 392.19H211.172C210.717 392.19 210.255 392.322 209.786 392.586C209.331 392.835 208.95 393.173 208.642 393.598C208.348 394.009 208.202 394.449 208.202 394.918V399.34C208.202 399.413 208.253 399.472 208.356 399.516C208.473 399.56 208.583 399.582 208.686 399.582V400H204.99V399.582C205.092 399.582 205.195 399.56 205.298 399.516C205.415 399.472 205.474 399.413 205.474 399.34V390.54C205.474 390.467 205.415 390.408 205.298 390.364C205.195 390.32 205.092 390.298 204.99 390.298V389.88H208.202V390.826C208.598 390.459 209.074 390.166 209.632 389.946C210.189 389.726 210.746 389.616 211.304 389.616H211.326H211.348C211.421 389.616 211.472 389.572 211.502 389.484C211.546 389.396 211.568 389.308 211.568 389.22H211.986ZM228.627 400.22C227.058 400.22 225.613 399.853 224.293 399.12C222.973 398.372 221.932 397.345 221.169 396.04C220.406 394.72 220.025 393.253 220.025 391.64C220.025 389.939 220.406 388.435 221.169 387.13C221.932 385.825 222.958 384.82 224.249 384.116C225.54 383.397 226.955 383.038 228.495 383.038C229.976 383.038 231.223 383.302 232.235 383.83C233.262 384.343 234.23 385.069 235.139 386.008C235.168 386.037 235.212 386.052 235.271 386.052C235.359 386.052 235.513 385.986 235.733 385.854L235.997 386.184L232.961 388.582L232.697 388.252C232.785 388.193 232.851 388.12 232.895 388.032C232.954 387.929 232.954 387.856 232.895 387.812C232.279 387.211 231.634 386.756 230.959 386.448C230.299 386.125 229.492 385.964 228.539 385.964C227.542 385.964 226.625 386.213 225.789 386.712C224.953 387.196 224.293 387.871 223.809 388.736C223.325 389.601 223.083 390.569 223.083 391.64C223.083 392.667 223.34 393.605 223.853 394.456C224.366 395.292 225.048 395.952 225.899 396.436C226.75 396.92 227.659 397.162 228.627 397.162C229.536 397.162 230.314 397.008 230.959 396.7C231.604 396.377 232.213 395.901 232.785 395.27L232.829 395.182C232.829 395.109 232.792 395.028 232.719 394.94C232.66 394.837 232.594 394.764 232.521 394.72L232.807 394.412L236.085 397.162L235.821 397.492C235.733 397.419 235.623 397.353 235.491 397.294C235.359 397.235 235.271 397.235 235.227 397.294C234.303 398.291 233.335 399.032 232.323 399.516C231.311 399.985 230.079 400.22 228.627 400.22ZM242.897 400.264C241.812 400.264 240.851 400.037 240.015 399.582C239.194 399.113 238.549 398.475 238.079 397.668C237.625 396.861 237.397 395.952 237.397 394.94C237.397 393.943 237.625 393.033 238.079 392.212C238.549 391.391 239.201 390.745 240.037 390.276C240.873 389.792 241.827 389.55 242.897 389.55C243.924 389.55 244.855 389.785 245.691 390.254C246.527 390.709 247.187 391.347 247.671 392.168C248.155 392.975 248.397 393.899 248.397 394.94C248.397 395.849 248.177 396.715 247.737 397.536C247.312 398.343 246.681 399.003 245.845 399.516C245.009 400.015 244.027 400.264 242.897 400.264ZM242.897 397.734C243.763 397.734 244.459 397.485 244.987 396.986C245.53 396.473 245.801 395.813 245.801 395.006C245.801 394.17 245.53 393.481 244.987 392.938C244.459 392.395 243.763 392.124 242.897 392.124C242.091 392.124 241.416 392.395 240.873 392.938C240.331 393.466 240.059 394.133 240.059 394.94C240.059 395.791 240.331 396.473 240.873 396.986C241.416 397.485 242.091 397.734 242.897 397.734ZM261.538 399.34C261.538 399.413 261.589 399.472 261.692 399.516C261.809 399.56 261.927 399.582 262.044 399.582V400H258.172V399.582C258.289 399.582 258.399 399.56 258.502 399.516C258.619 399.472 258.678 399.413 258.678 399.34V394.764C258.678 394.016 258.495 393.378 258.128 392.85C257.761 392.307 257.211 392.036 256.478 392.036C255.73 392.036 255.121 392.285 254.652 392.784C254.197 393.283 253.97 394.001 253.97 394.94V399.34C253.97 399.413 254.021 399.472 254.124 399.516C254.241 399.56 254.359 399.582 254.476 399.582V400H250.626V399.582C250.743 399.582 250.853 399.56 250.956 399.516C251.073 399.472 251.132 399.413 251.132 399.34V390.54C251.132 390.467 251.073 390.408 250.956 390.364C250.853 390.32 250.751 390.298 250.648 390.298V389.88H253.97V390.782C254.351 390.43 254.799 390.159 255.312 389.968C255.84 389.763 256.375 389.66 256.918 389.66C257.857 389.66 258.671 389.858 259.36 390.254C260.064 390.65 260.599 391.185 260.966 391.86C261.347 392.52 261.538 393.261 261.538 394.082V399.34ZM268.783 400.33C268.035 400.33 267.309 400.176 266.605 399.868C265.916 399.56 265.219 399.12 264.515 398.548C264.486 398.519 264.449 398.504 264.405 398.504C264.288 398.504 264.163 398.57 264.031 398.702L263.723 398.438L265.923 395.93L266.231 396.216C266.173 396.289 266.121 396.377 266.077 396.48C266.048 396.583 266.063 396.663 266.121 396.722C266.605 397.162 267.053 397.492 267.463 397.712C267.889 397.917 268.329 398.02 268.783 398.02C269.913 398.02 270.477 397.646 270.477 396.898C270.477 396.561 270.301 396.304 269.949 396.128C269.612 395.937 269.04 395.732 268.233 395.512C267.192 395.233 266.437 394.874 265.967 394.434C265.498 393.979 265.263 393.363 265.263 392.586C265.263 391.662 265.564 390.914 266.165 390.342C266.767 389.755 267.588 389.462 268.629 389.462C269.157 389.462 269.634 389.543 270.059 389.704C270.485 389.865 270.998 390.151 271.599 390.562C271.614 390.577 271.643 390.584 271.687 390.584C271.761 390.584 271.834 390.562 271.907 390.518C271.981 390.474 272.032 390.43 272.061 390.386L272.391 390.672L270.411 392.916L270.103 392.652C270.162 392.593 270.199 392.52 270.213 392.432C270.243 392.329 270.228 392.249 270.169 392.19C269.905 391.985 269.649 391.831 269.399 391.728C269.165 391.625 268.901 391.574 268.607 391.574C268.299 391.574 268.057 391.633 267.881 391.75C267.705 391.867 267.617 392.043 267.617 392.278C267.617 392.469 267.669 392.623 267.771 392.74C267.874 392.857 268.057 392.975 268.321 393.092C268.6 393.209 269.018 393.356 269.575 393.532C270.602 393.84 271.409 394.273 271.995 394.83C272.582 395.373 272.875 396.047 272.875 396.854C272.875 398.042 272.501 398.922 271.753 399.494C271.005 400.051 270.015 400.33 268.783 400.33ZM280.777 389.44V392.784H280.359C280.359 392.681 280.337 392.586 280.293 392.498C280.249 392.395 280.19 392.344 280.117 392.344H278.687V399.34C278.687 399.413 278.738 399.472 278.841 399.516C278.944 399.56 279.046 399.582 279.149 399.582V400H275.563V399.582C275.666 399.582 275.768 399.56 275.871 399.516C275.974 399.472 276.025 399.413 276.025 399.34V392.344H274.969C274.896 392.344 274.837 392.395 274.793 392.498C274.749 392.586 274.727 392.681 274.727 392.784H274.309V389.44H274.727C274.727 389.543 274.749 389.645 274.793 389.748C274.837 389.836 274.896 389.88 274.969 389.88H276.025V387.306C276.025 387.233 275.974 387.174 275.871 387.13C275.768 387.086 275.666 387.064 275.563 387.064V386.646H279.149V387.064C279.046 387.064 278.944 387.086 278.841 387.13C278.738 387.174 278.687 387.233 278.687 387.306V389.88H280.117C280.19 389.88 280.249 389.836 280.293 389.748C280.337 389.645 280.359 389.543 280.359 389.44H280.777ZM289.445 389.22V392.762H289.027C289.027 392.659 289.005 392.542 288.961 392.41C288.917 392.278 288.858 392.205 288.785 392.19H288.631C288.176 392.19 287.714 392.322 287.245 392.586C286.79 392.835 286.409 393.173 286.101 393.598C285.807 394.009 285.661 394.449 285.661 394.918V399.34C285.661 399.413 285.712 399.472 285.815 399.516C285.932 399.56 286.042 399.582 286.145 399.582V400H282.449V399.582C282.551 399.582 282.654 399.56 282.757 399.516C282.874 399.472 282.933 399.413 282.933 399.34V390.54C282.933 390.467 282.874 390.408 282.757 390.364C282.654 390.32 282.551 390.298 282.449 390.298V389.88H285.661V390.826C286.057 390.459 286.533 390.166 287.091 389.946C287.648 389.726 288.205 389.616 288.763 389.616H288.785H288.807C288.88 389.616 288.931 389.572 288.961 389.484C289.005 389.396 289.027 389.308 289.027 389.22H289.445ZM301.13 399.34C301.13 399.413 301.181 399.472 301.284 399.516C301.401 399.56 301.511 399.582 301.614 399.582V400H298.886V399.186C298.108 399.861 297.206 400.198 296.18 400.198C294.64 400.198 293.51 399.758 292.792 398.878C292.073 397.983 291.714 396.869 291.714 395.534V390.54C291.714 390.467 291.655 390.408 291.538 390.364C291.435 390.32 291.332 390.298 291.23 390.298V389.88H294.97V390.298C294.867 390.298 294.757 390.32 294.64 390.364C294.537 390.408 294.486 390.467 294.486 390.54V395.358C294.486 395.989 294.647 396.524 294.97 396.964C295.292 397.389 295.791 397.602 296.466 397.602C297.111 397.602 297.595 397.404 297.918 397.008C298.24 396.612 298.402 396.106 298.402 395.49V390.54C298.402 390.467 298.343 390.408 298.226 390.364C298.123 390.32 298.02 390.298 297.918 390.298V389.88H301.614V390.298C301.511 390.298 301.401 390.32 301.284 390.364C301.181 390.408 301.13 390.467 301.13 390.54V399.34ZM309.104 400.462C308.165 400.462 307.292 400.227 306.486 399.758C305.679 399.289 305.034 398.651 304.55 397.844C304.08 397.037 303.846 396.157 303.846 395.204C303.846 394.075 304.08 393.085 304.55 392.234C305.034 391.369 305.679 390.709 306.486 390.254C307.292 389.785 308.18 389.55 309.148 389.55C309.837 389.55 310.424 389.631 310.908 389.792C311.406 389.953 311.802 390.151 312.096 390.386C312.404 390.606 312.785 390.921 313.24 391.332C313.269 391.361 313.306 391.376 313.35 391.376C313.408 391.376 313.474 391.354 313.548 391.31C313.636 391.266 313.702 391.222 313.746 391.178L314.032 391.486L311.656 393.686L311.37 393.378C311.443 393.319 311.502 393.239 311.546 393.136C311.604 393.019 311.612 392.931 311.568 392.872C311.04 392.227 310.314 391.904 309.39 391.904C308.554 391.904 307.85 392.183 307.278 392.74C306.72 393.297 306.442 394.023 306.442 394.918C306.442 395.842 306.713 396.583 307.256 397.14C307.798 397.697 308.51 397.976 309.39 397.976C309.83 397.976 310.189 397.925 310.468 397.822C310.746 397.705 311.062 397.492 311.414 397.184C311.443 397.155 311.458 397.118 311.458 397.074C311.458 396.986 311.406 396.891 311.304 396.788L311.568 396.458L313.944 398.438L313.68 398.746C313.445 398.614 313.284 398.592 313.196 398.68C312.653 399.281 312.081 399.729 311.48 400.022C310.893 400.315 310.101 400.462 309.104 400.462ZM321.703 389.44V392.784H321.285C321.285 392.681 321.263 392.586 321.219 392.498C321.175 392.395 321.116 392.344 321.043 392.344H319.613V399.34C319.613 399.413 319.664 399.472 319.767 399.516C319.87 399.56 319.972 399.582 320.075 399.582V400H316.489V399.582C316.592 399.582 316.694 399.56 316.797 399.516C316.9 399.472 316.951 399.413 316.951 399.34V392.344H315.895C315.822 392.344 315.763 392.395 315.719 392.498C315.675 392.586 315.653 392.681 315.653 392.784H315.235V389.44H315.653C315.653 389.543 315.675 389.645 315.719 389.748C315.763 389.836 315.822 389.88 315.895 389.88H316.951V387.306C316.951 387.233 316.9 387.174 316.797 387.13C316.694 387.086 316.592 387.064 316.489 387.064V386.646H320.075V387.064C319.972 387.064 319.87 387.086 319.767 387.13C319.664 387.174 319.613 387.233 319.613 387.306V389.88H321.043C321.116 389.88 321.175 389.836 321.219 389.748C321.263 389.645 321.285 389.543 321.285 389.44H321.703ZM325.817 388.032C325.347 388.032 324.944 387.871 324.607 387.548C324.284 387.225 324.123 386.822 324.123 386.338C324.123 385.883 324.284 385.495 324.607 385.172C324.944 384.835 325.347 384.666 325.817 384.666C326.286 384.666 326.682 384.835 327.005 385.172C327.327 385.495 327.489 385.883 327.489 386.338C327.489 386.822 327.327 387.225 327.005 387.548C326.682 387.871 326.286 388.032 325.817 388.032ZM324.387 390.54C324.387 390.467 324.328 390.408 324.211 390.364C324.108 390.32 324.005 390.298 323.903 390.298V389.88H327.687V390.298C327.584 390.298 327.474 390.32 327.357 390.364C327.254 390.408 327.203 390.467 327.203 390.54V399.34C327.203 399.413 327.254 399.472 327.357 399.516C327.474 399.56 327.584 399.582 327.687 399.582V400H323.903V399.582C324.005 399.582 324.108 399.56 324.211 399.516C324.328 399.472 324.387 399.413 324.387 399.34V390.54ZM335.717 400.264C334.631 400.264 333.671 400.037 332.835 399.582C332.013 399.113 331.368 398.475 330.899 397.668C330.444 396.861 330.217 395.952 330.217 394.94C330.217 393.943 330.444 393.033 330.899 392.212C331.368 391.391 332.021 390.745 332.857 390.276C333.693 389.792 334.646 389.55 335.717 389.55C336.743 389.55 337.675 389.785 338.511 390.254C339.347 390.709 340.007 391.347 340.491 392.168C340.975 392.975 341.217 393.899 341.217 394.94C341.217 395.849 340.997 396.715 340.557 397.536C340.131 398.343 339.501 399.003 338.665 399.516C337.829 400.015 336.846 400.264 335.717 400.264ZM335.717 397.734C336.582 397.734 337.279 397.485 337.807 396.986C338.349 396.473 338.621 395.813 338.621 395.006C338.621 394.17 338.349 393.481 337.807 392.938C337.279 392.395 336.582 392.124 335.717 392.124C334.91 392.124 334.235 392.395 333.693 392.938C333.15 393.466 332.879 394.133 332.879 394.94C332.879 395.791 333.15 396.473 333.693 396.986C334.235 397.485 334.91 397.734 335.717 397.734ZM354.357 399.34C354.357 399.413 354.409 399.472 354.511 399.516C354.629 399.56 354.746 399.582 354.863 399.582V400H350.991V399.582C351.109 399.582 351.219 399.56 351.321 399.516C351.439 399.472 351.497 399.413 351.497 399.34V394.764C351.497 394.016 351.314 393.378 350.947 392.85C350.581 392.307 350.031 392.036 349.297 392.036C348.549 392.036 347.941 392.285 347.471 392.784C347.017 393.283 346.789 394.001 346.789 394.94V399.34C346.789 399.413 346.841 399.472 346.943 399.516C347.061 399.56 347.178 399.582 347.295 399.582V400H343.445V399.582C343.563 399.582 343.673 399.56 343.775 399.516C343.893 399.472 343.951 399.413 343.951 399.34V390.54C343.951 390.467 343.893 390.408 343.775 390.364C343.673 390.32 343.57 390.298 343.467 390.298V389.88H346.789V390.782C347.171 390.43 347.618 390.159 348.131 389.968C348.659 389.763 349.195 389.66 349.737 389.66C350.676 389.66 351.49 389.858 352.179 390.254C352.883 390.65 353.419 391.185 353.785 391.86C354.167 392.52 354.357 393.261 354.357 394.082V399.34ZM363.039 401.298L371.179 382.29H373.863L365.723 401.298H363.039ZM401.192 399.34C401.192 399.413 401.243 399.472 401.346 399.516C401.463 399.56 401.58 399.582 401.698 399.582V400H397.848V399.582C397.965 399.582 398.075 399.56 398.178 399.516C398.295 399.472 398.354 399.413 398.354 399.34V386.734L391.908 400.836L385.484 386.69V399.34C385.484 399.413 385.535 399.472 385.638 399.516C385.755 399.56 385.872 399.582 385.99 399.582V400H382.118V399.582C382.235 399.582 382.345 399.56 382.448 399.516C382.565 399.472 382.624 399.413 382.624 399.34V384.16C382.624 384.087 382.565 384.028 382.448 383.984C382.345 383.94 382.242 383.918 382.14 383.918V383.5H387.816V383.918C387.64 383.918 387.522 383.962 387.464 384.05C387.42 384.123 387.42 384.211 387.464 384.314L391.93 394.698L396.462 384.314C396.491 384.226 396.447 384.138 396.33 384.05C396.212 383.962 396.066 383.918 395.89 383.918V383.5H401.676V383.918C401.573 383.918 401.463 383.94 401.346 383.984C401.243 384.028 401.192 384.087 401.192 384.16V399.34ZM416.157 390.298C416.054 390.298 415.944 390.32 415.827 390.364C415.724 390.408 415.673 390.467 415.673 390.54V399.34C415.673 399.413 415.724 399.472 415.827 399.516C415.944 399.56 416.054 399.582 416.157 399.582V400H412.901V398.79C411.977 399.787 410.811 400.286 409.403 400.286C408.332 400.286 407.386 400.073 406.565 399.648C405.758 399.208 405.127 398.585 404.673 397.778C404.233 396.971 404.013 396.033 404.013 394.962C404.013 393.921 404.255 392.997 404.739 392.19C405.237 391.369 405.897 390.738 406.719 390.298C407.54 389.843 408.435 389.616 409.403 389.616C410.811 389.616 411.977 390.159 412.901 391.244V389.88H416.157V390.298ZM409.733 397.954C410.334 397.954 410.869 397.822 411.339 397.558C411.823 397.279 412.197 396.92 412.461 396.48C412.725 396.025 412.857 395.541 412.857 395.028C412.857 394.148 412.563 393.422 411.977 392.85C411.405 392.278 410.657 391.992 409.733 391.992C408.838 391.992 408.097 392.271 407.511 392.828C406.939 393.385 406.653 394.097 406.653 394.962C406.653 395.871 406.946 396.597 407.533 397.14C408.134 397.683 408.867 397.954 409.733 397.954ZM420.839 388.032C420.369 388.032 419.966 387.871 419.629 387.548C419.306 387.225 419.145 386.822 419.145 386.338C419.145 385.883 419.306 385.495 419.629 385.172C419.966 384.835 420.369 384.666 420.839 384.666C421.308 384.666 421.704 384.835 422.027 385.172C422.349 385.495 422.511 385.883 422.511 386.338C422.511 386.822 422.349 387.225 422.027 387.548C421.704 387.871 421.308 388.032 420.839 388.032ZM419.409 390.54C419.409 390.467 419.35 390.408 419.233 390.364C419.13 390.32 419.027 390.298 418.925 390.298V389.88H422.709V390.298C422.606 390.298 422.496 390.32 422.379 390.364C422.276 390.408 422.225 390.467 422.225 390.54V399.34C422.225 399.413 422.276 399.472 422.379 399.516C422.496 399.56 422.606 399.582 422.709 399.582V400H418.925V399.582C419.027 399.582 419.13 399.56 419.233 399.516C419.35 399.472 419.409 399.413 419.409 399.34V390.54ZM436.393 399.34C436.393 399.413 436.444 399.472 436.547 399.516C436.664 399.56 436.781 399.582 436.899 399.582V400H433.027V399.582C433.144 399.582 433.254 399.56 433.357 399.516C433.474 399.472 433.533 399.413 433.533 399.34V394.764C433.533 394.016 433.349 393.378 432.983 392.85C432.616 392.307 432.066 392.036 431.333 392.036C430.585 392.036 429.976 392.285 429.507 392.784C429.052 393.283 428.825 394.001 428.825 394.94V399.34C428.825 399.413 428.876 399.472 428.979 399.516C429.096 399.56 429.213 399.582 429.331 399.582V400H425.481V399.582C425.598 399.582 425.708 399.56 425.811 399.516C425.928 399.472 425.987 399.413 425.987 399.34V390.54C425.987 390.467 425.928 390.408 425.811 390.364C425.708 390.32 425.605 390.298 425.503 390.298V389.88H428.825V390.782C429.206 390.43 429.653 390.159 430.167 389.968C430.695 389.763 431.23 389.66 431.773 389.66C432.711 389.66 433.525 389.858 434.215 390.254C434.919 390.65 435.454 391.185 435.821 391.86C436.202 392.52 436.393 393.261 436.393 394.082V399.34ZM445.266 389.44V392.784H444.848C444.848 392.681 444.826 392.586 444.782 392.498C444.738 392.395 444.679 392.344 444.606 392.344H443.176V399.34C443.176 399.413 443.227 399.472 443.33 399.516C443.432 399.56 443.535 399.582 443.638 399.582V400H440.052V399.582C440.154 399.582 440.257 399.56 440.36 399.516C440.462 399.472 440.514 399.413 440.514 399.34V392.344H439.458C439.384 392.344 439.326 392.395 439.282 392.498C439.238 392.586 439.216 392.681 439.216 392.784H438.798V389.44H439.216C439.216 389.543 439.238 389.645 439.282 389.748C439.326 389.836 439.384 389.88 439.458 389.88H440.514V387.306C440.514 387.233 440.462 387.174 440.36 387.13C440.257 387.086 440.154 387.064 440.052 387.064V386.646H443.638V387.064C443.535 387.064 443.432 387.086 443.33 387.13C443.227 387.174 443.176 387.233 443.176 387.306V389.88H444.606C444.679 389.88 444.738 389.836 444.782 389.748C444.826 389.645 444.848 389.543 444.848 389.44H445.266ZM452.283 389.418C453.413 389.418 454.388 389.667 455.209 390.166C456.031 390.65 456.654 391.31 457.079 392.146C457.505 392.982 457.717 393.906 457.717 394.918C457.717 395.226 457.695 395.534 457.651 395.842H449.599C449.658 396.546 449.966 397.096 450.523 397.492C451.081 397.888 451.748 398.086 452.525 398.086C453.053 398.086 453.493 398.013 453.845 397.866C454.212 397.719 454.535 397.499 454.813 397.206C454.843 397.147 454.857 397.111 454.857 397.096C454.857 397.037 454.835 396.979 454.791 396.92C454.747 396.847 454.703 396.795 454.659 396.766L454.923 396.436L457.365 398.35L457.123 398.68C456.903 398.548 456.749 398.533 456.661 398.636C455.635 399.868 454.256 400.484 452.525 400.484C451.411 400.484 450.428 400.242 449.577 399.758C448.727 399.259 448.067 398.599 447.597 397.778C447.143 396.942 446.915 396.018 446.915 395.006C446.915 393.935 447.143 392.975 447.597 392.124C448.052 391.273 448.683 390.613 449.489 390.144C450.311 389.66 451.242 389.418 452.283 389.418ZM455.077 393.796C455.019 393.195 454.711 392.689 454.153 392.278C453.611 391.853 452.995 391.64 452.305 391.64C451.616 391.64 451.022 391.853 450.523 392.278C450.025 392.689 449.724 393.195 449.621 393.796H455.077ZM470.734 399.34C470.734 399.413 470.785 399.472 470.888 399.516C471.005 399.56 471.123 399.582 471.24 399.582V400H467.368V399.582C467.485 399.582 467.595 399.56 467.698 399.516C467.815 399.472 467.874 399.413 467.874 399.34V394.764C467.874 394.016 467.691 393.378 467.324 392.85C466.957 392.307 466.407 392.036 465.674 392.036C464.926 392.036 464.317 392.285 463.848 392.784C463.393 393.283 463.166 394.001 463.166 394.94V399.34C463.166 399.413 463.217 399.472 463.32 399.516C463.437 399.56 463.555 399.582 463.672 399.582V400H459.822V399.582C459.939 399.582 460.049 399.56 460.152 399.516C460.269 399.472 460.328 399.413 460.328 399.34V390.54C460.328 390.467 460.269 390.408 460.152 390.364C460.049 390.32 459.947 390.298 459.844 390.298V389.88H463.166V390.782C463.547 390.43 463.995 390.159 464.508 389.968C465.036 389.763 465.571 389.66 466.114 389.66C467.053 389.66 467.867 389.858 468.556 390.254C469.26 390.65 469.795 391.185 470.162 391.86C470.543 392.52 470.734 393.261 470.734 394.082V399.34ZM485.613 390.298C485.511 390.298 485.401 390.32 485.283 390.364C485.181 390.408 485.129 390.467 485.129 390.54V399.34C485.129 399.413 485.181 399.472 485.283 399.516C485.401 399.56 485.511 399.582 485.613 399.582V400H482.357V398.79C481.433 399.787 480.267 400.286 478.859 400.286C477.789 400.286 476.843 400.073 476.021 399.648C475.215 399.208 474.584 398.585 474.129 397.778C473.689 396.971 473.469 396.033 473.469 394.962C473.469 393.921 473.711 392.997 474.195 392.19C474.694 391.369 475.354 390.738 476.175 390.298C476.997 389.843 477.891 389.616 478.859 389.616C480.267 389.616 481.433 390.159 482.357 391.244V389.88H485.613V390.298ZM479.189 397.954C479.791 397.954 480.326 397.822 480.795 397.558C481.279 397.279 481.653 396.92 481.917 396.48C482.181 396.025 482.313 395.541 482.313 395.028C482.313 394.148 482.02 393.422 481.433 392.85C480.861 392.278 480.113 391.992 479.189 391.992C478.295 391.992 477.554 392.271 476.967 392.828C476.395 393.385 476.109 394.097 476.109 394.962C476.109 395.871 476.403 396.597 476.989 397.14C477.591 397.683 478.324 397.954 479.189 397.954ZM498.985 399.34C498.985 399.413 499.036 399.472 499.139 399.516C499.256 399.56 499.374 399.582 499.491 399.582V400H495.619V399.582C495.736 399.582 495.846 399.56 495.949 399.516C496.066 399.472 496.125 399.413 496.125 399.34V394.764C496.125 394.016 495.942 393.378 495.575 392.85C495.208 392.307 494.658 392.036 493.925 392.036C493.177 392.036 492.568 392.285 492.099 392.784C491.644 393.283 491.417 394.001 491.417 394.94V399.34C491.417 399.413 491.468 399.472 491.571 399.516C491.688 399.56 491.806 399.582 491.923 399.582V400H488.073V399.582C488.19 399.582 488.3 399.56 488.403 399.516C488.52 399.472 488.579 399.413 488.579 399.34V390.54C488.579 390.467 488.52 390.408 488.403 390.364C488.3 390.32 488.198 390.298 488.095 390.298V389.88H491.417V390.782C491.798 390.43 492.246 390.159 492.759 389.968C493.287 389.763 493.822 389.66 494.365 389.66C495.304 389.66 496.118 389.858 496.807 390.254C497.511 390.65 498.046 391.185 498.413 391.86C498.794 392.52 498.985 393.261 498.985 394.082V399.34ZM506.978 400.462C506.04 400.462 505.167 400.227 504.36 399.758C503.554 399.289 502.908 398.651 502.424 397.844C501.955 397.037 501.72 396.157 501.72 395.204C501.72 394.075 501.955 393.085 502.424 392.234C502.908 391.369 503.554 390.709 504.36 390.254C505.167 389.785 506.054 389.55 507.022 389.55C507.712 389.55 508.298 389.631 508.782 389.792C509.281 389.953 509.677 390.151 509.97 390.386C510.278 390.606 510.66 390.921 511.114 391.332C511.144 391.361 511.18 391.376 511.224 391.376C511.283 391.376 511.349 391.354 511.422 391.31C511.51 391.266 511.576 391.222 511.62 391.178L511.906 391.486L509.53 393.686L509.244 393.378C509.318 393.319 509.376 393.239 509.42 393.136C509.479 393.019 509.486 392.931 509.442 392.872C508.914 392.227 508.188 391.904 507.264 391.904C506.428 391.904 505.724 392.183 505.152 392.74C504.595 393.297 504.316 394.023 504.316 394.918C504.316 395.842 504.588 396.583 505.13 397.14C505.673 397.697 506.384 397.976 507.264 397.976C507.704 397.976 508.064 397.925 508.342 397.822C508.621 397.705 508.936 397.492 509.288 397.184C509.318 397.155 509.332 397.118 509.332 397.074C509.332 396.986 509.281 396.891 509.178 396.788L509.442 396.458L511.818 398.438L511.554 398.746C511.32 398.614 511.158 398.592 511.07 398.68C510.528 399.281 509.956 399.729 509.354 400.022C508.768 400.315 507.976 400.462 506.978 400.462ZM518.808 389.418C519.937 389.418 520.912 389.667 521.734 390.166C522.555 390.65 523.178 391.31 523.604 392.146C524.029 392.982 524.242 393.906 524.242 394.918C524.242 395.226 524.22 395.534 524.176 395.842H516.124C516.182 396.546 516.49 397.096 517.048 397.492C517.605 397.888 518.272 398.086 519.05 398.086C519.578 398.086 520.018 398.013 520.37 397.866C520.736 397.719 521.059 397.499 521.338 397.206C521.367 397.147 521.382 397.111 521.382 397.096C521.382 397.037 521.36 396.979 521.316 396.92C521.272 396.847 521.228 396.795 521.184 396.766L521.448 396.436L523.89 398.35L523.648 398.68C523.428 398.548 523.274 398.533 523.186 398.636C522.159 399.868 520.78 400.484 519.05 400.484C517.935 400.484 516.952 400.242 516.102 399.758C515.251 399.259 514.591 398.599 514.122 397.778C513.667 396.942 513.44 396.018 513.44 395.006C513.44 393.935 513.667 392.975 514.122 392.124C514.576 391.273 515.207 390.613 516.014 390.144C516.835 389.66 517.766 389.418 518.808 389.418ZM521.602 393.796C521.543 393.195 521.235 392.689 520.678 392.278C520.135 391.853 519.519 391.64 518.83 391.64C518.14 391.64 517.546 391.853 517.048 392.278C516.549 392.689 516.248 393.195 516.146 393.796H521.602Z" fill="#8491B0"/>
</svg>
