<?xml version="1.0" standalone="no"?>
<!DOCTYPE svg PUBLIC "-//W3C//DTD SVG 20010904//EN"
 "http://www.w3.org/TR/2001/REC-SVG-20010904/DTD/svg10.dtd">
<svg version="1.0" xmlns="http://www.w3.org/2000/svg"
 width="1040.000000pt" height="1040.000000pt" viewBox="0 0 1040.000000 1040.000000"
 preserveAspectRatio="xMidYMid meet">

<g transform="translate(0.000000,1040.000000) scale(0.100000,-0.100000)"
fill="#000000" stroke="none">
<path d="M8118 9280 c-4 -14 -8 -36 -8 -48 0 -23 0 -23 -40 8 -46 36 -51 29
-15 -21 l26 -34 -41 -3 c-45 -4 -55 -22 -12 -22 41 0 45 -9 21 -47 -26 -41 -7
-45 33 -6 l28 27 0 -42 c0 -22 4 -43 9 -46 10 -7 21 17 21 45 0 17 3 18 21 9
29 -16 35 -5 15 25 -16 24 -16 25 3 25 26 0 51 10 51 21 0 5 -16 9 -35 9 -39
0 -44 9 -16 34 22 20 34 56 19 56 -5 0 -23 -9 -38 -20 l-29 -20 -3 37 c-3 34
-4 35 -10 13z"/>
<path d="M1010 8714 l0 -46 -40 36 c-57 51 -65 50 -25 -4 33 -44 32 -50 -10
-50 -19 0 -35 -4 -35 -10 0 -5 9 -10 19 -10 11 0 26 -3 35 -6 14 -5 13 -9 -4
-34 -11 -15 -20 -31 -20 -34 0 -14 26 -4 52 21 l28 27 0 -47 c0 -26 5 -47 10
-47 6 0 10 9 10 19 0 38 10 51 30 38 27 -16 34 -3 15 27 -17 25 -17 26 3 26
29 0 53 11 46 21 -3 5 -18 9 -35 9 -34 0 -35 6 -9 40 37 47 22 65 -24 29 l-26
-20 0 30 c0 17 -4 31 -10 31 -5 0 -10 -21 -10 -46z"/>
<path d="M4221 8493 c-2 -62 -10 -68 -47 -32 -42 41 -55 32 -20 -14 l26 -34
-40 -7 c-46 -7 -45 -26 1 -26 17 0 29 -3 27 -7 -2 -5 -10 -20 -17 -36 -20 -39
-6 -45 28 -13 l29 27 6 -46 c8 -52 26 -51 26 1 l0 34 25 -16 c32 -21 42 -12
21 18 -23 32 -20 38 14 38 17 0 30 4 30 9 0 11 -25 21 -51 21 -17 0 -17 3 6
36 39 57 33 68 -16 34 l-28 -21 -10 33 -9 33 -1 -32z"/>
<path d="M8935 8191 c-18 -37 -33 -255 -18 -264 17 -11 32 16 52 95 17 66 25
129 22 181 -2 28 -39 20 -56 -12z"/>
<path d="M9130 7951 c-61 -32 -101 -84 -81 -104 9 -9 18 -7 39 6 15 10 55 31
89 47 64 31 81 46 67 60 -23 23 -61 20 -114 -9z"/>
<path d="M2631 7921 c-33 -21 -31 -128 6 -279 12 -48 19 -62 32 -60 13 3 16
20 19 101 4 148 -22 259 -57 238z"/>
<path d="M2361 7706 c-15 -18 16 -57 66 -83 21 -11 59 -32 85 -47 85 -49 95
-1 16 67 -85 72 -142 93 -167 63z"/>
<path d="M8230 7694 c-68 -9 -306 -55 -360 -71 -84 -24 -156 -61 -170 -88 -20
-37 -5 -41 53 -16 98 43 222 79 352 102 111 20 162 23 353 23 141 -1 227 -5
233 -11 8 -8 -14 -21 -73 -43 -206 -80 -408 -110 -735 -110 l-226 0 6 -53 c6
-60 89 -278 143 -374 53 -95 147 -216 194 -248 l41 -28 -67 -36 c-37 -20 -76
-48 -87 -63 -17 -23 -18 -30 -7 -63 20 -60 55 -69 231 -61 124 6 152 5 190
-10 44 -17 69 -38 69 -59 0 -6 -28 -17 -62 -24 -153 -30 -211 -86 -188 -181
15 -61 54 -100 109 -107 40 -5 42 -7 36 -33 -13 -59 47 -137 140 -182 l43 -21
7 -84 c13 -150 -6 -188 -116 -238 -148 -66 -62 -123 171 -112 116 5 185 25
220 62 30 32 20 51 -32 65 -86 24 -128 42 -139 61 -5 11 -17 59 -25 107 -8 48
-17 94 -19 102 -4 13 2 15 29 12 20 -2 49 3 67 12 18 9 33 16 34 16 2 0 8 -13
15 -30 26 -63 218 -210 275 -210 18 0 35 -196 35 -397 0 -184 -10 -257 -61
-454 l-31 -116 -81 -5 c-106 -7 -153 -27 -172 -71 -9 -22 -18 -109 -25 -248
-23 -470 -144 -1311 -310 -2159 -49 -250 -92 -487 -96 -527 l-7 -72 49 -30
c111 -71 168 -69 317 9 64 33 128 60 144 60 22 0 41 -12 76 -50 61 -65 116
-92 198 -98 78 -5 113 9 160 67 20 26 50 47 86 62 47 19 58 29 74 64 76 173
197 1000 266 1815 24 282 25 900 2 978 -18 59 -15 62 46 36 34 -14 39 -14 53
0 13 13 13 17 2 32 -18 21 -45 31 -153 59 -49 13 -91 25 -93 28 -3 2 4 38 15
78 51 185 87 571 78 824 -7 189 -21 270 -66 394 -83 228 -344 619 -602 904
l-71 78 26 74 c52 147 67 223 73 382 5 132 4 156 -11 178 -28 43 -36 29 -36
-60 0 -94 -21 -253 -44 -328 -14 -48 -63 -133 -72 -125 -2 3 5 22 15 44 32 67
53 186 50 278 -2 47 -8 88 -12 92 -4 5 -22 2 -40 -5 -91 -38 -233 -85 -322
-107 -86 -21 -133 -25 -337 -31 -273 -7 -258 1 -214 -106 61 -147 180 -299
275 -350 59 -33 187 -67 248 -67 23 0 43 -5 43 -10 0 -10 -28 -9 -200 5 -98 8
-146 31 -232 113 -71 68 -84 87 -143 206 -35 72 -73 158 -84 191 -11 33 -23
68 -26 78 -7 16 7 17 214 17 247 0 378 14 556 60 131 34 292 100 317 131 22
27 10 54 -29 63 -35 7 -505 16 -553 10z m35 -581 c102 -19 265 -73 341 -111
190 -96 640 -698 772 -1032 55 -139 67 -221 67 -465 0 -121 -6 -269 -13 -330
-13 -112 -59 -422 -69 -462 -6 -26 -11 -26 -233 22 -85 19 -162 35 -170 37
-13 3 -10 21 16 116 28 103 31 111 42 88 15 -33 64 -58 97 -50 35 9 75 59 75
96 0 71 -102 116 -151 67 l-22 -22 8 59 c5 33 7 150 6 261 -1 198 -1 203 21
223 24 22 60 51 93 74 31 22 3 46 -54 46 -164 1 -328 103 -397 247 -40 82 -89
138 -141 160 -71 29 -103 -20 -38 -58 39 -23 80 -83 69 -100 -20 -32 -188 32
-238 91 -47 57 -38 74 71 129 147 73 125 116 -35 67 -110 -33 -165 -34 -186
-4 -23 32 -20 74 6 92 37 26 138 54 243 66 55 7 112 18 127 26 15 8 34 11 42
8 27 -10 18 14 -19 51 -42 41 -127 86 -211 111 -54 16 -74 16 -224 5 -169 -12
-227 -7 -218 22 7 21 149 86 227 103 90 20 212 14 328 -18 113 -30 133 -32
133 -17 0 31 -45 102 -91 143 -65 59 -134 90 -277 127 -163 43 -278 108 -245
139 20 20 123 17 248 -7z m223 -600 l37 -17 -40 -6 c-45 -7 -61 1 -52 24 8 20
9 20 55 -1z m44 -902 c14 -22 24 -42 21 -45 -4 -3 -40 -6 -82 -6 l-76 1 30 22
c17 12 39 32 50 44 11 13 22 23 25 22 3 0 17 -17 32 -38z m595 -577 c9 -24
-10 -49 -38 -49 -27 0 -37 28 -19 50 17 20 49 19 57 -1z m-460 -396 c-3 -8 -6
-5 -6 6 -1 11 2 17 5 13 3 -3 4 -12 1 -19z"/>
<path d="M9282 5065 c-24 -20 -32 -35 -32 -58 0 -38 7 -50 38 -66 71 -37 146
57 95 117 -30 35 -65 37 -101 7z m65 -50 c1 -5 -1 -16 -6 -24 -12 -19 -51 -4
-51 20 0 16 6 20 27 17 14 -2 28 -7 30 -13z"/>
<path d="M3400 7520 c-231 -18 -551 -114 -629 -189 -53 -51 -24 -50 105 2 120
48 261 88 398 112 110 19 390 21 425 2 46 -23 35 -35 -66 -67 -253 -81 -445
-110 -733 -110 l-200 0 -16 -25 c-15 -23 -15 -29 0 -78 25 -76 107 -241 164
-327 100 -150 244 -281 408 -371 41 -23 74 -44 74 -47 0 -4 -16 -17 -35 -29
-45 -29 -68 -65 -70 -110 -2 -36 -4 -37 -71 -59 -99 -32 -119 -71 -65 -124 18
-18 44 -32 68 -36 l40 -6 -23 -26 c-28 -29 -32 -83 -8 -106 11 -12 36 -16 94
-16 l78 0 -29 -29 c-33 -33 -36 -56 -13 -89 20 -29 78 -29 176 -2 40 11 83 20
95 20 26 0 42 38 22 51 -21 13 -46 11 -129 -11 -41 -11 -84 -20 -95 -20 -18 1
-18 3 7 24 24 22 175 86 201 86 15 0 38 -92 83 -330 50 -260 48 -323 -15 -422
-23 -36 -44 -53 -95 -78 -64 -32 -74 -43 -58 -66 27 -41 167 -55 310 -30 145
25 292 89 292 127 0 12 -27 23 -105 44 -52 14 -69 26 -125 83 -75 76 -71 65
-115 332 -14 85 -32 179 -39 207 l-14 53 106 -109 c116 -118 166 -150 274
-176 35 -8 93 -15 129 -15 l67 0 21 -77 c26 -100 53 -290 49 -356 -3 -48 -5
-51 -35 -59 -42 -11 -75 -53 -71 -92 3 -29 28 -50 28 -23 0 24 40 67 62 67 20
0 20 -4 14 -61 -3 -34 -6 -72 -6 -85 0 -18 -8 -25 -39 -34 -80 -21 -120 -86
-106 -170 6 -36 4 -40 -23 -54 -39 -20 -59 -74 -73 -196 -6 -55 -14 -514 -19
-1100 -10 -1174 -21 -1387 -91 -1760 -34 -181 -35 -193 -13 -162 43 62 80 187
124 427 41 225 40 176 50 2188 2 384 23 502 99 552 94 63 680 110 807 65 99
-35 184 -430 225 -1050 6 -91 15 -601 19 -1135 5 -533 13 -992 17 -1020 l9
-50 7 35 c19 100 29 637 24 1294 -6 791 -18 1048 -68 1416 -33 244 -101 482
-156 542 -9 10 -33 23 -55 28 -34 10 -38 14 -38 43 0 18 -9 51 -20 75 -32 71
-54 77 -330 78 -271 1 -254 -1 -274 20 -15 15 -23 84 -10 84 4 0 24 -16 45
-35 69 -62 135 -44 173 47 20 47 50 68 97 68 63 0 69 -6 69 -65 0 -30 5 -66
10 -81 11 -27 11 -27 25 -7 8 11 17 39 21 62 6 38 9 41 39 41 51 0 102 63 87
108 -7 21 -24 13 -58 -24 -19 -20 -39 -34 -46 -32 -8 3 -17 42 -25 109 -43
367 -209 834 -361 1015 -135 161 -389 273 -663 292 l-107 7 44 59 c141 185
216 397 233 650 9 137 3 259 -14 275 -6 5 -46 14 -90 20 -81 11 -351 32 -370
30 -5 -1 -53 -5 -105 -9z m520 -190 c0 -294 -82 -555 -234 -747 -113 -143
-184 -168 -310 -110 -196 90 -400 279 -515 476 -38 65 -121 243 -121 260 0 4
21 4 48 0 111 -18 353 -5 558 31 136 24 315 75 449 129 55 22 106 40 113 40 9
1 12 -21 12 -79z m10 -916 c229 -40 418 -142 515 -279 131 -183 273 -578 315
-875 6 -41 12 -87 15 -103 4 -27 4 -27 -35 -21 -80 13 -161 -40 -187 -121 -15
-49 -52 -46 -107 9 l-46 45 0 78 c0 44 -9 127 -20 186 -14 77 -17 120 -11 152
10 54 23 70 73 96 41 21 46 30 23 49 -11 10 -40 10 -133 0 -87 -9 -138 -9
-197 -1 -139 19 -186 51 -377 258 -61 66 -80 79 -216 147 -82 41 -163 87 -181
101 -30 26 -31 28 -15 46 27 30 98 24 211 -17 124 -45 175 -54 295 -55 83 -1
102 2 137 22 61 34 55 53 -15 45 -61 -7 -259 9 -314 26 -33 10 -60 32 -60 50
0 11 88 10 179 -2 41 -6 77 -8 80 -5 21 22 -109 74 -201 82 -38 3 -68 9 -68
14 0 4 -3 14 -6 22 -3 9 11 26 38 47 43 32 43 32 133 25 50 -3 128 -13 175
-21z m-480 -58 l34 -13 -26 -17 c-46 -30 -168 -60 -168 -40 0 18 26 46 58 63
43 23 55 24 102 7z m-194 -238 c-13 -9 -93 0 -120 14 -24 13 -12 24 54 47 l55
18 11 -36 c8 -26 8 -38 0 -43z m143 -129 c1 -8 -79 -19 -141 -19 -41 0 -49 3
-46 17 2 10 28 30 58 45 l54 27 37 -32 c21 -18 38 -35 38 -38z m432 -825 c19
-17 44 -38 57 -46 23 -16 23 -16 -30 -28 -29 -7 -98 -14 -153 -17 l-100 -5 42
36 c41 35 93 127 93 162 0 11 12 0 29 -27 15 -24 44 -58 62 -75z m882 -391
c-3 -32 -7 -59 -8 -61 -2 -2 -29 -6 -60 -9 -61 -6 -75 1 -75 44 0 45 21 72 59
76 97 10 90 14 84 -50z m143 42 c4 -8 3 -35 0 -60 -7 -44 -8 -45 -46 -45 -25
0 -40 5 -44 16 -8 21 -8 89 1 97 13 14 84 7 89 -8z m-326 -29 c-5 -15 -10 -42
-10 -61 0 -30 -3 -33 -37 -38 -49 -6 -53 -3 -53 38 0 64 14 83 62 87 24 2 44
2 46 2 1 -1 -2 -13 -8 -28z m409 24 c9 0 41 -66 41 -85 0 -10 -11 -15 -35 -15
-30 0 -35 3 -35 24 0 13 -3 38 -7 56 -5 29 -4 32 11 27 10 -4 21 -7 25 -7z
m-550 -52 c-5 -18 -9 -45 -9 -59 0 -24 -5 -27 -46 -34 -25 -3 -48 -4 -51 -1
-3 2 -2 18 2 35 7 33 68 91 97 91 14 0 15 -5 7 -32z"/>
<path d="M3715 7254 c-159 -59 -295 -101 -376 -114 -37 -7 -161 -15 -275 -18
l-209 -7 4 -25 c15 -108 237 -376 404 -487 189 -127 311 -109 425 60 94 142
159 344 169 530 5 88 4 107 -8 107 -8 -1 -68 -21 -134 -46z"/>
<path d="M2381 7467 c-55 -28 -52 -67 5 -69 33 -1 139 18 154 27 16 10 12 42
-6 49 -27 11 -128 6 -153 -7z"/>
<path d="M925 7111 c-109 -39 -205 -108 -205 -147 0 -23 24 -16 144 42 97 48
118 55 131 44 28 -23 177 -231 327 -455 l148 -220 -60 -12 c-145 -30 -377
-131 -437 -191 -41 -41 -41 -75 0 -106 26 -19 41 -21 150 -20 138 2 430 41
577 79 274 69 527 187 575 268 26 44 6 58 -44 30 l-38 -22 -10 22 c-20 42
-114 136 -178 176 -168 107 -437 134 -589 60 -22 -11 -43 -16 -47 -12 -3 5
-29 42 -57 84 -84 126 -257 354 -287 377 -33 26 -36 26 -100 3z m848 -476
c127 -27 256 -103 317 -187 42 -58 26 -67 -28 -16 -65 61 -126 101 -202 134
-55 23 -82 28 -180 31 -82 3 -131 0 -170 -11 -50 -14 -56 -14 -68 2 -7 9 -11
21 -9 27 11 33 219 46 340 20z m-107 -177 c-10 -130 -16 -158 -36 -158 -21 0
-43 24 -114 127 l-57 82 38 10 c68 17 77 19 127 20 l49 1 -7 -82z m181 38 c39
-19 73 -38 77 -44 3 -5 -25 -37 -62 -70 -37 -33 -84 -76 -106 -96 -21 -20 -41
-36 -43 -36 -3 0 -3 48 1 108 3 59 6 122 6 140 0 28 3 32 28 32 15 0 60 -15
99 -34z m193 -154 c0 -14 -219 -112 -249 -112 -3 0 37 43 89 95 l95 96 33 -35
c17 -20 32 -40 32 -44z m-513 -57 c-2 -5 -46 -22 -99 -36 -130 -36 -315 -98
-360 -120 -40 -20 -58 -24 -58 -11 0 14 70 51 231 123 90 40 180 83 199 95
l35 23 28 -32 c15 -17 26 -36 24 -42z"/>
<path d="M6940 7013 c-19 -3 -40 -9 -47 -15 -28 -23 -201 -514 -287 -813 l-34
-120 -68 -7 c-126 -12 -335 -82 -385 -129 -31 -29 -32 -30 -26 -107 3 -57 19
-120 60 -246 31 -92 66 -184 77 -204 l21 -36 -103 -203 -103 -203 1 -92 c1
-115 23 -178 134 -393 95 -182 119 -257 127 -392 l6 -103 -35 0 c-50 0 -118
-26 -150 -57 -62 -59 -21 -129 89 -155 73 -16 417 -16 558 1 134 16 269 48
299 72 l24 19 11 -63 c14 -83 28 -242 37 -404 6 -124 5 -133 -12 -133 -9 0
-51 -11 -91 -25 -41 -14 -142 -37 -226 -52 -142 -24 -166 -25 -368 -19 -119 3
-230 9 -247 12 -37 8 -36 0 -52 239 -13 196 -30 303 -56 360 l-19 40 -3 -60
c-2 -32 4 -140 13 -240 39 -454 39 -1123 0 -1810 -24 -405 -18 -524 19 -433
13 31 27 182 41 453 3 61 8 136 11 169 l6 58 79 -6 c43 -4 174 -7 291 -7 l213
1 155 38 c155 39 216 61 278 102 l32 22 0 -24 c2 -153 81 -711 108 -763 l15
-30 13 31 c11 27 10 57 -11 200 -30 212 -41 319 -60 564 -20 266 -53 874 -65
1220 -13 388 -24 473 -71 557 -16 29 -29 61 -29 71 0 45 -91 100 -175 104
l-47 3 5 110 c8 170 51 279 176 445 184 246 234 443 133 526 l-26 22 32 36
c25 29 32 46 32 79 0 23 -7 53 -16 65 -14 21 -14 24 10 53 53 63 42 124 -28
159 -23 11 -47 20 -53 20 -8 0 -9 9 -2 33 6 17 25 110 44 205 l34 174 -26 64
c-34 86 -89 169 -147 222 -68 62 -198 122 -269 125 -33 1 -57 7 -57 13 0 20
148 449 178 515 l30 66 92 7 c88 7 140 22 156 47 3 6 0 15 -7 20 -14 9 -172
10 -239 2z m-17 -766 c80 -45 157 -129 198 -215 17 -35 29 -65 27 -67 -1 -1
-12 -5 -23 -8 -17 -5 -26 5 -55 65 -47 98 -111 158 -208 199 -42 17 -96 32
-120 33 -31 1 -41 5 -37 14 3 8 5 17 5 21 0 3 33 4 73 1 60 -5 86 -14 140 -43z
m-154 -62 c6 -7 -13 -40 -77 -130 -67 -94 -76 -84 -42 42 30 114 25 106 72 99
23 -4 44 -9 47 -11z m107 -41 c51 -30 122 -111 108 -123 -7 -7 -309 -121 -321
-121 -12 0 6 31 68 122 40 57 76 113 82 126 6 12 12 22 14 22 3 0 24 -12 49
-26z m-315 -135 c-6 -18 -26 -26 -122 -45 -117 -25 -235 -59 -256 -76 -7 -6
-18 -8 -24 -6 -21 7 104 56 245 97 76 22 141 42 144 45 13 14 21 4 13 -15z
m464 -49 l15 -29 -37 -10 c-60 -16 -171 -33 -184 -29 -7 2 29 21 79 42 51 21
94 42 98 47 8 14 12 11 29 -21z m125 -85 c0 -39 -51 -252 -70 -290 -18 -38
-32 -49 -108 -88 -48 -25 -97 -56 -109 -69 -28 -30 -45 -75 -37 -100 4 -12 -5
-30 -25 -54 -27 -30 -31 -43 -31 -90 0 -30 7 -69 16 -85 14 -28 14 -34 -2 -74
-21 -55 -15 -136 13 -173 11 -15 34 -35 53 -44 l33 -17 -29 -6 c-16 -4 -36 -9
-44 -12 -34 -11 -182 -3 -210 12 -37 19 -37 19 -56 112 -9 43 -29 108 -45 145
-34 77 -33 81 17 209 43 109 61 226 45 287 -16 57 -65 112 -100 112 -31 0 -79
-45 -106 -100 -39 -78 -73 -90 -105 -38 -16 26 -60 149 -95 267 l-7 24 153 -7
c258 -11 491 11 734 68 55 13 103 24 108 25 4 1 7 -6 7 -14z m-663 -326 c19
-36 15 -128 -7 -197 -11 -34 -43 -107 -70 -163 -28 -56 -50 -107 -50 -114 0
-6 14 -33 32 -61 82 -128 98 -227 59 -368 -12 -43 -19 -81 -17 -84 8 -8 43 38
71 93 l25 50 62 -5 c85 -7 319 6 379 20 57 14 72 35 83 114 5 39 14 56 47 88
22 22 38 42 36 45 -3 2 -47 -9 -99 -26 -117 -37 -166 -42 -181 -19 -16 25 23
62 109 104 78 37 136 44 183 19 34 -17 41 -33 41 -91 0 -85 -65 -218 -183
-374 -143 -188 -192 -381 -170 -659 6 -69 5 -104 -2 -107 -26 -9 -187 -24
-330 -30 l-157 -7 8 54 c15 93 10 317 -9 389 -9 36 -59 151 -112 255 -113 225
-135 286 -135 372 0 61 4 71 154 371 85 169 165 320 176 335 25 32 40 31 57
-4z m693 -104 c81 -42 -21 -111 -191 -131 -139 -16 -127 76 16 120 98 30 134
32 175 11z m-26 -185 c35 -13 35 -53 -1 -86 -32 -29 -139 -64 -199 -64 -47 0
-107 20 -119 40 -20 32 69 79 200 106 79 15 89 16 119 4z m21 -2555 c9 -192
19 -401 22 -462 l6 -113 -46 -20 c-98 -43 -332 -80 -509 -80 -51 0 -154 5
-228 10 -74 6 -160 11 -190 13 l-56 2 1 482 c0 364 3 484 12 487 6 3 24 1 40
-3 38 -10 396 -4 469 8 83 14 271 58 324 76 25 8 63 26 85 39 l40 25 7 -57 c4
-31 14 -214 23 -407z"/>
<path d="M2300 5688 c0 -641 -8 -840 -35 -903 -18 -45 -73 -70 -240 -112 -175
-44 -255 -87 -214 -114 18 -13 30 -10 264 51 224 58 251 70 266 108 25 64 32
395 21 947 -9 477 -13 557 -28 603 -9 28 -21 52 -26 52 -4 0 -8 -285 -8 -632z"/>
<path d="M930 6040 c0 -6 8 -27 19 -48 17 -35 35 -78 99 -242 13 -36 39 -85
57 -110 l32 -46 -54 -64 c-69 -83 -179 -244 -232 -341 -65 -120 -84 -206 -84
-384 -1 -264 41 -434 231 -945 51 -136 109 -377 95 -390 -4 -4 -26 -13 -48
-20 -72 -23 -146 -63 -162 -87 -24 -36 -13 -120 25 -191 l30 -59 -50 -24 c-66
-31 -88 -60 -88 -116 0 -113 45 -255 278 -878 171 -457 224 -616 292 -870 27
-99 61 -223 76 -276 l27 -95 62 7 c111 14 192 56 292 151 34 32 88 71 120 86
51 24 69 27 158 26 80 0 116 -6 180 -27 103 -35 181 -36 250 -3 57 26 105 76
105 109 0 154 -248 1132 -411 1621 -87 261 -132 359 -198 429 -28 30 -48 57
-44 60 3 4 21 7 39 7 28 0 37 -7 69 -56 154 -231 389 -977 555 -1760 71 -339
76 -356 91 -333 15 24 10 162 -11 277 -70 389 -266 1120 -391 1461 -62 168
-167 383 -213 436 l-34 40 -94 -2 -93 -3 -17 70 c-19 79 -59 144 -100 161 -19
8 -44 8 -83 1 -52 -8 -57 -8 -70 12 -28 44 -87 269 -117 446 l-13 75 61 57
c75 70 123 158 159 289 32 114 47 130 202 213 200 108 248 149 260 220 4 28 1
39 -20 60 -33 33 -91 34 -201 6 -43 -12 -80 -19 -82 -17 -2 2 55 43 127 92
199 135 254 201 215 260 -32 49 -109 45 -286 -16 -63 -21 -124 -42 -135 -46
-26 -9 19 30 175 149 193 148 232 198 199 260 -13 23 -67 48 -107 48 -73 0
-273 -75 -414 -156 -137 -78 -113 -48 68 87 178 132 212 175 179 225 -35 53
-123 67 -245 39 -80 -19 -286 -119 -358 -174 -103 -80 -156 -52 -238 129 -47
104 -78 158 -99 172 -15 11 -35 10 -35 -2z m913 -189 c16 -17 -27 -53 -130
-111 -183 -101 -274 -178 -314 -265 -21 -46 -27 -151 -7 -139 8 5 9 2 5 -10
-6 -14 -3 -15 14 -5 12 6 58 39 102 73 135 103 281 181 436 232 79 26 155 31
167 12 11 -17 -62 -79 -222 -188 -142 -97 -278 -216 -315 -277 -16 -25 -19
-42 -15 -68 l7 -35 142 74 c204 108 457 187 457 143 0 -26 -70 -79 -232 -176
-189 -113 -260 -167 -299 -229 -53 -84 -27 -89 125 -28 176 72 333 105 351 75
11 -17 -65 -81 -154 -129 -208 -113 -263 -161 -277 -240 -10 -53 -53 -170 -81
-218 -14 -23 -68 -83 -121 -132 -87 -81 -95 -92 -78 -101 29 -17 62 -104 95
-251 26 -117 42 -171 76 -250 5 -14 -1 -18 -32 -24 -21 -3 -89 -19 -151 -35
-135 -35 -194 -37 -221 -10 -20 20 -23 28 -62 185 -12 49 -53 170 -91 269 -79
205 -127 364 -160 529 -18 91 -22 148 -23 288 0 203 7 233 85 375 154 276 373
503 584 605 144 70 303 98 339 61z m-59 -2322 c28 -33 35 -91 16 -145 -10 -28
-16 -30 -210 -77 -110 -27 -279 -72 -376 -102 l-176 -53 -19 42 c-39 86 -13
149 81 198 69 35 549 160 647 167 6 1 23 -13 37 -30z m-413 -698 c56 -56 22
-145 -56 -145 -79 0 -115 97 -54 148 40 34 74 33 110 -3z m648 14 c32 -16 41
-33 41 -79 0 -74 -98 -109 -146 -52 -33 38 -31 80 5 117 33 32 58 36 100 14z
m-230 -449 c28 -15 51 -53 51 -86 0 -11 -13 -34 -29 -52 -38 -42 -89 -44 -128
-5 -39 39 -37 90 5 128 36 32 60 36 101 15z m521 -631 c66 -34 75 -117 19
-171 -82 -79 -217 23 -165 125 29 55 91 75 146 46z m-552 -61 c38 -44 26 -101
-29 -129 -88 -46 -164 75 -87 140 38 32 81 29 116 -11z"/>
<path d="M8711 5154 c-25 -18 -51 -71 -51 -104 0 -12 11 -32 25 -45 57 -57
165 -12 165 69 0 70 -84 119 -139 80z m73 -60 c21 -20 20 -30 -4 -54 -24 -24
-30 -25 -56 -4 -13 11 -15 17 -6 20 6 3 12 11 12 18 0 13 20 36 31 36 4 0 15
-7 23 -16z"/>
<path d="M9530 5118 c-44 -73 -12 -148 64 -148 50 0 86 38 86 92 0 54 -35 88
-90 88 -35 0 -43 -4 -60 -32z m90 -33 c22 -26 -3 -67 -38 -63 -22 2 -28 9 -30
35 -2 23 1 32 15 36 32 8 40 7 53 -8z"/>
<path d="M9650 4520 c-13 -25 -13 -44 11 -365 28 -391 -54 -1326 -166 -1896
-26 -129 -64 -315 -86 -413 -25 -114 -39 -199 -37 -230 l3 -51 27 71 c70 187
187 774 242 1224 70 567 96 1007 77 1319 -12 196 -28 309 -48 345 -10 18 -11
18 -23 -4z"/>
<path d="M4965 4469 c-47 -27 -58 -70 -28 -115 49 -76 160 -29 138 59 -12 48
-70 78 -110 56z"/>
<path d="M2581 4307 l-1 -38 -35 27 c-40 30 -45 25 -14 -14 l21 -27 -31 -3
c-38 -4 -42 -22 -5 -22 19 0 25 -4 20 -15 -3 -8 -9 -22 -12 -30 -3 -8 -2 -15
4 -15 5 0 15 7 22 15 20 24 30 17 30 -21 0 -21 4 -33 10 -29 6 3 10 17 10 31
0 22 3 23 20 14 15 -8 20 -8 20 3 0 7 -5 18 -11 24 -9 9 -5 14 14 19 30 7 27
24 -4 24 -20 0 -20 1 -3 30 21 35 12 50 -15 26 -18 -16 -19 -16 -29 11 -10 28
-10 28 -11 -10z"/>
</g>
</svg>
