<?xml version="1.0" standalone="no"?>
<!DOCTYPE svg PUBLIC "-//W3C//DTD SVG 20010904//EN"
 "http://www.w3.org/TR/2001/REC-SVG-20010904/DTD/svg10.dtd">
<svg version="1.0" xmlns="http://www.w3.org/2000/svg"
 width="1040.000000pt" height="1041.000000pt" viewBox="0 0 1040.000000 1041.000000"
 preserveAspectRatio="xMidYMid meet">

<g transform="translate(0.000000,1041.000000) scale(0.100000,-0.100000)"
fill="#000000" stroke="none">
<path d="M3336 9405 c-6 -32 -9 -35 -33 -29 -22 6 -24 4 -18 -15 5 -17 2 -21
-14 -21 -33 0 -35 -20 -2 -26 26 -5 29 -9 21 -25 -6 -10 -10 -25 -10 -34 0
-12 4 -14 19 -6 15 8 22 6 35 -12 l15 -22 19 24 c16 20 22 22 40 12 26 -14 37
1 23 28 -9 15 -7 20 9 24 30 8 24 27 -10 34 -30 6 -38 17 -20 28 6 3 10 13 10
22 0 11 -7 14 -25 11 -20 -4 -26 -1 -31 18 -9 34 -21 29 -28 -11z"/>
<path d="M2597 8926 c-66 -24 -117 -89 -117 -149 0 -39 18 -42 33 -5 37 88
107 129 184 109 54 -15 60 -26 22 -41 -40 -17 -59 -46 -59 -92 0 -49 30 -78
81 -78 46 0 99 40 99 76 0 14 6 24 14 24 14 0 61 -49 82 -85 14 -25 44 -13 44
18 0 41 -53 102 -114 131 -31 15 -56 31 -56 36 0 17 -86 60 -131 65 -26 3 -60
-1 -82 -9z m193 -154 c0 -25 -19 -42 -47 -42 -25 0 -32 27 -11 48 19 19 58 15
58 -6z"/>
<path d="M6395 8713 c-56 -14 -114 -84 -135 -164 -6 -24 -18 -67 -27 -96 -16
-58 -10 -96 15 -91 10 2 23 17 31 34 l13 31 44 -15 c59 -19 106 -9 138 29 32
38 33 70 2 106 -19 22 -32 27 -67 28 -24 0 -54 -4 -67 -8 -23 -9 -23 -8 -8 21
21 42 70 80 111 88 45 8 53 21 20 34 -28 10 -37 11 -70 3z m41 -208 c15 -38
-60 -61 -101 -31 -18 13 -17 14 11 29 37 21 83 21 90 2z"/>
<path d="M7926 8425 c-33 -36 -128 -329 -155 -479 -14 -74 -14 -71 5 -55 28
23 61 101 108 258 26 85 52 164 59 175 25 44 18 -29 -18 -186 -50 -224 -47
-298 15 -298 37 0 66 38 151 199 95 179 131 242 135 238 7 -7 -34 -130 -92
-279 -30 -77 -54 -146 -54 -154 0 -24 45 -16 91 17 24 18 86 75 138 128 55 56
96 91 99 83 5 -17 -14 -45 -118 -177 -48 -60 -92 -120 -99 -132 -19 -38 -14
-72 14 -85 21 -9 43 -6 125 17 55 16 102 26 106 23 10 -11 -62 -57 -201 -129
-220 -114 -291 -170 -376 -302 -21 -33 -53 -98 -71 -144 -31 -83 -32 -83 -67
-83 -39 0 -117 33 -191 81 l-48 31 34 59 c19 32 54 98 77 146 41 85 42 91 42
188 0 96 -2 104 -44 200 -78 178 -93 217 -86 223 4 4 31 -20 62 -53 115 -126
135 -145 145 -145 13 0 3 43 -25 98 -31 63 -121 159 -163 172 -29 10 -39 9
-61 -5 -40 -26 -29 -92 40 -248 31 -70 62 -148 68 -173 19 -73 5 -148 -43
-244 l-43 -84 -72 -1 c-53 -1 -78 -6 -91 -18 -10 -9 -22 -14 -25 -10 -15 15
-5 -13 16 -45 23 -35 176 -151 292 -222 79 -49 185 -98 287 -135 168 -61 281
-8 223 104 -21 41 -128 135 -191 168 -36 19 -52 33 -49 42 17 45 105 158 152
196 30 25 108 72 173 105 257 132 344 207 305 266 -19 30 -76 32 -165 7 -33
-9 -63 -14 -66 -10 -7 7 20 48 99 145 77 96 127 179 127 214 0 31 -31 68 -56
68 -31 0 -83 -41 -163 -127 l-80 -87 29 75 c81 210 92 359 25 359 -38 0 -84
-65 -178 -248 -47 -92 -93 -176 -101 -187 -15 -20 -15 -19 -16 6 0 14 13 91
29 170 39 194 45 248 29 279 -19 36 -61 38 -92 5z"/>
<path d="M1716 8069 c-45 -36 -37 -78 50 -246 71 -137 74 -145 38 -103 -124
144 -248 251 -313 271 -55 16 -81 0 -81 -49 0 -51 36 -104 219 -326 9 -11 -27
15 -80 57 -134 107 -203 147 -254 147 -49 0 -65 -13 -65 -56 0 -41 58 -106
230 -257 69 -61 126 -113 128 -117 1 -4 -54 -5 -123 -2 -111 4 -128 3 -145
-13 -43 -39 -12 -89 89 -139 25 -13 152 -63 281 -110 244 -90 256 -96 315
-147 l36 -32 -48 -27 c-174 -101 -226 -253 -95 -275 96 -15 281 68 582 263
152 99 237 168 266 218 31 53 32 71 2 52 -16 -10 -41 -14 -83 -10 -64 4 -150
-14 -232 -49 l-48 -21 -34 39 c-52 59 -71 108 -71 188 0 112 39 234 110 346
46 71 49 102 12 139 -36 36 -75 39 -131 10 -44 -22 -70 -50 -126 -138 -21 -34
-43 -62 -47 -62 -11 0 -44 54 -137 224 -97 175 -121 209 -166 230 -42 20 -47
20 -79 -5z m109 -123 c14 -18 64 -107 110 -197 92 -177 116 -209 152 -209 41
0 63 19 118 104 56 87 95 126 126 126 27 0 24 -18 -11 -70 -39 -58 -86 -205
-99 -306 -18 -145 11 -223 132 -350 42 -45 77 -84 77 -87 0 -11 -118 -76 -156
-86 -50 -14 -77 2 -156 90 -100 112 -128 128 -373 212 -260 89 -377 137 -383
156 -5 15 18 14 148 -9 64 -11 91 -9 142 11 65 26 44 64 -111 198 -154 134
-211 191 -189 191 14 0 63 -35 267 -193 93 -73 141 -85 157 -42 12 31 -8 66
-131 225 -69 89 -125 165 -125 168 0 7 29 -18 146 -128 152 -143 244 -190 244
-125 0 40 -41 157 -86 247 -24 48 -44 92 -44 98 0 20 19 10 45 -24z"/>
<path d="M4766 7274 c-164 -32 -325 -110 -441 -213 -186 -165 -300 -463 -266
-701 18 -135 46 -206 102 -262 28 -28 52 -48 55 -45 3 2 -13 51 -35 108 -44
116 -62 198 -60 273 l1 51 8 -48 c22 -130 85 -279 140 -332 28 -26 28 -28 14
-67 -51 -144 -58 -418 -15 -568 60 -208 191 -369 368 -452 55 -26 64 -35 73
-66 57 -207 327 -212 574 -11 43 35 103 82 133 104 30 22 64 53 76 69 20 28
20 29 2 24 -11 -4 -57 -23 -102 -43 -136 -60 -259 -87 -398 -88 -166 -1 -278
32 -408 122 -116 79 -221 241 -252 386 -58 270 -6 534 157 805 25 41 47 82 51
91 8 23 114 91 222 144 222 108 377 127 492 59 139 -81 224 -220 283 -459 57
-234 106 -306 216 -319 32 -4 69 -14 81 -21 45 -29 37 -128 -15 -180 -15 -15
-65 -46 -112 -67 -102 -47 -118 -60 -126 -105 -12 -65 42 -135 145 -188 106
-53 297 -24 436 66 l60 39 -81 -78 c-142 -134 -249 -184 -436 -203 -62 -6
-114 -12 -116 -14 -2 -1 16 -10 40 -20 99 -41 267 -15 397 62 341 202 638 711
991 1698 45 127 97 268 116 314 18 46 31 88 28 92 -17 29 -72 -21 -104 -95
-12 -27 -57 -148 -100 -270 -87 -248 -181 -490 -262 -676 -59 -133 -142 -299
-133 -264 59 228 43 494 -44 713 -32 79 -106 188 -172 253 -235 230 -595 256
-764 54 l-35 -41 0 31 c0 90 -159 241 -319 304 -127 50 -317 64 -465 34z"/>
<path d="M2923 6981 c3 -23 21 -68 40 -99 451 -748 586 -958 824 -1275 284
-378 410 -487 557 -487 l51 0 -35 22 c-186 115 -263 183 -404 359 -228 284
-416 566 -754 1124 -182 301 -241 389 -266 393 -17 4 -18 -1 -13 -37z"/>
<path d="M7340 6821 c0 -9 167 -120 330 -218 120 -73 231 -113 256 -92 32 27
12 49 -71 78 -70 24 -178 78 -405 204 -62 35 -110 47 -110 28z"/>
<path d="M7803 6795 c-13 -28 -14 -39 -5 -60 14 -30 31 -32 66 -4 46 36 28 99
-29 99 -8 0 -23 -16 -32 -35z m35 -30 c-3 -3 -9 2 -12 12 -6 14 -5 15 5 6 7
-7 10 -15 7 -18z"/>
<path d="M8064 6717 c-43 -66 -64 -106 -134 -262 -137 -304 -392 -790 -571
-1088 -113 -188 -272 -429 -510 -779 -104 -152 -196 -292 -204 -312 -33 -80
41 -46 112 51 69 94 353 511 457 672 290 445 646 1106 808 1501 31 75 73 237
64 247 -1 1 -11 -13 -22 -30z"/>
<path d="M2722 6628 c-148 -114 -212 -155 -332 -214 -74 -37 -147 -75 -162
-86 -31 -22 -36 -49 -12 -69 13 -11 20 -10 42 4 15 10 83 46 152 82 212 109
370 242 358 301 -2 12 -13 8 -46 -18z"/>
<path d="M2180 6600 c-24 -24 -27 -86 -4 -118 17 -25 78 -31 107 -9 41 29 35
124 -8 141 -32 12 -75 6 -95 -14z m70 -61 c0 -6 -4 -7 -10 -4 -5 3 -10 11 -10
16 0 6 5 7 10 4 6 -3 10 -11 10 -16z"/>
<path d="M1875 6525 c90 -212 408 -612 1059 -1334 335 -373 402 -447 526 -596
375 -451 556 -756 634 -1075 14 -58 46 -224 71 -370 25 -146 55 -300 66 -342
35 -130 65 -122 61 17 -1 76 -57 424 -97 612 -111 523 -334 856 -1210 1808
-392 425 -800 912 -962 1145 -17 25 -63 79 -102 120 l-71 75 25 -60z"/>
<path d="M9206 6514 c-3 -9 -6 -24 -6 -35 0 -22 -4 -23 -31 -8 -18 9 -20 8
-17 -13 2 -17 -2 -24 -19 -26 -33 -5 -28 -19 8 -27 23 -5 28 -10 20 -18 -13
-13 -15 -47 -3 -47 4 0 13 5 19 11 7 7 12 3 17 -15 8 -31 32 -34 41 -5 6 17
12 19 37 14 29 -7 30 -6 24 18 -5 20 -2 27 14 32 28 9 25 21 -10 33 -27 10
-29 14 -21 35 12 30 4 40 -20 26 -16 -8 -21 -5 -29 16 -11 29 -16 31 -24 9z"/>
<path d="M4715 6375 c-30 -29 -31 -49 -5 -75 15 -15 33 -20 74 -20 61 0 73 -9
55 -42 -17 -31 -170 -218 -179 -218 -11 0 -37 33 -44 56 -3 11 0 38 7 60 16
45 12 64 -13 64 -23 0 -36 -17 -49 -67 -14 -51 5 -117 42 -148 l23 -20 -29
-41 c-34 -48 -46 -114 -27 -150 8 -14 28 -28 48 -34 36 -10 59 -3 81 24 11 12
6 17 -29 27 -23 7 -44 19 -47 26 -9 22 48 107 165 247 145 174 159 212 105
277 -52 61 -136 77 -178 34z"/>
<path d="M5107 6290 c-59 -47 -16 -91 117 -120 86 -19 126 -16 126 10 0 49
-94 120 -170 128 -36 3 -51 -1 -73 -18z"/>
<path d="M4906 6048 c-8 -13 -22 -48 -31 -79 -18 -64 -12 -90 29 -128 55 -52
194 -29 272 44 30 29 34 37 24 54 -13 25 -33 27 -50 5 -45 -53 -166 -86 -204
-55 -21 17 -20 39 3 99 13 33 16 53 10 65 -14 24 -36 21 -53 -5z"/>
<path d="M1217 5723 c-3 -5 -8 -27 -12 -50 l-7 -42 -34 16 c-37 18 -54 12 -35
-11 17 -20 8 -32 -31 -40 l-33 -7 25 -14 c14 -8 35 -14 46 -15 l22 0 -19 -37
c-21 -42 -12 -54 24 -30 21 14 22 13 32 -17 14 -44 40 -45 56 -2 12 34 14 35
36 21 22 -15 63 -21 63 -10 0 4 -7 19 -15 34 -14 28 -14 29 15 35 42 8 38 33
-5 42 -40 7 -53 20 -36 37 16 16 13 47 -5 47 -8 0 -24 -4 -34 -10 -16 -8 -19
-5 -25 20 -7 31 -20 46 -28 33z"/>
<path d="M4983 5553 c-7 -2 -13 -11 -13 -19 0 -30 -30 -72 -59 -82 -22 -8 -36
-7 -57 4 -38 20 -68 14 -72 -13 -5 -32 49 -63 110 -63 41 0 54 5 86 35 74 66
77 168 5 138z"/>
<path d="M8535 5483 c-37 -36 -45 -100 -21 -155 8 -18 18 -49 21 -69 3 -21 12
-42 20 -49 19 -16 45 -6 45 18 0 15 9 20 45 24 107 13 148 96 80 164 -35 35
-102 34 -146 -3 l-32 -27 6 34 c3 19 8 45 12 58 9 26 -6 29 -30 5z m156 -119
c11 -14 10 -19 -10 -35 -47 -39 -104 -11 -66 31 22 24 58 26 76 4z"/>
<path d="M4755 4630 c-15 -16 -16 -25 -7 -43 6 -12 13 -32 17 -44 3 -11 13
-24 21 -27 16 -6 54 10 66 28 13 19 8 74 -8 90 -22 22 -67 20 -89 -4z"/>
<path d="M4690 4370 c-24 -24 -25 -39 -6 -85 17 -39 52 -53 88 -34 31 16 38
28 38 67 0 41 -30 72 -70 72 -17 0 -39 -9 -50 -20z"/>
<path d="M6745 4065 c-455 -45 -1162 -166 -1468 -250 -245 -67 -354 -124 -389
-201 -67 -153 -74 -571 -21 -1249 9 -115 17 -223 17 -239 1 -29 1 -29 -132
-61 -73 -18 -148 -42 -167 -54 -33 -19 -35 -19 -35 -2 0 39 33 61 135 89 55
16 109 33 119 39 52 29 -141 23 -256 -7 -20 -6 -51 -22 -69 -37 -27 -23 -31
-31 -26 -65 10 -71 123 -189 299 -312 110 -77 122 -80 252 -61 145 21 641 120
981 196 479 107 791 191 1008 269 113 41 288 130 301 153 15 26 -13 44 -80 53
-44 5 -54 10 -50 23 31 107 44 1137 18 1356 -27 216 -54 308 -104 350 -27 23
-37 25 -116 24 -48 -1 -145 -7 -217 -14z m298 -72 c22 -26 45 -113 63 -239 21
-154 30 -673 15 -959 -27 -518 -41 -553 -277 -639 -154 -56 -401 -123 -779
-210 -450 -104 -1102 -233 -1114 -220 -2 2 1 42 8 89 15 95 12 164 -22 625
-29 397 -31 980 -5 1080 24 87 66 125 192 173 279 107 994 241 1601 301 209
20 298 20 318 -1z"/>
<path d="M6210 3145 c-79 -25 -126 -94 -108 -161 10 -41 67 -90 117 -104 98
-26 197 46 189 137 -3 33 -7 38 -31 41 -28 3 -30 0 -41 -50 -8 -37 -39 -52
-78 -39 -83 29 -76 120 10 137 40 8 62 32 41 45 -19 12 -45 10 -99 -6z"/>
<path d="M8822 2759 c-73 -10 -284 -30 -470 -44 -185 -14 -348 -27 -362 -30
-14 -3 -104 -9 -200 -15 -217 -13 -353 -34 -397 -61 -74 -46 -43 -47 317 -16
96 9 279 23 405 32 600 41 861 72 903 107 12 10 11 15 -8 30 -26 21 -17 21
-188 -3z"/>
<path d="M2292 2569 c-52 -6 -82 -15 -102 -31 -34 -27 -34 -28 -17 -52 21 -29
96 -35 305 -23 147 8 196 7 205 -2 20 -20 22 -327 3 -458 -37 -254 -114 -373
-242 -373 -170 0 -262 171 -352 655 -21 109 -51 203 -52 159 0 -19 -5 -20 -57
-16 -67 6 -113 -15 -143 -63 -25 -40 -27 -128 -4 -185 9 -23 15 -42 13 -44 -2
-2 -65 -9 -139 -15 -74 -7 -162 -16 -195 -21 -33 -5 -100 -14 -149 -21 -63 -8
-94 -17 -108 -31 -11 -11 -17 -22 -14 -25 4 -4 95 0 466 23 87 6 100 4 155
-19 33 -14 78 -30 100 -36 50 -13 95 -56 137 -130 17 -31 52 -86 78 -122 l48
-65 -45 -24 c-33 -18 -43 -28 -41 -44 5 -33 59 -45 213 -45 126 -1 145 1 190
23 92 42 150 132 191 295 53 207 56 561 6 643 l-21 34 -114 12 c-127 13 -206
14 -315 1z m-275 -279 c28 -57 71 -236 59 -247 -9 -10 -75 28 -109 63 -82 82
-103 178 -52 230 41 40 65 29 102 -46z"/>
<path d="M4407 2389 c-32 -5 -192 -20 -355 -34 -163 -14 -364 -32 -447 -40
-82 -7 -199 -17 -260 -20 -211 -11 -328 -26 -372 -47 -95 -44 -40 -54 190 -34
100 9 324 27 497 41 877 70 996 86 959 131 -13 16 -116 17 -212 3z"/>
<path d="M8325 1802 c-60 -31 -202 -92 -315 -136 -236 -90 -509 -225 -593
-291 -60 -47 -105 -107 -86 -114 5 -1 58 29 117 68 108 71 311 173 457 229
297 114 378 148 455 187 116 61 152 94 114 109 -26 10 -35 7 -149 -52z"/>
<path d="M8554 1831 c32 -36 137 -72 373 -131 130 -33 240 -63 245 -68 14 -14
-807 -512 -967 -589 -30 -14 -40 -12 -231 50 -255 83 -408 118 -533 120 -101
1 -145 -7 -138 -26 2 -7 19 -17 37 -23 20 -7 28 -13 19 -16 -7 -2 38 -12 101
-22 142 -21 318 -63 517 -121 83 -25 165 -45 181 -45 64 0 354 137 592 279 80
48 194 116 254 151 108 65 178 121 158 128 -6 2 -29 -6 -51 -18 -63 -32 -49
-17 32 33 84 53 110 78 105 103 -8 43 -73 64 -513 164 -77 17 -153 36 -169 41
-28 9 -29 8 -12 -10z"/>
<path d="M8340 1682 c0 -6 84 -39 188 -73 141 -46 206 -63 265 -66 73 -5 79
-4 75 13 -2 14 -18 21 -73 30 -39 7 -139 31 -223 53 -182 49 -232 58 -232 43z"/>
<path d="M7837 1373 c-14 -14 -6 -21 31 -27 20 -4 57 -13 82 -20 151 -45 203
-57 242 -54 45 3 62 30 23 36 -11 2 -86 19 -167 37 -144 34 -198 42 -211 28z"/>
<path d="M7625 1291 c-6 -11 5 -15 90 -31 33 -7 127 -34 209 -62 156 -52 201
-57 201 -23 0 14 -10 22 -35 28 -19 5 -71 21 -115 34 -182 55 -334 79 -350 54z"/>
</g>
</svg>
