<?xml version="1.0" standalone="no"?>
<!DOCTYPE svg PUBLIC "-//W3C//DTD SVG 20010904//EN"
 "http://www.w3.org/TR/2001/REC-SVG-20010904/DTD/svg10.dtd">
<svg version="1.0" xmlns="http://www.w3.org/2000/svg"
 width="1040.000000pt" height="1040.000000pt" viewBox="0 0 1040.000000 1040.000000"
 preserveAspectRatio="xMidYMid meet">

<g transform="translate(0.000000,1040.000000) scale(0.100000,-0.100000)"
fill="#000000" stroke="none">
<path d="M7514 8735 c-20 -52 3 -245 39 -314 27 -54 50 -70 75 -55 21 14 21
20 0 114 -10 41 -25 111 -34 155 -10 44 -22 88 -28 98 -13 21 -45 23 -52 2z"/>
<path d="M8138 8340 c-25 -5 -73 -20 -105 -33 -32 -14 -89 -38 -128 -53 -102
-40 -136 -64 -133 -94 4 -38 34 -36 160 8 207 74 291 119 286 155 -3 25 -16
28 -80 17z"/>
<path d="M6105 8269 c-4 -5 -1 -24 6 -40 10 -26 10 -33 -3 -46 -14 -14 -17
-13 -23 6 -9 29 -29 21 -33 -13 -7 -60 50 -75 99 -27 35 35 40 88 11 114 -21
19 -48 22 -57 6z"/>
<path d="M5868 7894 c-43 -27 -48 -54 -18 -84 24 -24 48 -25 78 -4 30 20 31
88 3 104 -24 12 -19 14 -63 -16z"/>
<path d="M6223 7890 c-40 -16 -24 -78 17 -65 15 5 20 4 16 -4 -14 -22 -52 -12
-65 16 -12 27 -13 27 -27 8 -19 -26 -18 -32 15 -66 44 -44 102 -35 134 21 22
37 21 56 -3 80 -21 21 -51 24 -87 10z"/>
<path d="M6030 7753 c0 -5 9 -45 20 -89 11 -43 23 -133 27 -198 12 -175 43
-161 43 19 0 149 -31 265 -73 273 -9 2 -17 -1 -17 -5z"/>
<path d="M6592 7569 c-19 -5 -53 -29 -76 -52 -49 -49 -70 -109 -65 -185 l4
-49 -64 5 c-78 6 -118 -12 -150 -68 -27 -49 -28 -127 -2 -179 54 -106 162
-201 228 -201 46 0 42 21 -9 56 -58 41 -85 114 -58 164 5 10 31 26 57 36 27
10 54 22 60 27 9 6 24 0 48 -22 20 -17 42 -31 50 -31 26 0 17 49 -16 90 -35
43 -32 59 22 104 22 18 42 26 70 26 53 0 78 -14 95 -56 13 -31 13 -37 -1 -57
-43 -62 5 -76 74 -22 24 19 48 35 54 35 18 0 75 -69 87 -106 16 -46 8 -105
-19 -142 -26 -37 -74 -57 -186 -76 -48 -9 -90 -18 -93 -21 -12 -12 13 -20 78
-23 182 -11 394 90 456 216 12 22 19 59 19 93 0 69 -36 129 -95 159 -53 27
-158 27 -219 0 -24 -11 -45 -20 -47 -20 -2 0 -4 17 -4 38 0 56 -25 133 -59
179 -49 68 -161 106 -239 82z"/>
<path d="M5545 7548 c-58 -21 -95 -74 -95 -138 0 -35 3 -34 -46 -14 -29 12
-60 15 -119 12 -93 -5 -154 -32 -185 -84 -27 -43 -27 -125 1 -173 20 -36 86
-91 110 -91 7 0 2 -12 -13 -27 -37 -40 -48 -66 -48 -114 0 -38 5 -48 48 -89
60 -58 113 -74 218 -68 63 4 89 12 153 45 l78 39 33 -28 c75 -62 214 -80 303
-38 78 37 137 121 137 196 0 42 -30 120 -62 158 -34 41 -117 86 -158 86 -14
-1 -36 -7 -49 -14 -24 -13 -24 -14 17 -21 60 -10 131 -61 160 -115 54 -103
-11 -217 -134 -236 -75 -11 -166 36 -176 91 -6 33 -41 29 -89 -11 -54 -46
-128 -81 -199 -94 -148 -28 -282 73 -212 160 15 18 30 23 83 25 38 2 92 13
134 29 38 14 71 26 73 26 2 0 2 10 0 23 -3 19 -8 22 -43 19 -141 -9 -180 -6
-230 19 -86 43 -118 118 -74 173 33 42 71 56 148 56 91 0 141 -20 186 -76 64
-78 105 -49 55 40 -58 101 -30 176 64 176 89 0 149 -63 161 -170 9 -73 20 -92
40 -66 23 30 19 130 -6 183 -47 97 -164 146 -264 111z"/>
<path d="M5646 7180 c-36 -23 -46 -38 -46 -71 0 -35 40 -70 88 -76 34 -5 45
-1 66 20 36 36 35 80 -3 118 -34 33 -63 36 -105 9z m54 -49 c0 -12 -29 -23
-41 -15 -5 3 -7 10 -4 15 8 12 45 12 45 0z"/>
<path d="M7655 6979 c-4 -6 -13 -8 -20 -5 -30 11 -49 -56 -23 -82 16 -16 60
-15 82 1 24 17 24 67 0 84 -22 16 -31 16 -39 2z"/>
<path d="M1450 6967 c0 -4 21 -17 48 -31 122 -61 341 -118 891 -228 l303 -62
-28 -20 c-73 -50 -251 -260 -269 -316 -4 -11 -25 -51 -47 -88 -23 -37 -54 -96
-70 -132 -16 -36 -37 -81 -47 -100 -37 -69 -63 -174 -71 -290 -7 -110 -7 -116
14 -138 17 -17 35 -23 76 -25 l55 -2 8 40 c5 22 17 56 26 75 10 19 21 57 25
83 12 80 103 303 165 404 17 28 31 56 31 62 0 32 93 164 168 241 46 46 97 104
115 127 18 23 39 43 47 43 24 1 420 -84 420 -90 0 -3 -19 -15 -42 -28 -59 -31
-157 -120 -229 -209 -80 -97 -183 -269 -279 -468 -83 -170 -126 -294 -155
-443 -17 -89 -17 -94 0 -126 15 -28 25 -35 61 -40 24 -3 57 -3 74 0 25 5 30
12 35 43 9 56 12 69 44 181 41 147 63 203 137 354 109 221 180 351 222 409 50
67 174 182 261 241 l65 44 110 -30 c299 -79 566 -188 741 -302 89 -58 115 -67
115 -40 0 57 -126 153 -308 235 -138 62 -630 222 -712 232 -19 2 -161 30 -314
61 -154 32 -374 73 -490 92 -256 42 -615 118 -872 184 -177 46 -324 71 -324
57z"/>
<path d="M7970 6909 c-10 -17 -8 -21 9 -26 12 -3 21 -12 21 -20 0 -20 -45 -13
-46 7 -4 58 -3 57 -24 31 -25 -30 -25 -56 0 -81 43 -43 130 -13 130 45 0 53
-68 86 -90 44z"/>
<path d="M7755 6800 c-22 -5 -56 -15 -76 -24 -58 -24 -159 -95 -159 -111 0
-21 5 -20 90 24 41 22 104 45 140 51 71 14 96 30 87 54 -7 17 -20 18 -82 6z"/>
<path d="M2061 6704 c-53 -27 -149 -129 -174 -184 -6 -14 -23 -43 -37 -65 -51
-77 -99 -184 -120 -266 -26 -101 -21 -109 71 -116 l64 -5 20 63 c17 58 105
240 126 264 5 5 9 17 9 28 0 25 65 121 95 141 34 23 77 99 68 122 -8 23 -33
43 -54 44 -8 0 -39 -12 -68 -26z"/>
<path d="M7124 6714 c-38 -19 -74 -80 -74 -128 l0 -36 -71 0 c-118 0 -179 -49
-179 -144 0 -81 57 -158 147 -201 37 -18 40 -27 17 -46 -8 -7 -25 -31 -36 -53
-56 -109 42 -218 169 -187 26 7 58 19 71 27 29 19 38 13 46 -30 4 -19 24 -53
44 -77 36 -40 42 -43 100 -47 54 -4 67 -1 101 21 60 40 76 84 76 205 l0 102
35 6 c78 12 97 17 131 35 103 52 135 176 70 267 -51 73 -188 103 -277 63 l-42
-19 -6 28 c-17 85 -87 178 -160 211 -50 23 -120 24 -162 3z m195 -116 c34 -17
69 -88 79 -166 11 -78 26 -96 53 -64 18 23 99 52 144 52 39 0 98 -22 121 -45
34 -34 31 -76 -6 -119 -40 -45 -84 -59 -189 -60 -101 -1 -106 -8 -70 -84 28
-56 31 -139 6 -194 -15 -35 -19 -38 -57 -38 -79 0 -135 49 -145 128 -10 77
-16 102 -24 102 -4 0 -14 -12 -22 -27 -19 -37 -28 -43 -70 -43 -65 0 -119 62
-99 115 7 19 17 25 38 25 31 0 68 32 57 49 -3 6 -33 11 -65 11 -53 0 -61 3
-84 31 -14 17 -29 41 -32 55 -9 36 25 86 70 103 34 13 39 13 47 -2 22 -38 62
-77 80 -77 18 0 17 5 -11 60 -39 77 -38 110 1 155 47 53 109 65 178 33z"/>
<path d="M7268 6310 c-16 -17 -28 -37 -28 -46 0 -70 91 -74 120 -4 10 25 10
34 -4 55 -22 33 -55 32 -88 -5z m33 -43 c-8 -8 -11 -7 -11 4 0 9 3 19 7 23 4
4 9 2 11 -4 3 -7 -1 -17 -7 -23z"/>
<path d="M5630 6703 c0 -10 7 -56 16 -103 21 -114 21 -382 -1 -514 -14 -88
-57 -261 -67 -271 -2 -2 -26 7 -53 20 -95 47 -206 68 -334 63 -124 -5 -138 -9
-394 -107 -143 -55 -237 -69 -364 -53 -54 7 -101 16 -106 21 -4 4 3 27 16 52
14 24 35 69 47 100 18 45 29 58 55 68 44 16 64 39 44 52 -86 54 -388 -131
-571 -350 -192 -230 -316 -488 -363 -754 -36 -204 14 -307 149 -307 65 0 123
29 179 89 32 34 47 59 52 90 4 23 4 45 1 48 -3 4 -36 -23 -73 -59 -65 -62
-118 -98 -145 -98 -7 0 -3 7 9 15 27 19 133 176 174 257 l29 58 133 0 c148 0
225 -15 266 -53 14 -13 53 -43 86 -67 33 -24 123 -95 199 -158 77 -63 172
-137 213 -165 40 -28 73 -55 73 -60 0 -20 -106 -160 -203 -267 -57 -63 -189
-204 -294 -312 -105 -108 -194 -206 -198 -218 -20 -63 22 -29 311 253 231 225
331 336 406 449 25 37 47 65 50 62 3 -2 -39 -89 -93 -192 -162 -308 -267 -607
-245 -697 10 -41 22 -23 55 90 42 141 106 288 230 530 59 116 110 216 112 223
3 9 32 2 109 -27 58 -21 133 -44 167 -51 84 -17 257 -9 303 13 35 17 67 54 56
65 -3 3 -51 -3 -105 -13 -281 -51 -505 46 -946 409 -71 59 -131 111 -131 116
-1 6 -2 14 -3 18 -2 18 -101 62 -192 86 -170 44 -413 44 -558 0 -25 -7 -47
-12 -49 -9 -9 8 33 125 75 209 88 176 209 334 343 446 l45 38 71 -24 c93 -31
229 -54 319 -54 94 0 196 27 374 99 235 95 309 100 529 40 64 -18 119 -33 121
-35 2 -2 -13 -48 -34 -103 l-37 -99 -66 31 c-68 32 -151 43 -159 21 -2 -6 34
-28 79 -49 46 -21 178 -92 293 -157 238 -134 343 -179 431 -186 55 -4 62 -7
83 -37 46 -67 35 -152 -24 -191 -43 -28 -134 -15 -244 35 -94 42 -146 50 -146
21 0 -8 34 -32 80 -55 44 -22 95 -50 114 -62 19 -12 56 -27 82 -33 l49 -12
-15 -28 c-19 -37 -59 -67 -107 -82 -54 -16 -160 2 -268 47 -90 37 -140 44
-140 22 0 -17 276 -156 324 -164 45 -7 45 -22 4 -69 -60 -68 -141 -81 -275
-43 -83 23 -126 22 -131 -3 -3 -13 15 -22 80 -43 103 -32 211 -42 272 -25 82
23 156 108 156 179 0 25 8 33 54 60 59 33 99 88 111 152 5 26 15 40 38 52 54
29 82 81 82 151 0 73 -18 112 -81 179 -41 44 -49 48 -78 43 -55 -10 -180 36
-354 130 l-83 45 59 112 c105 202 368 573 537 757 144 157 205 250 164 250 -6
0 -48 -37 -93 -82 -275 -278 -534 -617 -681 -893 -58 -107 -51 -98 -63 -91 -6
3 7 53 30 118 53 146 94 303 108 412 18 133 8 487 -15 551 -28 76 -65 121 -65
78z"/>
<path d="M5312 6487 c-27 -28 -28 -58 -4 -80 41 -37 110 -1 97 51 -12 53 -58
67 -93 29z m43 -26 c3 -5 1 -12 -5 -16 -5 -3 -10 1 -10 9 0 18 6 21 15 7z"/>
<path d="M5001 6461 c-72 -68 3 -164 80 -102 31 25 33 96 4 117 -28 21 -49 17
-84 -15z m46 -58 c-22 -23 -38 -6 -26 26 9 23 11 24 26 8 16 -16 16 -18 0 -34z"/>
<path d="M6735 6091 c-450 -168 -638 -265 -847 -440 -85 -71 -158 -153 -158
-177 0 -17 28 -26 48 -15 9 5 46 40 82 76 164 169 420 325 711 435 155 59 225
94 239 120 14 26 -6 26 -75 1z"/>
<path d="M8020 5982 c0 -5 -11 -15 -25 -22 -50 -27 -22 -90 40 -90 41 0 65 22
65 60 0 16 -7 36 -16 44 -16 17 -64 22 -64 8z"/>
<path d="M6927 5752 c-9 -10 -17 -28 -17 -39 0 -45 71 -71 104 -37 24 23 20
71 -5 85 -25 13 -42 -4 -35 -33 2 -10 0 -18 -5 -18 -5 0 -9 8 -9 18 0 33 -15
44 -33 24z"/>
<path d="M6515 5660 c-141 -23 -279 -62 -380 -109 -82 -38 -155 -93 -155 -116
0 -30 35 -24 103 20 120 77 314 143 498 170 128 19 139 22 139 41 0 19 -64 17
-205 -6z"/>
<path d="M593 5633 c-47 -18 26 -53 234 -112 288 -81 447 -145 1088 -436 412
-187 870 -385 1031 -446 127 -47 273 -86 386 -101 99 -13 166 -3 226 34 l34
21 -32 13 c-18 8 -56 14 -85 14 -120 0 -397 67 -642 156 -140 50 -493 204
-838 364 -644 298 -1033 448 -1261 484 -106 17 -121 18 -141 9z"/>
<path d="M7027 5530 c-35 -28 -36 -66 -3 -81 55 -25 107 22 82 72 -15 32 -46
35 -79 9z"/>
<path d="M9440 4933 c-149 -114 -329 -226 -499 -312 -226 -114 -417 -179 -696
-237 -176 -36 -209 -50 -180 -74 21 -18 278 2 390 30 227 57 451 161 705 326
240 156 373 263 406 326 25 47 -4 34 -126 -59z"/>
<path d="M8822 4301 c-122 -91 -154 -123 -146 -146 9 -23 299 -145 345 -145
76 0 40 27 -144 106 -59 26 -107 48 -105 49 2 2 68 -8 147 -21 110 -19 146
-22 157 -13 20 16 19 22 -31 127 -48 101 -69 132 -91 132 -7 0 -66 -40 -132
-89z"/>
<path d="M9652 4260 c-76 -23 -135 -51 -140 -67 -2 -7 8 -17 21 -22 14 -6 45
-36 68 -68 23 -32 47 -65 53 -73 6 -8 -7 0 -29 18 -75 61 -124 92 -155 98 -46
10 -37 -14 24 -64 29 -23 90 -76 135 -117 44 -41 87 -75 94 -75 20 0 34 35 62
152 27 116 32 207 13 226 -17 17 -72 14 -146 -8z"/>
<path d="M5060 4255 c-12 -15 -57 -192 -84 -331 -19 -102 -40 -369 -34 -440 5
-53 31 -100 49 -88 5 3 9 53 9 112 0 151 23 340 65 529 38 176 43 233 21 233
-7 0 -19 -7 -26 -15z"/>
<path d="M7886 4187 c-48 -48 -26 -156 43 -221 27 -26 31 -27 31 -10 0 10 -7
44 -15 74 -8 30 -15 69 -15 85 0 27 4 23 30 -30 49 -101 68 -117 130 -119 45
-1 56 -5 73 -28 23 -31 18 -67 -14 -97 -37 -34 -175 -73 -279 -78 -80 -4 -113
-1 -210 23 -94 23 -138 28 -245 28 -129 1 -131 1 -205 -35 -81 -39 -131 -76
-315 -239 -201 -177 -312 -250 -482 -316 -122 -47 -148 -79 -119 -148 24 -57
62 -71 191 -70 100 0 120 4 219 37 192 66 308 140 362 233 15 25 25 47 22 49
-2 2 -48 -26 -103 -62 -127 -83 -193 -116 -308 -155 -116 -39 -261 -51 -302
-24 -39 25 -31 44 33 72 255 117 335 169 551 357 145 127 187 160 252 196 103
57 231 59 467 5 97 -22 133 -25 208 -21 101 6 241 47 330 97 l51 29 25 -27
c70 -75 157 -243 183 -350 10 -40 16 -74 14 -75 -17 -12 -189 -84 -304 -127
-255 -94 -279 -110 -596 -394 -180 -162 -286 -241 -410 -305 -299 -157 -689
-223 -1004 -170 -146 24 -265 85 -265 134 0 14 3 26 8 26 4 1 84 3 177 5 153
2 182 5 290 33 222 59 392 157 544 317 65 68 99 113 125 166 36 74 60 158 46
158 -5 0 -38 -42 -73 -93 -129 -184 -266 -309 -431 -392 -118 -60 -173 -60
-396 2 -92 26 -94 27 -65 39 44 19 74 17 245 -17 127 -26 160 -30 183 -20 36
14 27 28 -21 36 -20 3 -93 20 -162 37 -69 17 -150 30 -181 30 -58 0 -149 -32
-149 -51 0 -7 -23 -11 -54 -11 -47 0 -57 -4 -75 -26 -26 -33 -27 -70 -2 -110
l19 -32 -28 -6 c-42 -8 -70 -43 -70 -88 0 -53 50 -106 137 -146 237 -108 682
-91 1047 39 223 80 364 172 641 424 262 238 308 268 548 355 115 42 118 42
138 24 37 -34 41 -50 23 -110 -9 -31 -14 -79 -12 -110 1 -30 -1 -54 -5 -54
-18 0 -54 24 -94 62 -58 57 -86 31 -43 -39 51 -84 197 -125 445 -125 257 0
448 48 705 180 224 115 379 221 427 293 14 22 24 41 22 44 -3 2 -73 -42 -156
-98 -158 -107 -339 -203 -457 -243 -93 -32 -284 -72 -382 -80 -95 -8 -184 8
-221 40 -25 22 -26 25 -15 69 38 151 -13 418 -129 667 -56 120 -181 302 -264
385 -82 82 -147 117 -227 123 -50 4 -59 1 -82 -21z m-1708 -1518 c123 -31 163
-48 110 -50 -13 0 -59 -4 -102 -8 -60 -7 -92 -5 -127 5 -53 16 -101 58 -92 81
7 19 29 16 211 -28z"/>
<path d="M8067 3932 c-24 -27 -21 -51 9 -62 41 -16 64 -12 75 14 25 53 -44 92
-84 48z"/>
<path d="M9083 3708 c-6 -7 -45 -79 -87 -159 -72 -138 -89 -190 -66 -204 19
-12 358 89 403 119 70 48 28 61 -84 27 -88 -27 -139 -40 -139 -36 0 7 164 95
177 95 9 0 13 8 11 22 -2 14 -34 42 -96 85 -51 35 -96 63 -101 63 -5 0 -13 -6
-18 -12z"/>
<path d="M8205 3690 c-20 -23 -23 -84 -4 -106 32 -39 112 0 112 54 0 63 -68
96 -108 52z m45 -49 c0 -6 -4 -13 -10 -16 -5 -3 -10 1 -10 9 0 9 5 16 10 16 6
0 10 -4 10 -9z"/>
<path d="M8274 3486 c-29 -20 -34 -47 -18 -84 16 -39 54 -51 89 -28 24 16 29
30 25 71 -4 43 -60 66 -96 41z m40 -61 c-6 -16 -24 -21 -24 -7 0 11 11 22 21
22 5 0 6 -7 3 -15z"/>
<path d="M8272 3180 c-26 -24 -28 -57 -6 -88 31 -45 104 -11 104 49 0 55 -56
77 -98 39z m48 -39 c0 -5 -7 -14 -15 -21 -12 -10 -15 -10 -15 2 0 8 3 18 7 21
9 10 23 9 23 -2z"/>
<path d="M5065 2140 c-61 -7 -110 -27 -139 -55 -13 -13 -14 -21 -5 -37 12 -22
24 -22 144 1 28 6 80 10 117 10 37 1 78 5 92 11 37 14 33 43 -9 63 -37 18 -93
20 -200 7z"/>
<path d="M5633 1971 c-131 -45 -333 -244 -310 -305 12 -32 49 -15 126 57 43
39 119 105 170 145 70 56 91 79 89 95 -4 28 -15 29 -75 8z"/>
</g>
</svg>
