<?xml version="1.0" standalone="no"?>
<!DOCTYPE svg PUBLIC "-//W3C//DTD SVG 20010904//EN"
 "http://www.w3.org/TR/2001/REC-SVG-20010904/DTD/svg10.dtd">
<svg version="1.0" xmlns="http://www.w3.org/2000/svg"
 width="1040.000000pt" height="1040.000000pt" viewBox="0 0 1040.000000 1040.000000"
 preserveAspectRatio="xMidYMid meet">

<g transform="translate(0.000000,1040.000000) scale(0.100000,-0.100000)"
fill="#000000" stroke="none">
<path d="M8588 9133 c-35 -40 -30 -93 14 -140 27 -29 87 -31 111 -5 31 34 26
100 -9 136 -32 31 -92 36 -116 9z"/>
<path d="M7890 9004 c-145 -81 -118 -278 38 -278 125 0 210 114 167 222 -32
80 -119 104 -205 56z m128 -66 c23 -23 14 -77 -17 -109 -35 -34 -47 -36 -61
-8 -14 25 -6 63 21 101 22 30 38 35 57 16z"/>
<path d="M6866 8779 c-18 -21 -26 -42 -26 -69 0 -51 21 -70 75 -70 55 0 85 33
85 91 0 79 -83 109 -134 48z"/>
<path d="M8852 8353 c-68 -33 -84 -127 -31 -188 34 -38 93 -61 131 -52 101 26
128 163 47 231 -36 31 -96 34 -147 9z m72 -104 c14 -11 26 -29 26 -39 0 -38
-58 -32 -80 10 -26 49 5 67 54 29z"/>
<path d="M6445 7903 c-357 -10 -813 -62 -862 -98 -16 -12 -14 -14 23 -25 32
-10 77 -8 244 9 257 26 586 44 665 36 366 -36 653 -114 783 -213 44 -33 82
-100 82 -143 0 -40 -33 -117 -52 -123 -17 -6 -718 -37 -953 -43 l-180 -5 -80
64 c-272 218 -415 316 -490 334 l-30 7 38 -46 c21 -26 32 -44 24 -41 -8 3 -18
1 -21 -4 -7 -11 337 -273 449 -343 l70 -44 215 2 c118 1 301 6 405 12 217 13
711 27 1252 37 204 4 377 11 385 16 10 7 6 15 -17 36 -17 15 -44 45 -60 67
l-30 40 29 -18 c46 -30 42 -11 -10 50 -79 92 -266 293 -330 354 l-59 56 -115
7 c-366 22 -992 31 -1375 19z"/>
<path d="M5536 7618 c-3 -13 -6 -102 -7 -198 -1 -96 -5 -248 -8 -337 l-6 -162
-86 79 -87 78 -233 7 c-408 12 -1982 10 -2249 -3 -515 -26 -881 -66 -941 -103
-48 -29 131 -37 377 -15 434 38 1230 65 1385 45 223 -27 550 -119 712 -200
311 -156 379 -324 215 -537 -23 -30 -60 -69 -82 -87 l-41 -33 -185 -11 c-604
-37 -888 -51 -1072 -51 l-206 0 -69 36 c-37 20 -270 163 -518 317 -465 291
-562 347 -596 347 -17 0 -19 -4 -13 -22 15 -50 54 -84 220 -196 11 -6 -12 3
-51 21 -38 19 -86 37 -105 40 l-35 6 32 -27 c57 -49 486 -291 862 -486 258
-134 280 -140 494 -133 567 18 1060 28 1717 37 454 6 789 14 825 20 70 13 279
38 283 35 2 -2 -2 -130 -8 -286 -18 -453 -24 -1924 -11 -2614 15 -838 39
-1533 57 -1706 l6 -56 -184 -6 c-212 -8 -592 -21 -1248 -42 -450 -15 -1003
-36 -1395 -54 -104 -5 -192 -7 -195 -4 -3 2 -5 188 -5 411 0 414 -8 515 -40
559 -13 17 -15 17 -31 1 -15 -14 -17 -46 -19 -260 -1 -134 -8 -327 -15 -431
-13 -194 -10 -237 15 -237 8 0 15 -4 15 -9 0 -5 3 -16 6 -25 6 -14 -20 -16
-245 -16 l-251 0 0 34 0 34 178 6 c97 3 192 6 210 6 19 0 31 4 27 10 -6 10
-112 74 -300 180 -60 34 -112 64 -114 66 -2 2 -7 113 -11 246 -7 266 -7 270
-76 354 -39 49 -164 136 -329 229 -66 38 -131 78 -143 89 -34 30 -53 72 -54
117 0 48 21 75 73 91 34 10 45 8 97 -16 98 -43 129 -30 76 34 -25 29 -26 36
-21 98 7 83 30 148 64 184 48 50 65 38 151 -97 58 -91 99 -127 146 -127 18 0
83 14 145 32 73 21 116 29 122 23 7 -7 3 -25 -11 -52 -16 -29 -20 -49 -15 -69
11 -45 83 -104 178 -146 65 -30 87 -44 87 -58 0 -27 -81 -102 -185 -173 -90
-61 -213 -171 -203 -181 3 -3 29 6 57 20 27 14 112 53 188 87 292 129 383 192
383 264 0 84 -46 122 -196 160 -103 27 -144 46 -144 68 0 8 34 54 75 103 116
136 160 195 184 241 53 105 1 183 -122 183 -109 0 -243 -91 -444 -304 -56 -59
-106 -105 -111 -102 -5 3 -62 80 -128 172 -127 177 -212 267 -264 277 -97 20
-165 -106 -141 -262 12 -74 45 -190 67 -233 8 -16 13 -28 11 -28 -2 0 -30 10
-63 21 -87 31 -216 32 -265 1 -75 -46 -87 -133 -30 -216 45 -65 99 -101 479
-324 114 -67 222 -149 256 -195 11 -15 23 -52 27 -85 9 -71 11 -372 3 -372 -9
0 -149 80 -387 221 l-212 126 -6 204 c-4 112 -10 212 -14 222 -10 23 -31 21
-49 -5 -13 -19 -16 -60 -16 -244 l0 -222 -147 -4 c-106 -3 -155 -8 -173 -18
-23 -14 -5 -16 188 -22 187 -6 218 -10 245 -27 l31 -19 -255 5 c-237 4 -299
-1 -277 -22 4 -4 53 -8 110 -11 241 -9 464 -27 488 -40 21 -11 -21 -13 -288
-14 -296 0 -352 -5 -352 -29 0 -4 165 -11 366 -15 319 -6 370 -9 398 -24 30
-17 24 -17 -224 -23 -249 -5 -311 -13 -295 -40 4 -5 136 -9 328 -9 337 0 443
-12 220 -24 -130 -7 -199 -18 -214 -33 -4 -4 88 -8 205 -7 117 0 222 -3 232
-7 22 -7 -97 -14 -472 -28 -187 -6 -268 -13 -285 -22 -21 -12 21 -15 301 -19
179 -3 262 -6 185 -8 -138 -2 -215 -14 -215 -32 0 -10 46 -11 440 -14 l155 -1
0 -30 0 -30 -310 -6 c-305 -6 -431 -14 -470 -30 -11 -4 149 -8 356 -8 207 -1
390 -4 407 -7 23 -5 32 -14 39 -38 l9 -31 -361 -11 c-261 -8 -381 -16 -435
-28 -104 -23 -114 -26 -103 -37 47 -47 1912 -21 3333 46 542 26 1658 72 2270
95 387 14 898 28 1290 35 458 8 653 24 613 48 -21 13 -128 37 -168 38 l-40 1
35 10 c19 5 40 14 45 20 7 7 -52 8 -195 4 l-205 -7 0 178 c0 98 -6 581 -13
1073 -6 492 -16 1442 -22 2110 -10 1243 -23 1890 -41 2034 -13 106 -48 256
-60 256 -11 0 -11 -174 1 -445 15 -345 30 -1408 40 -3015 9 -1286 17 -1847 32
-2140 l3 -55 -180 -12 c-99 -6 -265 -14 -370 -19 l-190 -7 0 566 c0 530 -1
567 -18 584 -15 16 -41 18 -190 21 -176 4 -393 -11 -447 -29 -19 -7 -33 -20
-38 -37 -4 -15 -7 -209 -6 -432 1 -304 5 -441 17 -549 9 -80 16 -146 14 -147
-4 -3 -869 -36 -872 -32 -12 14 -52 724 -65 1163 -5 176 -15 480 -21 675 -16
517 -7 2221 15 2700 26 598 25 1120 -3 1120 -14 0 -31 -146 -50 -434 -11 -159
-21 -290 -23 -291 -2 -2 -34 33 -73 77 -38 44 -148 156 -244 250 l-174 170 6
372 c3 229 1 378 -4 389 -14 24 -36 21 -43 -5z m-3407 -4342 l32 -33 -49 5
c-27 2 -59 -1 -70 -7 -19 -10 -21 -9 -16 6 23 73 52 81 103 29z m955 -12 c22
-8 20 -43 -4 -79 -14 -21 -20 -25 -20 -13 0 26 -42 48 -94 51 -25 1 -46 3 -46
4 0 2 17 11 38 22 37 20 96 27 126 15z m4587 -674 c26 0 30 -54 35 -535 3
-247 9 -476 13 -507 4 -32 5 -60 3 -63 -3 -3 -26 -5 -51 -5 l-46 0 0 457 c0
252 -3 505 -8 562 l-7 103 22 -6 c13 -3 30 -6 39 -6z m-5253 -1037 c-16 -2
-40 -2 -55 0 -16 2 -3 4 27 4 30 0 43 -2 28 -4z m223 -88 l74 -35 -95 3 c-82
2 -95 4 -98 20 -11 56 19 59 119 12z"/>
<path d="M1741 6679 c-13 -22 -21 -60 -26 -123 -9 -121 1 -1985 14 -2636 11
-530 18 -645 46 -740 45 -150 49 -84 36 623 -6 342 -11 1119 -11 1727 0 1077
-3 1180 -31 1180 -5 0 -18 -14 -28 -31z"/>
<path d="M7668 6299 c-102 -11 -127 -19 -140 -42 -17 -32 -23 -469 -9 -662 15
-198 24 -240 60 -274 15 -14 32 -35 39 -46 10 -19 20 -20 144 -19 154 1 272
18 298 44 14 14 18 46 24 216 10 296 9 716 -3 746 -7 20 -21 30 -51 38 -43 12
-251 11 -362 -1z m353 -129 c4 -36 7 -209 7 -385 0 -176 -3 -349 -7 -385 -6
-60 -8 -65 -31 -68 l-25 -3 -2 328 c-1 180 -6 383 -10 451 -5 68 -6 126 -4
128 3 3 19 4 36 2 29 -3 30 -5 36 -68z"/>
<path d="M6864 6291 c-136 -11 -168 -18 -189 -41 -35 -39 -30 -700 6 -871 8
-36 20 -59 45 -81 18 -17 31 -34 29 -39 -10 -14 88 -22 210 -16 142 7 217 22
238 45 13 14 17 77 25 372 5 195 6 408 3 472 -8 156 -9 157 -156 162 -61 3
-156 1 -211 -3z m295 -76 c7 -8 8 -881 1 -888 -3 -3 -20 -8 -38 -12 l-32 -7 6
54 c7 57 -8 328 -31 573 -8 83 -18 183 -21 224 l-7 74 57 -6 c32 -3 61 -9 65
-12z"/>
<path d="M2965 5752 c-33 -75 -23 -2188 11 -2276 9 -22 21 -20 39 8 14 21 15
107 7 822 -4 440 -6 918 -4 1064 3 226 1 273 -13 327 -19 69 -29 82 -40 55z"/>
<path d="M5425 5624 c-84 -11 -136 -27 -145 -44 -17 -31 -24 -400 -11 -559 16
-196 24 -226 70 -271 33 -32 49 -40 111 -50 40 -7 111 -10 157 -8 129 7 119
-21 131 383 10 380 5 506 -21 533 -15 14 -39 17 -140 18 -67 1 -135 0 -152 -2z
m248 -119 c5 -27 7 -207 5 -398 -3 -360 -4 -366 -43 -367 -6 0 -10 91 -10 253
0 138 -4 323 -8 410 l-8 158 28 -3 c25 -3 29 -8 36 -53z"/>
<path d="M4452 5598 c-87 -16 -86 -13 -86 -342 0 -344 19 -506 60 -506 8 0 14
-7 14 -15 0 -31 48 -48 148 -53 108 -5 202 10 225 36 12 14 17 76 26 338 13
388 8 498 -26 532 -22 22 -28 23 -165 21 -79 -1 -167 -6 -196 -11z m322 -95
c3 -21 6 -197 6 -391 l0 -353 -35 -15 c-64 -26 -60 -45 -61 324 0 187 -4 369
-8 405 l-7 67 49 0 c49 0 49 0 56 -37z"/>
<path d="M3566 5590 c-76 -10 -122 -25 -130 -45 -13 -34 -17 -402 -7 -545 16
-203 23 -234 69 -281 34 -35 43 -39 117 -48 126 -15 258 8 269 48 11 37 25
671 17 754 -11 120 -13 121 -154 124 -62 1 -143 -2 -181 -7z m265 -95 c4 -16
7 -192 8 -391 l1 -361 -25 -11 c-14 -7 -27 -12 -28 -12 -1 0 -2 91 -2 202 0
112 -4 294 -8 406 l-8 203 28 -3 c22 -2 29 -9 34 -33z"/>
<path d="M7615 4609 c-100 -15 -98 -8 -103 -296 -6 -367 18 -660 57 -670 9 -2
27 -19 39 -38 20 -29 30 -34 75 -37 66 -5 258 8 319 23 80 18 76 2 85 389 4
190 6 403 3 473 -7 175 4 167 -234 166 -99 -1 -208 -5 -241 -10z m406 -124 c9
-81 11 -629 3 -743 -6 -71 -10 -91 -23 -95 -14 -3 -16 12 -12 147 3 148 -14
643 -25 719 -6 38 -5 38 22 35 27 -3 29 -6 35 -63z"/>
<path d="M6790 4600 c-95 -13 -108 -18 -122 -43 -20 -34 -16 -666 4 -811 16
-109 16 -110 59 -149 l42 -39 176 4 c193 5 256 20 266 62 10 40 22 711 16 828
-9 160 2 153 -209 155 -92 1 -196 -3 -232 -7z m372 -120 c8 -73 10 -700 2
-778 -5 -44 -11 -63 -23 -66 -9 -2 -26 -7 -38 -11 -20 -5 -21 -4 -12 32 15 68
5 624 -16 831 l-5 53 42 -3 43 -3 7 -55z"/>
<path d="M5461 4240 c-94 -10 -136 -24 -147 -48 -13 -31 -17 -457 -5 -590 13
-151 30 -218 53 -216 9 1 19 -9 22 -21 11 -42 75 -57 219 -53 112 3 129 5 147
24 20 20 21 31 23 442 2 504 14 463 -135 468 -51 1 -131 -1 -177 -6z"/>
<path d="M4525 4219 c-110 -15 -112 -17 -120 -156 -10 -152 1 -507 18 -601 15
-82 34 -106 117 -143 39 -18 61 -20 157 -17 95 3 116 6 140 24 l28 21 8 194
c4 107 6 296 5 421 -3 203 -5 229 -21 245 -15 15 -37 18 -140 20 -67 1 -153
-3 -192 -8z"/>
<path d="M3650 4211 c-113 -10 -145 -18 -165 -41 -15 -17 -18 -50 -23 -237 -7
-313 18 -566 57 -581 9 -3 24 -16 34 -28 22 -28 101 -46 216 -48 98 -1 148 14
157 49 3 12 6 207 7 433 2 486 12 448 -118 456 -44 2 -118 1 -165 -3z m218
-76 c11 -11 8 -783 -3 -794 -5 -5 -26 -12 -45 -16 l-35 -6 3 223 c2 123 -1
306 -6 408 -5 102 -7 189 -4 194 5 9 79 2 90 -9z"/>
<path d="M5450 2880 c-63 -8 -95 -22 -104 -46 -13 -35 -18 -412 -7 -553 15
-185 24 -226 63 -266 39 -42 125 -61 231 -50 90 9 135 27 141 57 9 46 38 685
34 757 -6 106 -14 111 -177 110 -69 -1 -151 -5 -181 -9z m286 -447 c-6 -344
-9 -389 -23 -400 -9 -7 -24 -13 -32 -13 -14 0 -16 37 -17 318 0 174 -4 354 -8
400 l-6 82 46 0 47 0 -7 -387z"/>
<path d="M4600 2870 c-98 -10 -135 -21 -149 -48 -28 -53 -21 -601 9 -738 12
-54 53 -109 93 -125 38 -16 262 -6 310 14 l35 15 7 209 c11 280 11 570 2 615
-5 23 -16 42 -29 49 -28 15 -170 20 -278 9z m244 -108 c3 -20 6 -193 6 -383 0
-296 -2 -348 -15 -359 -8 -7 -15 -9 -15 -4 -1 5 -1 83 0 174 0 91 -4 263 -10
383 -5 121 -8 223 -5 228 12 18 33 -4 39 -39z"/>
<path d="M3620 2851 c-74 -11 -98 -19 -109 -40 -28 -52 -21 -608 10 -751 11
-53 46 -86 101 -97 18 -3 35 -9 38 -13 9 -13 271 7 285 21 16 17 39 605 28
748 -9 135 -10 136 -170 138 -70 0 -153 -2 -183 -6z m281 -91 c4 -14 7 -188 8
-386 l1 -362 -22 -6 c-13 -3 -27 -6 -33 -6 -6 0 -10 108 -11 303 0 166 -4 344
-8 395 l-7 93 33 -3 c25 -2 34 -9 39 -28z"/>
</g>
</svg>
