<?xml version="1.0" standalone="no"?>
<!DOCTYPE svg PUBLIC "-//W3C//DTD SVG 20010904//EN"
 "http://www.w3.org/TR/2001/REC-SVG-20010904/DTD/svg10.dtd">
<svg version="1.0" xmlns="http://www.w3.org/2000/svg"
 width="1040.000000pt" height="1041.000000pt" viewBox="0 0 1040.000000 1041.000000"
 preserveAspectRatio="xMidYMid meet">

<g transform="translate(0.000000,1041.000000) scale(0.100000,-0.100000)"
fill="#000000" stroke="none">
<path d="M6098 8287 c-35 -32 -48 -144 -24 -201 9 -21 21 -36 28 -34 7 3 17
33 24 69 6 35 17 85 24 110 22 76 -3 102 -52 56z"/>
<path d="M5884 8195 c-3 -8 12 -43 33 -77 43 -68 84 -101 104 -81 20 20 0 67
-52 121 -51 53 -75 64 -85 37z"/>
<path d="M5748 7954 c-30 -16 -36 -32 -15 -39 6 -2 57 -6 113 -9 75 -5 105 -3
118 7 17 13 17 15 -9 35 -23 18 -40 22 -104 22 -48 -1 -86 -6 -103 -16z"/>
<path d="M6312 7745 c-15 -32 -15 -167 -2 -217 6 -21 26 -58 45 -82 l34 -45
-29 5 c-39 8 -96 -3 -115 -22 -21 -21 -19 -67 5 -114 33 -64 171 -160 253
-175 20 -4 37 -12 37 -17 0 -6 -10 -8 -22 -4 -164 44 -291 45 -396 3 -153 -63
-282 -168 -327 -268 -15 -34 -41 -130 -58 -213 -17 -83 -32 -153 -34 -155 -2
-3 -35 9 -73 26 -49 22 -70 27 -70 18 0 -20 68 -75 126 -102 66 -30 224 -70
310 -79 85 -9 98 -22 91 -90 -5 -50 -13 -88 -73 -329 -36 -149 -43 -296 -16
-345 55 -101 264 -121 589 -55 211 43 450 129 440 158 -7 24 -69 18 -174 -18
-226 -76 -426 -115 -594 -115 -103 0 -155 11 -190 39 -18 14 -23 31 -27 80 -6
78 6 138 74 382 90 323 88 332 -59 347 -49 6 -90 11 -92 14 -6 6 24 135 40
175 21 51 63 93 92 93 30 0 72 21 97 49 26 28 55 26 134 -8 98 -43 132 -47
165 -21 15 12 31 19 37 15 18 -11 50 15 50 41 0 67 -131 222 -205 243 -47 13
-85 14 -103 2 -17 -11 -2 -22 62 -46 27 -10 66 -35 88 -58 68 -70 61 -79 -17
-23 -82 60 -125 72 -210 61 -52 -6 -83 -25 -71 -43 3 -5 39 -12 79 -15 45 -3
90 -13 113 -25 51 -27 111 -78 102 -87 -4 -4 -37 4 -73 19 -93 37 -141 35
-192 -9 -23 -19 -56 -38 -75 -41 -18 -4 -43 -13 -55 -20 -34 -21 -72 -95 -88
-170 -20 -99 -53 -120 -147 -94 -33 10 -36 13 -29 33 5 13 19 72 31 132 28
139 55 221 87 263 37 49 135 118 233 166 82 40 88 41 180 40 102 -1 202 -22
285 -60 l50 -22 -75 5 c-41 3 -86 0 -100 -5 l-25 -10 30 -12 c17 -6 75 -21
131 -32 88 -18 104 -19 130 -7 60 29 30 84 -70 125 -26 11 -46 26 -46 34 0 48
162 217 259 271 93 52 121 87 59 74 -81 -18 -226 -113 -305 -199 -38 -42 -46
-46 -88 -46 -96 0 -214 83 -240 169 l-7 24 73 -5 c50 -3 96 -14 139 -32 81
-35 100 -37 110 -11 6 15 -2 36 -28 79 -44 71 -54 151 -28 241 17 57 17 57 38
39 12 -11 42 -50 67 -89 57 -89 118 -155 142 -155 25 0 19 13 -69 153 -108
171 -152 207 -194 160 -26 -29 -58 -150 -58 -219 0 -51 -3 -64 -16 -64 -55 0
-94 70 -102 182 -6 89 -5 89 71 40 57 -38 55 -20 -3 42 -59 63 -90 71 -108 31z"/>
<path d="M7814 7576 c-110 -35 -248 -133 -334 -239 -143 -175 -159 -346 -40
-420 31 -20 48 -22 150 -21 94 1 131 6 205 28 106 32 258 103 298 140 18 17
29 21 32 13 2 -6 11 -38 19 -69 19 -68 68 -135 121 -166 33 -18 52 -22 107
-20 56 3 67 0 63 -12 -24 -80 -31 -185 -19 -263 9 -52 62 -137 103 -164 27
-19 48 -23 104 -23 67 0 71 -1 108 -39 32 -32 39 -46 39 -78 0 -51 -33 -100
-84 -126 -28 -15 -65 -21 -139 -25 l-101 -5 31 -26 32 -26 -54 -29 c-107 -55
-250 -194 -328 -317 -45 -71 -66 -120 -81 -194 -12 -57 -14 -60 -49 -67 -49
-10 -145 -65 -152 -87 -6 -20 3 -51 15 -51 5 0 23 12 41 27 36 30 95 37 122
14 9 -7 29 -37 46 -66 34 -60 83 -103 188 -164 151 -89 194 -174 237 -472 9
-59 16 -139 16 -179 0 -40 11 -118 24 -178 38 -165 54 -262 75 -457 38 -340
44 -461 45 -815 1 -245 5 -361 12 -374 10 -17 13 -13 23 34 20 91 34 406 27
610 -9 302 -51 740 -83 868 -4 19 -1 18 29 -12 45 -45 80 -54 125 -32 40 19
72 80 73 141 l1 40 30 -62 c48 -100 111 -137 167 -97 30 21 55 73 81 173 37
138 56 161 81 101 7 -17 26 -49 41 -70 32 -44 67 -52 107 -24 66 46 68 143 11
449 -33 179 -42 250 -46 380 l-5 160 75 295 c115 453 150 674 150 940 -1 468
-165 778 -494 935 -165 78 -389 88 -584 24 -71 -22 -144 -77 -123 -90 7 -5 9
-9 5 -9 -5 0 -36 24 -69 54 -137 124 -338 184 -474 142z m-94 -124 c-90 -62
-173 -176 -210 -291 -17 -53 -21 -87 -18 -135 4 -60 2 -64 -14 -55 -90 48 -55
206 75 346 57 61 170 154 186 152 3 0 -5 -8 -19 -17z"/>
<path d="M7730 6881 c-14 -28 -15 -27 35 -61 25 -17 45 -39 45 -49 0 -18 -108
-103 -151 -119 -51 -19 -65 17 -29 76 26 42 26 72 0 72 -26 0 -70 -76 -70
-122 0 -20 9 -46 20 -60 l20 -26 -41 -28 c-53 -37 -71 -71 -59 -114 13 -46 38
-70 72 -70 33 0 34 5 8 48 -11 18 -20 39 -20 47 0 14 99 93 205 164 81 54 115
91 115 123 0 45 -26 85 -73 113 -52 30 -63 31 -77 6z"/>
<path d="M7533 6828 c-45 -47 -136 -196 -171 -281 -105 -252 -71 -516 89 -691
l51 -56 -45 -49 c-58 -62 -90 -126 -111 -224 -17 -76 -15 -130 6 -143 13 -8
28 14 28 43 0 11 11 54 25 94 25 75 65 128 119 156 33 17 53 14 156 -23 67
-24 84 -26 160 -20 142 11 205 37 123 51 -272 47 -371 93 -471 220 -113 144
-151 318 -108 500 21 89 86 225 164 344 34 51 62 97 62 102 0 21 -49 6 -77
-23z"/>
<path d="M8013 6770 c-28 -11 -31 -55 -5 -68 9 -5 37 -12 61 -15 33 -4 52 -14
79 -42 37 -38 74 -44 80 -13 5 25 -62 93 -121 122 -55 28 -61 29 -94 16z"/>
<path d="M7845 6614 c-61 -66 -56 -152 11 -180 43 -18 68 -18 131 1 64 19 97
44 88 68 -9 22 -23 22 -76 -3 -112 -50 -182 0 -107 77 26 27 30 37 22 50 -18
29 -34 26 -69 -13z"/>
<path d="M5457 6383 c-43 -100 -77 -307 -97 -588 -28 -394 42 -685 201 -830
171 -157 494 -236 834 -206 184 17 341 57 332 85 -6 18 -85 18 -212 0 -142
-22 -372 -24 -490 -5 -253 41 -438 148 -513 297 -110 217 -129 524 -62 1004
21 153 33 280 27 280 -2 0 -11 -17 -20 -37z"/>
<path d="M7570 6145 c-19 -23 -4 -44 46 -66 34 -15 56 -19 83 -14 54 10 91 35
91 62 0 27 -21 30 -71 9 -38 -16 -82 -11 -100 10 -15 18 -33 18 -49 -1z"/>
<path d="M7182 5335 c-33 -18 -67 -72 -92 -146 -33 -99 -48 -120 -377 -516
-170 -204 -270 -366 -308 -497 -18 -61 -12 -81 21 -74 12 2 32 37 61 102 54
125 138 250 294 441 285 348 392 512 419 640 6 31 10 58 8 59 -1 2 -13 -3 -26
-9z"/>
<path d="M1506 5051 c-14 -32 -26 -64 -26 -70 0 -20 -18 -12 -106 46 -68 44
-96 57 -128 57 -38 1 -41 -1 -53 -35 -6 -20 -17 -83 -23 -140 -6 -57 -13 -109
-15 -116 -3 -8 -28 -1 -80 23 -87 40 -138 43 -143 8 -8 -58 86 -223 186 -327
119 -123 230 -179 353 -179 l76 -1 63 -94 c106 -158 200 -391 264 -656 34
-140 49 -249 61 -457 6 -98 27 -180 46 -180 16 0 22 77 16 209 -19 414 -149
861 -329 1127 l-54 82 33 26 c108 87 132 311 62 591 -25 99 -44 132 -66 114
-18 -16 -14 -108 12 -244 22 -115 16 -215 -18 -287 -46 -101 -109 -141 -218
-141 -87 0 -148 33 -250 133 -74 72 -159 189 -159 217 0 17 -3 18 83 -17 42
-16 80 -30 87 -30 19 0 37 61 50 168 12 109 17 132 30 132 4 0 50 -29 103 -65
107 -72 137 -79 164 -39 19 30 33 204 16 204 -6 0 -22 -26 -37 -59z"/>
<path d="M4611 5020 c-219 -46 -720 -435 -1315 -1020 -441 -435 -709 -752
-723 -857 -9 -66 53 -162 185 -288 l65 -63 -68 -118 c-72 -127 -116 -188 -145
-204 -10 -6 -97 -19 -192 -30 -95 -11 -209 -28 -253 -37 -67 -13 -120 -15
-321 -10 -197 5 -245 4 -260 -8 -10 -7 -16 -16 -13 -20 9 -8 223 -24 333 -25
87 0 88 0 81 -22 -4 -13 -8 -41 -9 -62 -1 -34 4 -43 31 -62 l32 -21 -82 -7
c-122 -10 -122 -20 3 -36 102 -13 829 -26 883 -16 29 5 37 11 33 22 -8 21 22
76 119 224 45 69 93 144 106 167 l24 41 95 -54 c180 -103 277 -125 352 -81 67
39 263 247 483 513 110 132 259 312 332 400 73 87 163 192 200 233 l68 74 241
-269 c756 -843 1214 -1239 1506 -1300 63 -13 114 -14 383 -4 171 6 330 14 355
18 l45 8 -45 9 c-25 4 -96 11 -159 14 l-114 6 44 24 c184 100 358 287 454 485
48 101 105 261 105 298 0 31 -18 102 -47 186 -37 106 -177 275 -356 429 -225
194 -547 433 -585 433 -14 0 -45 -17 -73 -41 l-49 -41 -62 45 c-61 43 -113 87
-443 372 -551 477 -878 677 -1140 699 -33 3 -80 1 -104 -4z m-1704 -2299 c55
-40 80 -75 98 -135 l15 -50 -34 -56 c-18 -30 -53 -92 -76 -137 -31 -61 -48
-83 -62 -83 -11 0 -66 -10 -121 -22 -91 -20 -130 -23 -352 -22 -194 0 -259 3
-290 14 -81 30 -30 75 121 108 93 20 136 27 343 52 98 12 117 22 170 93 46 61
131 222 131 249 0 25 10 23 57 -11z m-82 -561 c-5 -16 -12 -20 -28 -16 -12 3
-42 6 -67 7 -25 0 -38 3 -30 6 19 8 124 30 128 27 2 -1 1 -12 -3 -24z"/>
<path d="M2380 4831 c-19 -36 -4 -223 22 -273 17 -33 52 -20 129 47 82 71 96
67 59 -19 -11 -26 -23 -65 -26 -86 -6 -36 -4 -40 20 -46 15 -3 45 -4 67 -1 45
6 47 1 19 -61 -22 -48 -121 -157 -163 -178 -15 -8 -50 -19 -78 -24 -70 -14
-120 3 -166 53 l-35 40 4 106 c4 82 12 126 35 196 35 104 56 185 50 192 -11
11 -78 -117 -107 -205 -24 -70 -34 -122 -37 -187 -6 -107 6 -162 47 -209 l30
-33 -39 -84 c-45 -99 -93 -244 -114 -349 -39 -192 -46 -408 -16 -474 l14 -29
6 24 c4 13 7 66 8 117 2 190 46 401 134 637 l45 119 83 1 c76 0 90 3 149 35
123 66 300 267 300 341 0 34 -14 39 -101 39 -38 0 -69 4 -69 8 0 5 11 42 25
82 30 88 31 111 7 133 -39 35 -78 21 -166 -60 -32 -30 -60 -53 -61 -51 -2 2
-8 41 -15 86 -16 119 -36 157 -60 113z"/>
<path d="M7863 4283 c2 -48 -1 -69 -7 -63 -21 21 -23 8 -10 -62 33 -184 8
-458 -65 -708 -21 -74 -51 -189 -66 -255 -34 -153 -54 -200 -89 -209 -15 -4
-31 -4 -37 -1 -5 4 -24 3 -41 -1 l-32 -6 23 -19 c52 -42 133 -32 171 21 10 15
36 83 55 151 20 68 53 179 73 246 19 68 37 122 38 120 4 -3 -15 -351 -32 -597
-17 -255 -13 -328 21 -368 23 -26 26 -27 138 -27 l115 0 6 -76 c8 -102 32
-176 66 -211 l28 -28 -34 0 c-45 0 -124 -20 -124 -31 0 -13 52 -18 287 -24
214 -6 223 -5 242 14 17 17 26 19 46 11 60 -23 146 -30 189 -15 22 8 53 15 68
15 71 0 79 41 17 93 -62 54 -173 109 -211 105 -47 -5 -45 -24 4 -40 44 -16
152 -80 163 -98 11 -17 -18 -11 -39 9 -12 10 -52 35 -90 55 -60 32 -77 36
-125 34 -31 -2 -55 -7 -55 -13 1 -5 35 -21 75 -35 78 -26 149 -65 149 -81 0
-16 -143 23 -282 77 -48 19 -100 34 -114 34 -25 0 -26 -1 -11 -18 9 -10 44
-33 77 -52 65 -36 76 -52 33 -45 -192 30 -237 49 -270 115 -12 25 -25 71 -29
103 -6 51 -4 60 16 82 26 28 95 45 183 45 58 0 63 -2 79 -30 20 -35 155 -102
258 -127 36 -9 90 -30 120 -48 69 -39 88 -46 95 -35 17 27 -110 115 -205 140
-57 15 -218 92 -203 97 6 2 34 0 62 -5 56 -10 68 -4 51 29 -28 51 -144 66
-360 44 -317 -31 -303 -30 -334 -3 -39 33 -45 82 -35 282 23 467 39 974 34
1081 -8 151 -29 273 -61 344 l-25 56 4 -72z"/>
<path d="M9435 3739 c-74 -26 -129 -62 -169 -112 -39 -49 -43 -119 -10 -164
17 -23 104 -70 178 -96 4 -1 -12 -32 -37 -67 -51 -74 -128 -224 -164 -320 -40
-106 -93 -343 -100 -447 -6 -93 -7 -96 -22 -72 -68 107 -151 119 -151 22 0
-43 47 -199 80 -263 39 -78 123 -148 104 -87 -3 12 -17 41 -31 63 -24 42 -74
173 -87 229 -7 29 -7 29 13 11 18 -16 78 -144 112 -241 10 -27 21 -40 33 -40
20 0 21 1 61 88 20 43 42 70 84 103 31 24 59 44 63 44 4 0 -22 -50 -58 -112
-63 -110 -78 -158 -50 -158 8 0 28 22 46 49 35 56 93 112 140 136 l31 16 -47
-86 c-25 -47 -44 -92 -41 -99 4 -11 25 -13 98 -9 107 6 174 23 174 43 0 12
-21 16 -93 20 l-93 5 42 65 c54 83 72 127 65 156 -8 31 -47 40 -87 20 -18 -9
-33 -16 -34 -16 -1 0 -2 17 -1 38 1 34 -2 37 -28 40 -15 2 -40 1 -53 -3 -35
-8 -116 -87 -163 -158 -31 -46 -41 -55 -46 -42 -14 36 5 300 30 420 38 181 77
288 170 467 l84 163 58 -25 c199 -83 474 47 478 227 1 35 -5 48 -33 77 -20 21
-55 42 -85 52 -28 9 -57 21 -63 27 -9 6 -13 5 -13 -4 1 -19 17 -38 73 -82 57
-46 59 -67 15 -133 -47 -70 -119 -104 -230 -111 -82 -5 -87 -4 -174 34 -49 22
-107 46 -129 53 -91 29 -109 83 -49 150 76 84 224 122 314 81 52 -23 74 -13
44 20 -48 53 -143 64 -249 28z"/>
<path d="M9545 3627 c-40 -18 -58 -42 -51 -65 11 -33 53 -47 139 -47 67 1 81
4 93 20 35 47 -13 96 -98 102 -31 2 -66 -2 -83 -10z m132 -53 c3 -8 -8 -9 -37
-4 -57 10 -64 22 -11 18 25 -2 46 -8 48 -14z"/>
<path d="M2285 3423 c-12 -30 -27 -416 -22 -572 l5 -144 -221 7 c-122 3 -237
9 -255 12 -61 12 -100 66 -255 353 -76 140 -148 221 -196 221 -48 0 -67 -15
-87 -65 -44 -116 32 -451 121 -535 14 -13 25 -19 25 -13 0 6 -16 61 -35 122
-48 155 -68 260 -63 342 9 159 69 106 223 -197 100 -198 161 -277 223 -294 21
-5 124 -14 230 -19 188 -9 195 -10 240 -38 35 -22 54 -43 75 -86 28 -55 43
-67 63 -48 5 5 65 15 133 22 111 11 127 15 148 37 25 27 123 213 123 234 0 7
-30 43 -66 78 -122 119 -186 247 -165 327 12 43 78 152 119 196 16 16 22 31
16 36 -5 5 -70 14 -144 21 -74 7 -156 15 -181 17 -38 4 -48 1 -54 -14z"/>
<path d="M4334 3218 c-399 -532 -668 -830 -778 -859 -77 -21 -221 15 -356 88
-38 20 -72 35 -74 32 -21 -21 -155 -274 -148 -281 12 -12 1326 -30 2192 -31
593 -1 738 2 798 14 l73 14 -83 68 c-327 271 -800 728 -948 917 -54 69 -114
141 -134 159 -20 19 -36 41 -36 48 0 10 -39 13 -184 13 l-185 0 -137 -182z"/>
<path d="M1170 2727 c-14 -7 -40 -35 -58 -62 -33 -51 -92 -216 -92 -260 0 -45
-17 -35 -65 38 -160 240 -253 315 -302 241 -15 -23 -15 -33 -4 -87 15 -74 100
-255 164 -350 l46 -68 -204 3 c-157 2 -207 0 -217 -10 -22 -22 6 -29 170 -38
242 -14 338 -12 357 7 23 22 7 56 -45 98 -72 57 -190 260 -190 325 0 19 4 37
9 40 15 9 78 -69 166 -203 45 -70 95 -135 110 -145 25 -17 27 -17 40 0 7 10
15 45 18 79 7 76 36 154 83 225 l35 55 -5 -90 c-3 -49 -10 -139 -16 -200 -5
-60 -6 -113 -1 -118 18 -18 42 10 90 106 28 56 66 123 86 150 38 50 117 115
123 98 2 -5 -17 -49 -41 -98 -66 -131 -97 -216 -97 -263 0 -38 2 -41 16 -29
19 16 198 381 221 451 14 44 14 50 -1 73 -31 47 -81 28 -167 -61 -30 -33 -77
-92 -104 -132 -26 -40 -49 -71 -50 -70 -1 2 3 42 8 89 12 101 3 173 -24 200
-22 22 -26 23 -59 6z"/>
</g>
</svg>
