<?xml version="1.0" standalone="no"?>
<!DOCTYPE svg PUBLIC "-//W3C//DTD SVG 20010904//EN"
 "http://www.w3.org/TR/2001/REC-SVG-20010904/DTD/svg10.dtd">
<svg version="1.0" xmlns="http://www.w3.org/2000/svg"
 width="520.000000pt" height="520.000000pt" viewBox="0 0 520.000000 520.000000"
 preserveAspectRatio="xMidYMid meet">

<g transform="translate(0.000000,520.000000) scale(0.100000,-0.100000)"
fill="#000000" stroke="none">
<path d="M1377 4654 c-4 -4 -4 -26 -1 -48 9 -72 14 -87 26 -80 7 4 8 27 5 62
-6 54 -17 79 -30 66z"/>
<path d="M1939 4601 c-16 -16 -29 -37 -29 -45 0 -20 0 -20 -38 -1 -80 40 -188
27 -252 -31 -67 -60 -78 -151 -27 -217 l25 -33 -29 -32 c-16 -17 -31 -43 -35
-57 -8 -33 22 -84 65 -109 48 -28 165 -26 246 3 32 11 72 21 87 21 19 0 28 5
28 16 0 8 25 38 56 66 67 62 106 116 130 184 15 45 16 55 4 84 -33 79 -136
138 -186 105 -13 -8 -24 -24 -24 -35 0 -11 -4 -20 -10 -20 -17 0 -11 66 8 82
51 45 129 20 187 -61 20 -28 39 -51 41 -51 12 0 0 32 -27 73 -56 85 -164 114
-220 58z m-74 -72 c63 -30 64 -39 2 -18 -145 50 -261 -7 -261 -128 0 -29 -4
-47 -8 -40 -15 24 -8 99 12 132 44 71 165 96 255 54z m-236 -308 c-33 -34 -35
-49 -13 -94 l17 -32 -27 24 c-35 33 -34 71 4 111 16 17 34 29 39 26 5 -4 -4
-19 -20 -35z"/>
<path d="M2260 4522 c-26 -13 -39 -29 -54 -67 -25 -65 -27 -203 -3 -259 10
-21 17 -40 17 -42 0 -2 -17 -2 -38 2 -41 6 -117 -10 -128 -27 -11 -19 16 -27
58 -16 28 7 51 6 79 -2 22 -7 43 -10 48 -7 15 10 41 -42 41 -81 0 -80 57 -125
82 -66 17 40 48 73 69 73 23 0 59 -46 59 -75 0 -35 -42 -89 -80 -102 -30 -9
-32 -12 -16 -19 37 -14 88 25 113 86 12 30 23 49 23 43 1 -45 105 30 139 100
25 51 27 126 6 167 -19 37 -62 70 -91 70 -20 0 -24 5 -24 31 0 93 -55 168
-142 194 -67 20 -115 19 -158 -3z m135 -13 c25 -6 61 -26 82 -46 l38 -34 -36
25 c-50 36 -123 51 -184 38 -60 -13 -70 -8 -24 12 41 18 67 19 124 5z m214
-234 c28 -14 62 -77 60 -113 0 -9 -7 1 -15 23 -16 46 -56 85 -85 85 -11 0 -17
5 -14 10 8 14 21 13 54 -5z"/>
<path d="M1200 4386 c0 -12 47 -36 71 -36 20 0 7 20 -21 35 -36 19 -50 19 -50
1z"/>
<path d="M1760 3960 c0 -197 84 -348 260 -465 62 -41 70 -50 100 -120 18 -41
37 -72 42 -69 11 7 4 30 -29 105 -22 50 -34 63 -103 108 -166 108 -250 252
-250 431 0 36 -5 72 -10 80 -7 10 -10 -12 -10 -70z"/>
<path d="M2192 3976 c-17 -47 -46 -55 -81 -22 -30 29 -41 32 -41 13 0 -38 81
-72 116 -49 16 11 34 48 34 71 0 32 -15 25 -28 -13z"/>
<path d="M1840 3955 c0 -23 36 -68 61 -77 20 -7 28 -15 25 -27 -16 -59 -17
-83 -2 -106 19 -29 61 -33 107 -10 40 21 27 37 -16 19 -48 -20 -64 -18 -76 9
-9 19 -5 40 16 101 17 51 23 82 17 88 -6 6 -13 -1 -20 -21 -14 -41 -47 -41
-70 -1 -15 26 -42 42 -42 25z"/>
<path d="M2337 3703 c-28 -79 -20 -108 10 -35 16 39 22 67 16 73 -5 5 -16 -9
-26 -38z"/>
<path d="M3988 3740 c-53 -16 -95 -50 -122 -100 -15 -28 -26 -60 -24 -73 3
-18 8 -13 30 29 33 63 86 111 134 120 39 7 97 -6 129 -30 17 -12 12 -12 -35 1
-63 17 -118 8 -164 -28 -43 -34 -33 -54 13 -24 88 58 153 43 262 -61 42 -40
89 -76 103 -80 15 -3 67 -3 116 0 70 6 94 4 118 -8 64 -33 57 -113 -19 -206
-16 -19 -29 -42 -29 -52 0 -10 40 -51 89 -93 113 -97 171 -181 171 -247 -1
-43 -40 -110 -105 -177 -58 -61 -81 -92 -55 -76 12 8 91 -78 112 -123 22 -47
23 -150 3 -199 -21 -50 -76 -114 -134 -157 -26 -20 -117 -72 -202 -116 -85
-44 -160 -88 -166 -97 -24 -32 -13 -34 30 -5 23 16 103 57 177 91 163 75 215
108 270 167 62 68 85 124 85 214 0 90 -22 145 -84 210 l-41 43 55 58 c98 102
118 188 69 287 -24 48 -56 81 -194 201 -30 26 -33 32 -23 48 40 59 66 108 73
140 11 47 -7 100 -43 127 -26 19 -40 21 -143 18 -138 -3 -153 3 -212 84 -72
101 -158 140 -244 114z"/>
<path d="M2095 3670 c-10 -11 -31 -20 -47 -20 -37 0 -33 -24 4 -28 32 -4 89
41 72 58 -7 7 -16 5 -29 -10z"/>
<path d="M3508 3635 c-81 -55 -110 -198 -69 -335 17 -56 32 -81 70 -120 44
-47 71 -62 71 -41 0 5 -11 18 -24 28 -13 11 -39 46 -57 78 -31 55 -34 67 -34
140 1 125 38 190 122 214 52 15 101 -11 185 -99 52 -53 85 -80 100 -80 l22 0
-21 15 c-12 8 -46 51 -77 94 -69 99 -118 131 -197 131 -41 0 -63 -6 -91 -25z
m94 -6 c-58 -11 -96 -36 -121 -78 -11 -20 -21 -31 -21 -25 0 23 47 80 80 96
19 10 51 17 70 17 35 -1 35 -1 -8 -10z"/>
<path d="M2425 3444 c-5 -1 -22 -5 -37 -8 -17 -4 -38 -22 -57 -49 -16 -24 -49
-56 -73 -72 -23 -16 -37 -30 -30 -33 19 -6 80 36 109 76 39 54 52 62 100 62
76 0 114 -61 79 -128 -18 -34 -62 -75 -101 -95 -23 -12 -128 -37 -152 -37 -2
0 -1 -4 2 -10 18 -30 185 2 222 42 73 80 86 208 23 234 -24 10 -74 21 -85 18z"/>
<path d="M2005 3421 c-54 -23 -79 -103 -55 -175 15 -46 65 -96 95 -96 38 0 37
15 -2 41 -55 36 -76 71 -76 123 0 55 22 84 67 88 17 2 31 8 31 13 0 13 -35 16
-60 6z"/>
<path d="M2027 3332 c-19 -21 -22 -32 -7 -32 10 0 34 39 27 46 -2 2 -11 -4
-20 -14z"/>
<path d="M2427 3320 c6 -22 21 -35 29 -27 7 7 -15 47 -25 47 -5 0 -7 -9 -4
-20z"/>
<path d="M2353 3277 c4 -10 7 -23 7 -28 0 -5 5 -9 10 -9 16 0 12 26 -7 41 -15
12 -16 12 -10 -4z"/>
<path d="M2570 3222 c0 -12 23 -65 52 -119 137 -260 200 -392 223 -465 51
-162 56 -315 11 -380 -55 -82 -141 -101 -214 -48 -34 24 -89 100 -106 145 -2
6 -7 7 -11 3 -11 -10 13 -71 45 -114 25 -33 29 -49 30 -96 0 -32 5 -58 10 -58
6 0 10 20 10 45 0 50 1 51 34 30 72 -48 181 -16 226 65 23 41 25 55 25 170 0
145 -13 201 -81 360 -35 81 -232 458 -250 479 -2 2 -4 -5 -4 -17z"/>
<path d="M1888 3208 c-20 -17 -78 -103 -78 -117 0 -23 16 -8 49 45 18 30 39
58 47 61 15 6 19 23 6 23 -5 0 -15 -6 -24 -12z"/>
<path d="M1407 3146 c-54 -50 -92 -170 -177 -551 -34 -154 -66 -288 -71 -297
-5 -9 -25 -22 -45 -28 -52 -18 -94 -2 -195 71 -113 81 -135 92 -195 92 -66 0
-117 -30 -145 -85 -30 -59 -20 -83 13 -32 44 69 74 87 139 82 48 -3 67 -12
134 -58 44 -29 99 -69 124 -87 38 -29 51 -34 85 -31 23 3 49 8 58 12 15 7 15
2 -3 -53 -88 -283 -185 -377 -319 -308 -61 30 -84 73 -83 152 1 81 35 157 104
230 39 41 47 55 34 55 -27 0 -117 -96 -145 -155 -37 -75 -40 -175 -7 -236 l25
-46 -62 19 c-99 31 -158 11 -197 -68 -21 -44 -18 -78 3 -39 6 11 29 37 50 59
45 45 60 45 202 3 146 -44 222 -33 288 41 69 79 144 286 203 562 128 598 198
759 291 663 l26 -28 -7 25 c-18 63 -80 80 -128 36z"/>
<path d="M4179 3093 c-61 -52 -131 -235 -208 -552 -36 -142 -56 -182 -115
-216 -80 -47 -132 -34 -293 73 -96 64 -161 78 -218 48 -36 -20 -65 -64 -64
-98 0 -22 1 -22 12 -4 70 113 123 117 263 24 l77 -51 -29 -21 c-43 -31 -82
-74 -111 -124 -21 -35 -27 -62 -31 -121 -3 -67 -1 -82 22 -123 14 -27 23 -48
21 -48 -3 0 -34 11 -71 25 -76 29 -123 31 -164 10 -35 -18 -68 -63 -76 -104
-9 -44 10 -38 31 10 37 80 98 99 192 58 26 -11 86 -30 133 -41 121 -28 206
-14 279 48 l32 26 -6 -43 c-11 -79 -14 -85 -57 -109 l-43 -25 -387 -3 -387 -3
1 29 c1 16 -2 34 -6 41 -5 8 8 11 42 11 61 0 112 10 112 21 0 5 -98 9 -219 9
-120 0 -232 3 -248 6 l-30 6 5 74 c8 120 -17 149 -153 179 -33 8 -80 21 -103
30 -34 12 -52 13 -80 5 -21 -5 -105 -10 -188 -10 -195 0 -341 -15 -479 -50
-130 -32 -146 -39 -178 -83 -42 -56 -52 -102 -51 -242 1 -196 49 -432 145
-720 64 -192 93 -246 138 -261 35 -11 49 -31 50 -69 1 -17 -12 -24 -86 -43
-47 -12 -94 -28 -102 -36 -9 -8 -33 -17 -54 -21 -21 -4 -36 -12 -34 -19 6 -20
113 -30 218 -20 79 7 102 6 113 -4 23 -23 87 -24 204 -4 63 11 116 23 119 26
15 15 -10 16 -66 5 -72 -14 -147 -7 -169 15 -15 15 -15 17 1 34 28 28 129 22
196 -11 30 -15 55 -27 56 -27 1 0 10 36 20 79 21 92 20 91 59 111 38 19 57 52
106 184 79 208 159 562 176 776 4 52 9 89 11 83 3 -9 27 -13 69 -13 l64 0 0
-34 c0 -42 -14 -53 -80 -66 -29 -5 -55 -11 -59 -12 -17 -6 922 -12 1104 -7
116 3 212 4 214 3 2 -2 3 -149 2 -328 -2 -310 6 -440 30 -551 12 -51 37 -110
44 -103 2 2 -6 49 -18 103 -20 92 -22 125 -21 415 0 259 4 348 22 500 66 546
171 1013 279 1236 56 115 104 144 124 73 6 -20 7 -19 8 12 1 19 -4 40 -11 47
-20 20 -65 13 -99 -15z m-287 -959 c-31 -188 -41 -211 -109 -251 -38 -22 -52
-25 -113 -21 -63 3 -73 7 -106 38 -50 48 -64 80 -64 142 0 58 23 116 63 164
15 18 27 37 27 42 0 6 14 20 30 32 l31 22 49 -21 c64 -28 124 -27 175 3 22 12
41 22 42 21 2 -1 -10 -78 -25 -171z m-1792 -310 c0 -3 -11 -44 -25 -92 -62
-221 -127 -615 -129 -790 -1 -110 2 -118 62 -151 11 -6 13 -19 7 -58 l-7 -51
-66 -4 c-37 -3 -68 -5 -68 -4 -1 1 -4 23 -7 49 -4 39 -1 50 12 54 43 15 51 34
51 113 0 161 -58 633 -96 785 l-6 25 110 0 c61 0 113 4 116 9 9 14 -33 21
-136 21 l-97 0 -11 40 c-6 22 -8 45 -5 50 6 10 295 14 295 4z m665 -29 c-4
-40 -33 -65 -74 -65 l-37 0 1 45 0 45 57 0 c54 0 56 -1 53 -25z m142 15 c26 0
38 -31 23 -60 -9 -17 -20 -20 -86 -20 -73 0 -74 1 -64 21 7 11 9 32 5 46 -6
26 -6 26 47 20 29 -4 63 -7 75 -7z m-770 -1040 c21 0 21 0 6 -57 -9 -32 -18
-60 -19 -62 -2 -2 -24 5 -49 15 -43 18 -46 21 -41 48 3 16 6 38 6 49 0 17 5
19 38 13 20 -3 47 -6 59 -6z m-287 -57 c0 -84 -7 -100 -43 -107 -69 -14 -204
-19 -223 -8 -17 10 -15 12 21 27 21 10 66 22 98 28 33 6 61 16 64 23 2 7 0 28
-5 48 l-10 35 36 4 c21 2 43 4 50 5 8 1 12 -15 12 -55z"/>
<path d="M3672 2154 c-52 -36 -67 -113 -31 -158 18 -23 27 -27 68 -24 25 2 45
8 44 13 -2 6 -8 10 -14 10 -18 0 -39 37 -39 71 0 50 16 84 40 84 12 0 18 5 15
10 -9 15 -58 12 -83 -6z"/>
<path d="M2746 3062 c-6 -10 1269 -26 1285 -17 5 4 7 11 4 16 -8 11 -1282 12
-1289 1z"/>
<path d="M1541 2938 c2 -62 9 -116 14 -120 6 -4 24 -8 40 -8 33 -1 99 -27 75
-30 -8 -1 -36 -1 -62 0 -27 1 -48 -3 -48 -8 0 -12 35 -22 77 -22 17 0 35 -5
39 -11 4 -8 -9 -10 -42 -9 -27 2 -55 2 -62 1 -21 -2 -3 -21 21 -21 12 -1 36
-7 52 -15 29 -14 28 -15 -27 -9 -65 6 -76 -6 -29 -31 42 -21 49 -37 11 -23
-31 10 -54 3 -34 -10 6 -4 16 -47 22 -97 9 -65 17 -94 29 -103 27 -20 191
-112 219 -122 28 -11 32 -45 10 -88 -22 -43 -28 -72 -17 -72 12 0 45 62 55
103 6 27 9 28 49 22 l43 -7 -38 259 c-48 338 -48 338 -110 369 -47 24 -109 61
-215 130 -28 19 -57 34 -63 34 -9 0 -11 -30 -9 -112z"/>
<path d="M2133 2980 c-171 -77 -241 -120 -227 -141 8 -13 34 -162 54 -309 11
-80 25 -175 31 -212 l11 -68 43 0 c88 0 334 89 377 137 16 17 15 23 -3 88 -23
85 -23 85 -1 86 9 1 -3 6 -28 12 l-45 10 48 14 c26 8 47 18 47 22 0 5 -17 12
-37 16 -48 9 -113 35 -113 45 0 5 15 4 32 -1 43 -12 108 -12 108 1 0 6 -10 10
-23 10 -34 0 -127 29 -127 40 0 5 33 7 73 4 77 -5 73 5 -11 26 -23 6 -40 14
-38 19 8 12 137 -5 151 -20 7 -8 29 -58 49 -113 20 -54 43 -110 50 -125 16
-31 5 -79 -23 -105 -19 -17 -20 -17 -30 3 -6 11 -21 25 -32 31 -18 10 -17 6 7
-30 37 -56 61 -51 96 20 29 61 45 71 103 63 34 -5 38 -3 27 8 -8 9 -35 14 -69
14 -64 0 -60 -6 -113 146 -17 48 -36 94 -43 103 -7 9 -32 20 -57 24 -50 8 -47
2 -67 142 -7 50 -10 55 -41 64 -21 6 -31 14 -28 23 9 22 -12 15 -151 -47z"/>
<path d="M1400 2770 c0 -5 23 -10 50 -10 28 0 50 5 50 10 0 6 -22 10 -50 10
-27 0 -50 -4 -50 -10z"/>
<path d="M3072 2772 c-16 -11 296 -22 590 -22 137 0 208 4 206 10 -4 13 -777
24 -796 12z"/>
<path d="M2609 2583 c-12 -15 -12 -16 4 -10 10 4 33 7 50 7 24 0 28 3 17 10
-23 15 -56 12 -71 -7z"/>
<path d="M1351 2482 c-6 -2 -11 -8 -11 -13 0 -6 38 -9 93 -7 113 4 120 23 8
23 -43 1 -83 -1 -90 -3z"/>
<path d="M3035 2470 c-4 -6 11 -10 38 -10 24 0 72 -3 106 -6 52 -6 61 -5 61
10 0 14 -14 16 -99 16 -56 0 -103 -4 -106 -10z"/>
<path d="M3537 2473 c-8 -13 86 -23 209 -23 56 0 94 4 94 10 0 6 -36 10 -89
10 -48 0 -115 3 -148 6 -36 4 -63 3 -66 -3z"/>
<path d="M1620 2359 c0 -38 54 -97 101 -109 39 -11 89 0 89 20 0 6 -9 6 -26
-1 -43 -16 -89 6 -125 57 -31 45 -39 52 -39 33z"/>
<path d="M1291 2181 c-22 -14 7 -18 129 -17 158 1 162 20 5 23 -67 1 -127 -2
-134 -6z"/>
<path d="M902 2160 c-56 -34 -70 -113 -27 -155 27 -28 76 -33 95 -10 10 12 10
15 -3 15 -22 0 -47 39 -47 72 0 40 20 78 42 78 10 0 18 5 18 10 0 17 -43 11
-78 -10z"/>
<path d="M3026 2171 c-6 -10 224 -24 248 -15 9 3 13 10 10 15 -7 11 -251 12
-258 0z"/>
<path d="M1025 1854 c-36 -10 -40 -24 -7 -24 43 0 42 -26 -1 -68 l-33 -32
-120 0 c-86 0 -138 5 -187 19 -84 23 -93 5 -14 -30 50 -22 65 -23 354 -27 166
-2 314 -1 329 2 41 11 17 25 -54 32 -55 6 -60 9 -52 25 6 10 10 31 10 48 0 31
0 31 54 31 30 0 58 5 61 10 4 6 -19 10 -62 10 -37 0 -111 2 -163 5 -52 2 -104
2 -115 -1z m178 -46 c4 -12 1 -33 -6 -48 -11 -23 -18 -25 -91 -28 l-78 -3 20
28 c11 15 23 38 26 51 7 19 14 22 66 22 51 0 58 -3 63 -22z"/>
<path d="M784 1433 c-1 -175 -6 -268 -23 -398 -20 -151 -51 -328 -67 -377 -7
-25 13 -23 26 2 6 12 20 67 30 123 62 329 88 805 47 861 -9 13 -12 -35 -13
-211z"/>
<path d="M3467 1608 c4 -29 8 -156 8 -283 -1 -250 -9 -311 -67 -523 -17 -62
-28 -115 -25 -118 19 -19 85 212 108 376 17 124 18 490 1 547 -19 64 -34 65
-25 1z"/>
<path d="M1116 1562 c-28 -171 32 -782 77 -782 5 0 7 6 4 13 -12 32 -37 182
-47 281 -5 60 -10 201 -10 312 0 190 -10 261 -24 176z"/>
<path d="M3772 1300 c-16 -27 -71 -60 -98 -60 -12 0 -42 11 -68 25 -55 29 -56
29 -56 12 0 -22 74 -57 120 -57 46 0 103 29 120 60 21 39 5 56 -18 20z"/>
<path d="M1060 1260 c0 -5 -14 -17 -31 -26 -31 -16 -76 -15 -126 1 -36 12 -27
-10 12 -28 57 -27 113 -19 155 23 24 24 26 40 5 40 -8 0 -15 -4 -15 -10z"/>
<path d="M3140 835 c-7 -8 -10 -21 -7 -29 4 -10 -2 -16 -16 -18 -33 -5 -34
-48 -2 -87 21 -24 34 -31 63 -31 l37 1 -31 13 c-17 8 -39 24 -48 37 -32 46
-13 53 39 13 49 -37 62 -26 26 20 -36 45 -38 56 -12 56 24 0 78 -44 86 -70 8
-24 25 -26 25 -4 0 27 -40 83 -70 99 -37 19 -74 19 -90 0z"/>
<path d="M557 813 c-4 -3 -7 -24 -7 -45 0 -21 -2 -38 -3 -38 -2 0 -18 7 -34
15 -33 17 -63 11 -63 -11 0 -8 -9 -14 -20 -14 -28 0 -36 -27 -16 -49 28 -31
169 -60 151 -31 -3 6 -17 10 -30 10 -31 0 -105 29 -105 41 0 5 18 0 41 -11 48
-25 126 -25 120 0 -14 59 -13 90 3 96 23 9 27 3 33 -45 3 -23 10 -44 16 -48
18 -11 1 96 -18 117 -18 19 -55 27 -68 13z m-32 -113 c8 -13 -1 -13 -26 0 -10
6 -19 15 -19 21 0 11 35 -5 45 -21z"/>
</g>
</svg>
