<?xml version="1.0" standalone="no"?>
<!DOCTYPE svg PUBLIC "-//W3C//DTD SVG 20010904//EN"
 "http://www.w3.org/TR/2001/REC-SVG-20010904/DTD/svg10.dtd">
<svg version="1.0" xmlns="http://www.w3.org/2000/svg"
 width="520.000000pt" height="520.000000pt" viewBox="0 0 520.000000 520.000000"
 preserveAspectRatio="xMidYMid meet">

<g transform="translate(0.000000,520.000000) scale(0.100000,-0.100000)"
fill="#000000" stroke="none">
<path d="M241 4260 c-9 -23 -7 -2824 3 -2983 4 -76 10 -136 12 -134 3 2 8 24
13 48 l9 44 1 -39 c1 -22 4 -36 8 -33 3 4 8 564 11 1244 8 1760 8 1766 -2
1788 -8 17 -11 13 -16 -25 l-7 -45 -1 58 -2 57 83 -5 c45 -2 128 -7 185 -10
57 -3 876 -5 1820 -5 1585 1 2346 9 2497 26 149 18 -34 21 -716 12 -837 -11
-3733 -4 -3828 9 -53 8 -64 6 -70 -7z m36 -247 c-3 -10 -5 -2 -5 17 0 19 2 27
5 18 2 -10 2 -26 0 -35z m-10 -525 c-1 -40 -3 -8 -3 72 0 80 2 112 3 73 2 -40
2 -106 0 -145z m0 -231 c-2 -23 -3 -1 -3 48 0 50 1 68 3 42 2 -26 2 -67 0 -90z"/>
<path d="M2307 4194 c-4 -4 -7 -96 -7 -205 l0 -198 -952 -3 c-895 -3 -1060 -8
-963 -29 17 -4 454 -7 973 -8 l942 -1 0 -142 c0 -79 -9 -541 -20 -1028 -21
-961 -26 -1595 -11 -1605 21 -12 26 30 29 250 3 171 7 232 17 240 7 5 23 40
35 77 26 81 143 320 197 403 52 78 141 166 192 190 40 17 54 35 29 35 -35 -1
-99 -44 -154 -102 -94 -101 -201 -287 -275 -483 l-38 -100 -1 115 c0 63 7 412
15 775 7 363 17 820 21 1016 l7 356 261 6 c143 4 385 7 536 7 609 0 1635 31
1653 49 21 21 -85 24 -463 12 -471 -14 -1956 -35 -1975 -27 -10 3 -14 49 -17
188 -3 168 -12 231 -31 212z"/>
<path d="M4940 4002 c0 -10 -5 -23 -10 -28 -6 -6 -17 -159 -27 -365 -21 -458
-25 -1890 -5 -1896 6 -3 12 -12 12 -21 1 -15 2 -15 9 -2 5 8 11 375 14 815 4
539 11 903 22 1115 16 302 15 400 -6 400 -5 0 -9 -8 -9 -18z"/>
<path d="M3074 3622 c-87 -30 -164 -83 -259 -177 -235 -232 -376 -575 -363
-883 4 -120 30 -181 95 -226 37 -26 54 -30 125 -34 55 -2 99 2 131 11 l47 15
14 -31 c7 -18 21 -53 31 -79 17 -46 35 -63 35 -34 0 8 -20 66 -45 129 -79 202
-103 344 -68 410 21 42 94 140 99 134 2 -2 -11 -30 -31 -62 -19 -32 -38 -74
-41 -93 -12 -64 13 -182 39 -182 5 0 6 10 3 23 -32 110 -28 162 16 235 31 51
40 37 13 -20 -14 -29 -25 -66 -25 -81 0 -44 21 -115 38 -129 14 -12 14 -9 8
22 -22 96 -23 115 -14 139 5 15 14 37 19 50 16 39 20 18 8 -37 -15 -73 6 -137
86 -256 84 -127 100 -179 91 -308 -3 -58 -2 -98 3 -98 9 0 14 19 26 97 7 41 7
42 28 28 28 -19 90 -19 127 0 l30 16 0 -64 c0 -40 5 -70 15 -83 13 -17 14 -11
15 68 0 130 21 177 130 293 104 111 136 176 126 260 -4 33 -2 45 4 35 19 -30
21 -95 6 -145 -18 -58 -19 -65 -7 -65 15 0 43 83 43 130 0 25 -7 63 -16 84
-10 25 -13 43 -7 49 11 11 24 -11 44 -78 13 -47 13 -55 -9 -130 -12 -44 -21
-81 -19 -83 11 -11 25 15 45 80 19 64 21 79 11 123 -6 27 -22 69 -35 91 -13
24 -20 47 -16 54 9 15 48 -48 80 -129 16 -40 19 -65 14 -94 -11 -68 -51 -173
-120 -318 -37 -77 -64 -142 -61 -145 12 -12 25 8 57 80 l33 74 42 -19 c97 -43
247 -30 322 27 48 36 99 119 118 189 22 80 22 265 0 370 -65 313 -230 577
-415 664 -44 20 -71 25 -132 26 -56 0 -72 2 -60 10 9 5 45 9 80 8 60 -1 80 8
46 21 -52 20 -154 -6 -207 -52 -16 -14 -21 -12 -60 26 -61 60 -116 82 -207 81
-46 0 -95 -7 -126 -17z m253 -343 c17 -6 49 -23 71 -39 24 -17 58 -31 88 -35
122 -16 183 -63 204 -158 18 -76 6 -183 -21 -190 -10 -3 -22 -13 -25 -24 -3
-10 -15 -36 -25 -58 -14 -28 -19 -58 -18 -100 3 -87 -24 -139 -126 -248 -123
-131 -185 -157 -284 -119 -37 14 -49 26 -71 68 -14 28 -47 81 -73 117 -48 67
-78 133 -78 172 1 113 22 300 42 360 l23 70 7 -54 c7 -49 22 -81 34 -70 2 3 0
30 -7 60 -23 110 43 232 139 257 39 10 63 8 120 -9z"/>
<path d="M3165 3171 c-24 -10 -50 -39 -43 -46 3 -3 18 1 34 10 47 24 82 17
130 -27 34 -30 39 -4 7 31 -30 33 -91 48 -128 32z"/>
<path d="M3445 3100 c-23 -26 -15 -33 21 -20 40 15 71 5 89 -30 17 -32 35 -40
35 -15 0 25 -27 72 -45 79 -34 13 -82 6 -100 -14z"/>
<path d="M3245 2970 c-8 -49 -34 -84 -56 -75 -17 6 -39 46 -39 70 0 8 -7 15
-16 15 -13 0 -15 -6 -10 -27 18 -75 88 -109 121 -59 20 31 31 101 17 110 -6 3
-13 -10 -17 -34z"/>
<path d="M3387 2953 c-16 -15 -6 -73 17 -100 21 -24 27 -26 52 -18 32 11 74
67 74 98 0 16 -3 17 -15 7 -8 -7 -15 -18 -15 -24 0 -20 -47 -58 -67 -54 -14 2
-19 14 -21 51 -3 44 -10 56 -25 40z"/>
<path d="M3226 2831 c-20 -22 -26 -72 -8 -78 7 -3 12 5 12 20 0 24 23 57 39
57 4 0 17 -13 29 -30 13 -16 30 -30 38 -30 12 0 7 11 -16 40 -35 44 -66 52
-94 21z"/>
<path d="M3309 2628 c-18 -41 -58 -49 -89 -18 -12 12 -26 20 -33 17 -7 -2 -1
-14 15 -30 46 -46 115 -33 133 24 12 36 -10 42 -26 7z"/>
<path d="M4330 3579 c0 -5 5 -7 10 -4 6 3 10 8 10 11 0 2 -4 4 -10 4 -5 0 -10
-5 -10 -11z"/>
<path d="M882 3538 c2 -15 10 -23 23 -23 30 0 27 39 -3 43 -20 3 -23 0 -20
-20z"/>
<path d="M1790 3470 c0 -5 5 -10 10 -10 6 0 10 5 10 10 0 6 -4 10 -10 10 -5 0
-10 -4 -10 -10z"/>
<path d="M1400 3345 c-10 -12 -10 -18 0 -30 16 -19 39 -19 46 0 6 15 -11 45
-26 45 -4 0 -13 -7 -20 -15z"/>
<path d="M4285 3290 c-4 -7 -3 -16 3 -22 14 -14 45 -2 40 15 -6 16 -34 21 -43
7z"/>
<path d="M577 3254 c-4 -4 -7 -16 -7 -26 0 -13 7 -18 26 -18 21 0 25 4 22 22
-3 23 -27 35 -41 22z"/>
<path d="M1842 3163 c2 -10 10 -18 18 -18 8 0 16 8 18 18 2 12 -3 17 -18 17
-15 0 -20 -5 -18 -17z"/>
<path d="M1051 3131 c-15 -10 -8 -41 9 -41 15 0 25 29 14 40 -5 5 -15 5 -23 1z"/>
<path d="M4481 3096 c-9 -10 -8 -16 4 -26 19 -16 41 1 32 24 -8 20 -21 20 -36
2z"/>
<path d="M1535 3021 c-9 -16 3 -31 26 -31 14 0 19 6 17 17 -4 20 -33 29 -43
14z"/>
<path d="M970 2960 c0 -5 5 -10 10 -10 6 0 10 5 10 10 0 6 -4 10 -10 10 -5 0
-10 -4 -10 -10z"/>
<path d="M690 2900 c0 -5 5 -10 10 -10 6 0 10 5 10 10 0 6 -4 10 -10 10 -5 0
-10 -4 -10 -10z"/>
<path d="M1403 2610 c-46 -27 -86 -93 -87 -140 -1 -52 16 -52 31 -1 15 54 47
98 85 117 37 19 58 12 58 -19 0 -35 -35 -74 -103 -118 -64 -40 -87 -41 -87 -4
0 53 -85 118 -147 113 -33 -3 -38 -7 -41 -30 -4 -34 27 -65 97 -99 27 -13 48
-26 46 -30 -3 -3 -56 -8 -118 -11 -63 -3 -122 -11 -133 -17 -15 -10 6 -11 104
-7 l123 5 -3 -77 -3 -77 -87 3 c-89 4 -122 -3 -97 -19 8 -5 51 -9 97 -9 79 0
82 -1 82 -24 0 -13 3 -45 7 -71 l6 -48 -102 5 c-56 3 -104 7 -107 11 -3 3 -8
64 -11 135 -6 122 -13 165 -28 150 -3 -3 -2 -70 4 -149 7 -105 7 -147 -2 -157
-29 -36 78 -41 324 -17 185 19 231 41 63 30 -127 -7 -124 -10 -124 88 l0 47
74 0 c77 0 106 6 106 21 0 5 -36 6 -84 3 -46 -4 -85 -3 -87 2 -3 5 -3 41 -1
81 l4 72 51 5 c29 3 77 8 107 10 l55 6 -3 -108 c-4 -119 4 -212 19 -212 5 0 9
30 9 66 0 59 2 65 18 59 9 -3 36 -11 60 -18 40 -11 42 -13 42 -49 0 -30 -4
-38 -17 -38 -10 0 -35 -5 -57 -11 -57 -16 -32 -33 30 -19 31 7 55 8 69 2 11
-6 46 -18 78 -27 32 -10 56 -19 54 -22 -8 -7 -120 -21 -352 -43 -255 -24 -286
-28 -262 -41 9 -6 72 -3 159 6 196 21 180 24 176 -32 l-3 -48 -80 -8 c-44 -4
-110 -5 -147 -2 -38 3 -68 1 -68 -4 0 -19 67 -31 175 -31 l112 0 6 -137 c3
-76 3 -141 -1 -145 -4 -4 -76 -12 -160 -18 -135 -9 -203 -22 -189 -36 3 -3 51
0 108 5 57 6 201 10 319 9 198 -3 218 -1 254 17 49 25 55 41 21 57 l-26 12 4
155 c3 86 8 173 12 194 5 29 3 48 -11 76 -16 34 -25 39 -97 61 l-79 25 3 118
4 119 -80 44 c-70 39 -86 44 -133 42 -51 -3 -52 -2 -30 12 101 67 146 152 100
193 -25 23 -70 21 -109 -3z m-215 -94 c15 -8 41 -28 57 -46 l30 -31 -30 11
c-49 18 -95 51 -95 66 0 17 4 17 38 0z m380 -166 l62 -25 0 -67 c0 -38 -3 -68
-7 -68 -24 0 -123 35 -125 44 -4 26 -3 146 2 143 3 -1 33 -13 68 -27z m243
-386 c11 -32 4 -60 -18 -68 -26 -10 -195 -36 -236 -36 l-38 0 3 48 3 47 130
16 c72 9 133 17 138 18 4 0 12 -11 18 -25z m-11 -268 l0 -144 -57 -7 c-125
-14 -214 -21 -218 -16 -8 8 -5 281 3 282 51 6 232 26 250 28 22 1 22 0 22
-143z"/>
<path d="M1865 2590 c-10 -17 20 -44 40 -36 9 3 15 14 13 23 -4 21 -43 30 -53
13z"/>
<path d="M760 2429 c0 -5 5 -7 10 -4 6 3 10 8 10 11 0 2 -4 4 -10 4 -5 0 -10
-5 -10 -11z"/>
<path d="M1045 2320 c3 -5 8 -10 11 -10 2 0 4 5 4 10 0 6 -5 10 -11 10 -5 0
-7 -4 -4 -10z"/>
<path d="M3697 2164 c-4 -4 13 -19 37 -35 24 -15 62 -52 85 -81 91 -121 210
-433 301 -790 24 -93 48 -168 53 -168 15 0 2 66 -53 265 -132 483 -273 772
-396 809 -11 3 -23 3 -27 0z"/>
<path d="M2805 2101 c-48 -13 -113 -49 -125 -70 -15 -30 -12 -51 9 -59 11 -4
21 -11 23 -17 2 -5 10 -8 18 -6 8 2 76 4 150 4 l134 -1 -26 23 c-35 30 -100
38 -198 25 -44 -6 -85 -8 -91 -4 -21 13 36 55 103 75 102 31 168 19 298 -56
16 -9 26 -11 29 -4 4 14 -24 35 -89 66 -58 28 -175 40 -235 24z"/>
<path d="M3434 2050 c-31 -10 -61 -36 -52 -45 3 -3 21 2 41 10 83 35 265 5
318 -51 24 -25 24 -26 5 -40 -28 -20 -53 -17 -115 11 -82 38 -135 48 -197 35
-57 -12 -100 -44 -54 -40 14 1 30 1 35 0 6 -1 29 -1 52 0 27 1 65 -9 111 -29
48 -21 86 -31 120 -31 47 0 52 2 66 32 22 44 20 63 -10 87 -66 52 -242 85
-320 61z"/>
<path d="M870 2026 c-42 -12 -81 -26 -88 -30 -19 -12 -15 -103 6 -123 15 -16
17 -38 17 -167 0 -91 4 -151 10 -153 6 -2 10 50 11 142 0 80 3 148 6 151 3 3
24 0 47 -6 l41 -11 0 -134 c0 -73 3 -141 7 -150 5 -16 0 -17 -53 -11 -57 7
-62 5 -143 -41 l-84 -48 6 -220 c3 -121 9 -228 12 -236 5 -14 -10 -17 -107
-23 -143 -8 -195 -16 -176 -27 20 -11 4495 -16 4538 -5 34 9 34 10 10 17 -14
4 -677 7 -1475 8 l-1450 1 0 245 c0 218 -2 246 -17 262 -23 22 -31 13 -18 -21
21 -57 14 -72 -44 -96 -46 -18 -187 -59 -207 -60 -4 0 -9 27 -13 60 -14 123
-23 53 -21 -164 l2 -224 -496 5 c-273 3 -497 6 -498 7 -2 1 -6 40 -9 87 l-7
84 414 1 c406 1 528 8 553 35 8 8 -5 10 -49 5 -170 -16 -238 -18 -231 -7 4 6
29 11 56 11 59 0 120 26 120 52 0 14 8 18 38 19 20 0 46 5 57 10 12 5 -47 6
-155 1 -193 -8 -598 -6 -727 4 l-83 6 0 69 0 69 73 -7 c115 -13 879 -10 900 3
13 7 -96 10 -395 10 -227 -1 -444 3 -482 7 l-69 9 47 29 c41 26 52 29 79 20
18 -5 93 -11 167 -14 l136 -4 3 224 c1 136 -1 223 -7 219 -5 -3 -12 -97 -16
-208 -4 -112 -10 -205 -12 -207 -5 -5 -133 15 -139 21 -1 2 -4 70 -6 152 l-4
150 39 0 c56 1 57 22 1 30 l-45 7 0 45 c0 24 2 44 5 44 2 0 30 -7 62 -15 66
-17 103 -19 103 -5 0 5 -10 12 -22 14 -13 3 -70 15 -128 28 l-104 22 53 16
c29 8 52 19 52 25 1 15 -11 14 -91 -9z m11 -63 c27 -5 29 -9 29 -50 l0 -45
-32 7 c-79 18 -96 33 -84 81 6 22 11 25 33 19 14 -3 38 -9 54 -12z m864 -723
c0 -17 -5 -30 -12 -30 -13 0 -18 42 -6 53 13 13 18 7 18 -23z m245 -130 l0
-150 -140 0 -140 0 0 110 0 110 28 6 c136 33 217 55 226 64 5 5 14 10 18 10 4
0 8 -67 8 -150z"/>
<path d="M3127 1950 c-3 -8 -20 -82 -37 -165 -69 -325 -144 -580 -217 -734
-19 -40 -31 -76 -28 -80 16 -16 74 99 119 236 l28 83 33 -26 c105 -80 283 -86
361 -13 l22 20 7 -28 c11 -48 87 -199 92 -185 3 7 -11 51 -31 97 -72 168 -126
436 -126 631 0 60 -4 115 -9 123 -16 25 -24 -27 -16 -114 l7 -82 -31 -26 c-58
-48 -97 -47 -156 4 -40 35 -41 41 -19 137 l16 71 40 -30 c48 -34 88 -37 113
-9 20 22 7 27 -26 10 -26 -14 -67 8 -107 57 -22 28 -32 34 -35 23z m-36 -407
c44 -53 208 -59 241 -9 11 17 17 3 20 -53 l3 -54 -48 -24 c-71 -36 -141 -41
-199 -13 -69 32 -73 40 -58 110 14 64 19 70 41 43z"/>
<path d="M2692 1822 c-28 -59 -92 -184 -141 -279 -58 -112 -94 -195 -105 -239
-8 -38 -13 -70 -11 -72 10 -11 23 12 34 61 12 55 108 256 225 472 59 108 79
166 59 165 -5 0 -32 -49 -61 -108z"/>
<path d="M3690 1854 c0 -3 16 -33 36 -67 54 -93 122 -247 167 -385 27 -81 44
-119 51 -112 23 23 -163 488 -221 552 -16 18 -33 24 -33 12z"/>
<path d="M1886 1493 c-33 -14 -87 -31 -120 -37 -33 -7 -62 -18 -64 -24 -5 -15
9 -15 84 3 93 22 174 55 174 71 0 18 -2 17 -74 -13z"/>
</g>
</svg>
