<?xml version="1.0" standalone="no"?>
<!DOCTYPE svg PUBLIC "-//W3C//DTD SVG 20010904//EN"
 "http://www.w3.org/TR/2001/REC-SVG-20010904/DTD/svg10.dtd">
<svg version="1.0" xmlns="http://www.w3.org/2000/svg"
 width="1040.000000pt" height="1040.000000pt" viewBox="0 0 1040.000000 1040.000000"
 preserveAspectRatio="xMidYMid meet">

<g transform="translate(0.000000,1040.000000) scale(0.100000,-0.100000)"
fill="#000000" stroke="none">
<path d="M3890 9683 c-283 -30 -592 -145 -855 -319 -514 -339 -830 -842 -910
-1448 -19 -149 -19 -388 0 -480 28 -134 38 -105 47 137 4 111 12 243 18 292
57 490 255 884 611 1219 82 77 259 216 302 237 25 12 36 21 -96 -83 -109 -86
-196 -183 -289 -323 -224 -339 -365 -756 -404 -1195 -5 -58 -14 -89 -39 -135
-50 -90 -84 -225 -57 -225 16 0 49 45 75 102 96 215 303 375 569 443 178 45
354 43 483 -6 l50 -19 61 -177 c34 -98 103 -295 154 -438 50 -143 225 -658
387 -1145 163 -487 298 -891 301 -898 7 -18 -295 291 -569 583 -129 137 -335
355 -459 483 -124 128 -315 327 -425 442 -289 302 -506 500 -548 500 -16 0 75
-101 258 -290 282 -289 738 -770 1125 -1186 107 -115 243 -259 303 -321 59
-61 107 -114 107 -117 0 -4 -17 2 -37 13 -89 45 -208 64 -266 42 -45 -17 -67
-51 -67 -102 0 -41 5 -53 44 -96 25 -27 71 -63 103 -81 38 -21 51 -32 37 -32
-48 0 -336 -31 -434 -46 -137 -21 -176 -37 -189 -77 -29 -92 -20 -267 17 -316
13 -19 33 -29 70 -35 37 -7 52 -14 52 -25 2 -150 55 -631 91 -821 28 -147 46
-183 100 -204 96 -39 331 -45 739 -21 392 23 782 68 922 106 56 14 75 41 89
123 25 146 6 696 -29 820 -10 38 -27 43 -43 14 -9 -18 -9 -65 2 -228 15 -225
16 -578 2 -625 -7 -22 -19 -33 -45 -42 -40 -13 -267 -47 -445 -66 l-122 -13
-5 50 c-3 28 -8 110 -11 181 -17 367 -48 648 -79 718 l-24 52 -1 -90 c0 -49 8
-182 19 -295 11 -113 23 -298 27 -411 l6 -206 -93 -7 c-51 -4 -96 -3 -101 1
-19 21 -69 389 -94 698 -14 174 -41 315 -60 315 -38 0 -43 -70 -21 -286 24
-230 47 -584 44 -669 l-3 -80 -110 -8 c-140 -10 -468 -2 -517 13 -52 15 -64
44 -93 218 -20 122 -85 659 -85 705 0 9 32 21 98 35 168 38 393 62 752 82 320
18 361 20 545 36 204 16 400 40 462 56 63 15 77 37 81 124 3 55 -1 91 -17 141
-31 101 -36 101 -37 0 0 -119 -11 -184 -30 -191 -39 -15 -710 -84 -718 -74 -2
1 -6 47 -9 101 -5 98 -5 99 16 93 66 -18 97 -18 103 -2 9 24 -7 37 -79 66 -35
14 -63 32 -65 41 -3 15 23 17 225 24 308 9 493 21 505 33 7 7 -1 17 -23 29
-31 16 -57 18 -261 16 -126 -1 -228 0 -228 2 0 1 20 15 44 29 24 14 57 41 75
61 71 81 16 185 -97 185 -64 0 -165 -37 -229 -83 -32 -24 -63 -46 -70 -50 -25
-15 124 279 270 533 33 58 153 265 267 460 114 195 236 405 270 465 35 61 108
184 162 275 115 192 271 500 292 580 l15 55 -22 -27 c-12 -15 -64 -101 -116
-190 -51 -90 -191 -327 -311 -528 -609 -1023 -707 -1195 -861 -1505 -60 -121
-109 -210 -109 -198 0 13 -27 103 -60 200 -34 98 -137 405 -230 683 -93 278
-199 588 -235 690 -37 102 -106 298 -155 435 -113 320 -179 489 -240 610 l-48
97 36 41 c109 121 306 235 487 283 86 23 121 27 250 28 178 1 281 -20 410 -84
117 -58 117 -58 105 -116 -6 -27 -19 -152 -30 -277 -12 -126 -41 -385 -66
-575 -24 -191 -63 -489 -85 -662 -21 -173 -55 -422 -74 -552 -45 -314 -61
-511 -49 -608 l10 -75 17 72 c9 40 26 145 37 235 19 150 62 470 155 1153 99
724 132 1009 142 1217 l6 139 36 19 c100 50 271 76 409 60 285 -32 536 -170
667 -368 15 -23 30 -41 32 -38 16 15 33 127 33 213 0 162 -32 286 -125 481
-93 194 -224 380 -390 551 -123 127 -209 198 -351 291 -395 257 -855 398
-1184 363z m193 -235 c90 -90 194 -203 230 -253 143 -195 255 -415 318 -629
30 -104 91 -378 84 -384 -2 -2 -21 8 -42 22 -50 35 -176 83 -264 101 -94 20
-322 20 -429 -1 -202 -38 -399 -135 -532 -263 -26 -24 -51 -42 -55 -38 -12 13
-8 378 5 462 71 447 189 751 411 1058 48 67 68 87 86 87 17 0 69 -44 188 -162z
m259 121 c260 -64 551 -199 769 -355 167 -120 381 -345 510 -539 74 -110 159
-282 196 -395 28 -83 70 -277 87 -395 l6 -40 -24 52 c-13 28 -42 71 -64 95
-34 38 -44 59 -75 173 -95 352 -262 607 -602 925 -252 235 -407 324 -785 451
-170 58 -176 67 -18 28z m511 -4248 c13 -5 27 -17 31 -27 13 -35 -85 -111
-180 -139 -56 -16 -245 -48 -251 -41 -7 7 161 135 218 166 49 26 108 46 146
49 6 1 23 -3 36 -8z m-858 -40 c58 -25 295 -182 295 -195 0 -17 -232 0 -302
23 -78 25 -154 75 -185 121 -27 40 -28 44 -6 65 23 23 130 15 198 -14z m199
-277 c12 -5 -1 -19 -51 -57 -37 -28 -77 -62 -89 -77 -60 -68 86 -7 200 85 61
49 74 55 115 55 34 -1 61 -10 101 -34 64 -38 67 -46 69 -183 l1 -93 -48 0
c-27 0 -89 -3 -139 -6 l-90 -7 -21 88 c-12 48 -27 94 -33 101 -23 28 -30 2
-24 -85 3 -47 2 -91 -2 -97 -16 -23 -809 -52 -830 -31 -4 5 -8 45 -8 90 1 88
25 156 64 177 24 13 315 46 526 60 191 12 239 16 242 18 1 1 9 -1 17 -4z"/>
<path d="M6399 8315 c-26 -14 -100 -119 -119 -169 -5 -15 -10 -41 -10 -57 0
-23 4 -30 17 -27 16 3 48 43 138 173 55 78 42 117 -26 80z"/>
<path d="M6497 8030 c-51 -9 -85 -29 -93 -52 -9 -29 2 -33 51 -20 25 7 65 12
89 12 59 0 81 24 47 51 -25 20 -34 21 -94 9z"/>
<path d="M9231 5300 c-61 -72 -88 -148 -60 -165 13 -9 56 30 77 71 10 17 29
54 45 82 33 62 33 62 4 62 -16 0 -38 -16 -66 -50z"/>
<path d="M9439 5088 c-112 -58 -154 -98 -129 -123 13 -12 20 -12 55 5 50 24
200 141 198 155 -3 20 -24 14 -124 -37z"/>
<path d="M8237 4983 c-4 -3 -24 -9 -44 -12 -65 -11 -65 -13 -58 -396 6 -350
-1 -470 -32 -546 -8 -21 -21 -39 -29 -39 -7 0 -71 29 -141 65 -182 93 -275
104 -339 40 -49 -49 -27 -83 152 -233 141 -119 210 -191 251 -262 93 -163 197
-291 291 -361 30 -22 34 -32 47 -107 8 -46 16 -122 17 -170 l3 -86 -70 -34
c-38 -19 -77 -39 -86 -45 -8 -7 11 13 43 43 60 56 75 86 38 76 -11 -3 -30 -9
-42 -12 -44 -13 -99 -55 -115 -89 -15 -31 -15 -41 5 -142 28 -147 30 -158 48
-403 31 -423 96 -759 154 -795 16 -10 12 36 -15 147 -34 139 -54 286 -61 448
-10 191 -16 183 144 175 77 -4 163 -2 217 4 115 15 314 65 383 98 50 24 92 66
78 80 -3 4 -45 -10 -94 -29 -111 -46 -289 -86 -417 -94 -85 -6 -311 9 -323 21
-2 2 -8 54 -14 117 -5 62 -15 146 -22 186 l-12 72 132 0 c183 0 440 38 589 86
199 65 282 147 213 211 -56 52 -218 58 -218 8 0 -20 18 -29 75 -36 l50 -6 -62
-2 -62 -1 -10 38 c-62 232 -61 254 70 837 74 336 119 579 119 654 0 49 -21 91
-45 91 -55 0 -87 -44 -148 -206 -38 -101 -150 -338 -132 -280 15 52 37 293 42
473 5 176 4 208 -11 247 -27 70 -72 73 -105 7 -31 -60 -89 -272 -113 -416 -2
-11 -12 22 -21 74 -45 241 -129 423 -220 475 -46 26 -91 39 -100 29z m2 -131
c40 -79 77 -268 101 -527 13 -132 26 -195 40 -195 5 0 17 11 26 26 15 21 16
42 11 142 -7 126 -37 343 -67 487 l-18 90 20 -25 c60 -73 140 -303 173 -502
13 -75 30 -149 38 -164 l15 -28 17 33 c9 18 25 85 36 149 31 183 90 402 108
402 13 0 19 -182 10 -303 -9 -135 -11 -313 -3 -344 8 -29 19 -29 61 3 48 37
94 112 148 242 41 99 65 136 65 101 0 -24 -82 -421 -125 -606 -125 -533 -130
-612 -54 -875 16 -56 26 -104 24 -107 -15 -14 -150 -32 -286 -38 l-156 -6 -6
104 c-3 57 -11 135 -18 173 -13 67 -12 69 10 87 13 11 36 19 52 19 43 0 36 13
-24 42 -118 57 -241 186 -345 361 -78 131 -137 196 -292 322 -143 117 -156
130 -140 140 15 9 71 9 101 0 13 -4 78 -34 144 -67 66 -34 133 -64 149 -69 44
-13 83 13 111 74 40 87 48 204 40 570 -5 229 -3 327 4 327 6 0 19 -17 30 -38z"/>
<path d="M9347 4763 c-17 -16 -3 -34 58 -78 99 -71 178 -96 191 -61 10 27 -26
62 -109 104 -78 39 -125 51 -140 35z"/>
<path d="M1040 4662 c0 -23 140 -193 178 -214 35 -21 59 -23 65 -5 8 23 -25
72 -92 136 -97 93 -151 123 -151 83z"/>
<path d="M2051 4359 c-44 -47 -36 -168 30 -484 22 -104 42 -202 45 -217 3 -16
2 -28 -3 -28 -4 0 -51 78 -103 172 -197 355 -297 470 -360 413 -48 -43 -20
-146 112 -430 116 -245 144 -325 117 -325 -6 0 -66 53 -132 118 -144 140 -160
152 -207 152 -47 0 -60 -15 -60 -69 0 -85 87 -219 405 -627 103 -131 200 -261
216 -289 33 -57 66 -188 75 -297 l7 -74 -79 -17 c-117 -25 -162 -51 -188 -106
-19 -43 -21 -62 -20 -261 1 -327 67 -748 132 -848 16 -24 16 -24 24 -3 8 22
23 27 33 11 3 -5 24 -14 46 -20 36 -10 46 -8 90 15 103 54 259 76 349 50 67
-20 160 -30 195 -21 15 4 52 32 83 64 45 45 70 61 115 75 32 10 60 17 62 15 1
-2 12 -23 24 -46 13 -24 24 -42 27 -40 2 3 -10 96 -26 209 -17 112 -44 313
-60 446 -32 251 -57 374 -86 418 -21 32 -78 62 -135 71 -75 12 -80 27 -108
298 l-9 88 38 54 c35 50 56 104 95 246 9 34 37 90 68 135 30 43 79 115 110
160 83 122 86 195 10 216 -42 12 -93 -13 -193 -93 -41 -34 -88 -68 -104 -77
-27 -14 -31 -14 -43 3 -38 52 -46 199 -33 665 4 148 2 191 -9 212 -28 52 -78
47 -115 -11 -50 -80 -111 -314 -122 -475 -4 -48 -8 -86 -10 -84 -2 1 -21 74
-43 160 -67 262 -137 453 -178 485 -25 18 -60 15 -82 -9z m88 -149 c18 -44 59
-172 92 -283 57 -190 127 -367 146 -367 21 0 35 51 44 158 12 146 32 267 65
379 50 173 67 146 54 -83 -26 -447 -2 -633 85 -670 55 -23 94 -4 225 107 68
57 99 74 112 61 13 -13 3 -32 -102 -182 -110 -157 -122 -182 -150 -305 -13
-55 -31 -118 -40 -141 -21 -49 -73 -110 -115 -136 l-30 -18 32 0 c26 0 36 -6
48 -30 8 -16 15 -45 15 -64 0 -19 7 -70 15 -113 8 -43 15 -83 15 -88 0 -6 -60
-11 -161 -12 -88 -1 -177 -4 -198 -8 l-37 -6 -13 106 c-24 208 -42 244 -293
560 -241 305 -368 486 -383 548 -13 49 16 31 120 -73 55 -56 120 -114 144
-130 49 -33 101 -39 125 -14 37 36 14 115 -109 379 -51 110 -103 224 -114 253
-22 55 -27 102 -12 102 22 0 121 -152 271 -416 111 -195 132 -224 166 -224 58
0 57 65 -7 372 -51 245 -72 418 -51 418 6 0 24 -36 41 -80z m81 -2090 c27 -27
25 -55 -6 -79 -33 -26 -49 -26 -74 -1 -25 25 -25 41 1 74 24 31 52 33 79 6z
m588 -42 c33 -33 -7 -102 -56 -96 -19 2 -30 11 -37 32 -8 25 -6 31 18 52 31
26 57 30 75 12z m-78 -338 c15 -28 4 -59 -26 -72 -27 -12 -48 0 -57 32 -12 48
60 83 83 40z m-352 -227 c47 -41 26 -103 -36 -103 -36 0 -52 16 -52 53 0 63
44 87 88 50z"/>
<path d="M888 4353 c-36 -9 -17 -43 32 -58 14 -4 43 -16 65 -25 68 -30 99 -38
123 -29 12 5 22 15 22 23 0 20 -57 66 -81 66 -11 0 -28 4 -37 9 -22 12 -102
21 -124 14z"/>
<path d="M6286 4201 c-31 -34 -38 -85 -43 -315 l-6 -230 -23 62 c-44 118 -172
325 -219 356 -48 32 -98 14 -111 -40 -10 -41 3 -123 42 -256 78 -271 130 -541
117 -611 -14 -75 -44 -75 -162 3 -136 89 -168 104 -232 104 -95 1 -138 -39
-106 -100 8 -16 47 -65 87 -109 98 -109 144 -182 175 -278 45 -140 136 -281
215 -333 49 -33 56 -70 44 -233 l-9 -115 -80 -12 c-44 -6 -90 -16 -102 -22
-14 -8 -24 -8 -28 -2 -3 5 14 14 37 20 68 17 97 28 120 44 21 15 21 15 -6 22
-39 9 -122 -2 -164 -23 -47 -24 -59 -44 -46 -80 31 -88 387 -156 819 -157 191
-1 214 1 250 19 34 17 40 25 43 57 3 31 -2 40 -32 63 -39 29 -141 65 -187 65
-36 0 -40 -31 -7 -54 l22 -16 -27 0 -27 0 0 78 c1 124 18 353 30 407 57 238
131 427 235 602 134 224 215 412 201 466 -9 36 -40 43 -79 18 -18 -11 -97 -93
-177 -182 -80 -90 -151 -165 -159 -167 -27 -9 3 114 114 468 55 172 67 260 40
290 -46 51 -104 6 -177 -137 -60 -116 -142 -321 -165 -408 l-17 -70 -13 225
c-22 399 -49 545 -107 585 -28 20 -60 19 -80 -4z m89 -191 c8 -39 19 -124 24
-188 6 -64 15 -180 21 -257 11 -142 38 -234 62 -219 6 4 53 95 104 203 122
255 180 365 195 370 20 6 6 -51 -71 -299 -114 -369 -121 -450 -39 -450 37 0
77 36 232 208 65 73 122 131 125 128 8 -9 -86 -191 -172 -331 -91 -151 -120
-211 -171 -355 -85 -244 -114 -429 -115 -727 l0 -133 -94 0 c-122 0 -236 15
-308 41 l-56 21 5 171 c6 183 13 207 57 207 15 0 7 9 -30 34 -118 79 -229 239
-279 401 -27 88 -70 154 -174 268 -45 48 -81 92 -81 97 0 16 78 11 113 -6 18
-10 71 -43 118 -75 109 -73 157 -89 204 -66 19 9 42 31 52 49 41 77 6 333 -91
666 -47 161 -63 242 -47 242 16 0 98 -132 151 -242 46 -97 66 -158 104 -322
16 -69 32 -100 46 -91 5 3 16 26 26 53 14 40 18 97 23 372 3 179 10 331 15
339 13 20 33 -22 51 -109z"/>
<path d="M968 3945 c-4 -4 -37 -10 -74 -15 -71 -9 -99 -25 -84 -49 12 -20 122
-27 177 -12 81 22 99 74 28 79 -23 2 -44 0 -47 -3z"/>
<path d="M9161 2866 c-9 -11 -7 -36 13 -118 52 -211 86 -508 85 -738 -1 -187
2 -206 33 -287 36 -92 42 -59 35 196 -9 371 -49 721 -101 886 -22 71 -42 89
-65 61z"/>
<path d="M8336 2524 c-24 -23 -20 -59 9 -78 32 -21 58 -20 78 2 35 39 10 92
-43 92 -16 0 -36 -7 -44 -16z"/>
<path d="M5724 1945 c-29 -69 -38 -280 -25 -565 11 -253 9 -338 -15 -517 -8
-63 5 -70 30 -15 35 79 40 142 42 532 1 311 5 404 18 482 10 54 15 102 11 108
-14 23 -46 10 -61 -25z"/>
<path d="M6897 1880 c-3 -19 -8 -89 -11 -155 -9 -213 -62 -558 -101 -666 -46
-124 -65 -199 -65 -252 0 -43 4 -59 15 -64 19 -7 51 21 58 50 2 12 20 90 40
172 46 194 72 359 92 568 20 221 19 292 -4 342 l-18 40 -6 -35z"/>
<path d="M5957 1692 c-23 -25 -21 -58 3 -82 58 -58 135 18 80 78 -25 27 -61
28 -83 4z"/>
<path d="M6400 1250 c-11 -11 -20 -25 -20 -31 0 -15 21 -53 34 -61 17 -12 61
-9 74 4 32 32 -2 108 -48 108 -11 0 -29 -9 -40 -20z"/>
</g>
</svg>
