<svg width="16" height="16" viewBox="0 0 16 16" fill="none" xmlns="http://www.w3.org/2000/svg">
<rect width="16" height="16" rx="8" fill="white"/>
<path d="M6.36609 11.044C6.70076 10.8451 7.01202 10.6228 7.27414 10.3396C7.53392 10.0611 7.75157 9.74748 7.90837 9.38473C7.95284 9.38239 7.9973 9.37771 8.03943 9.37537C8.33665 9.37069 8.63621 9.38941 8.9311 9.35665C9.6917 9.27474 10.2159 8.50243 10.0451 7.73948C9.91404 7.15907 9.3898 6.71441 8.8094 6.70037C8.52388 6.69335 8.2407 6.69803 7.94581 6.69803C7.64157 5.99125 7.1618 5.44595 6.49013 5.05277C6.52991 5.04341 6.54629 5.03639 6.56268 5.03639C7.35605 5.03639 8.14708 5.01533 8.93812 5.04341C9.73617 5.0715 10.4055 5.42255 10.9461 6.02869C11.0397 6.13401 11.1216 6.25102 11.2106 6.36102C10.9227 6.88994 10.7683 7.43757 10.7683 8.03436C10.7683 8.63114 10.918 9.17878 11.2129 9.71706C11.1029 9.8528 10.9929 9.99556 10.8736 10.1266C10.5061 10.5292 10.0521 10.7983 9.53724 10.9387C9.27981 11.0089 9.00599 11.037 8.73919 11.0417C7.97858 11.0557 7.21797 11.0464 6.45736 11.0464C6.42694 11.051 6.39651 11.0464 6.36609 11.044Z" fill="#DD2428"/>
<path d="M14.0001 5.02979V6.69844C13.5999 6.71951 13.2652 6.87865 13.0101 7.18757C12.8205 7.41693 12.7293 7.68606 12.7105 7.99031C12.6731 8.58475 13.1318 9.34536 13.9977 9.38749V11.0351C13.2863 11.0795 12.2425 10.6981 11.6129 9.77598C10.8944 8.72751 10.9342 7.3748 11.531 6.43633C12.1067 5.52828 12.9352 5.07191 14.0001 5.02979Z" fill="#444750"/>
<path d="M7.82879 7.68059H6.1929C6.0829 7.26869 5.83717 6.97147 5.46506 6.78892C5.19592 6.65787 4.9104 6.64148 4.6202 6.70467C4.07022 6.82403 3.63257 7.39273 3.62321 7.99654C3.61385 8.57928 4.02341 9.13628 4.58977 9.29074C4.92912 9.38201 5.26379 9.34691 5.57037 9.16202C5.86993 8.98182 6.07588 8.7197 6.1812 8.37801H7.81943C7.77029 9.40308 6.86458 10.7932 5.28017 10.9875C3.58811 11.1958 2.08327 9.89455 2.0037 8.151C1.91945 6.38639 3.28386 4.95878 5.01571 5.00091C6.66565 5.04303 7.75858 6.44021 7.82879 7.68059Z" fill="#444750"/>
</svg>
